{
classes = (
{
automatic = 1;
code = "A Aacute Abreve Acircumflex Adieresis Agrave Amacron Aogonek Aring Atilde AE B C Cacute Ccaron Ccedilla Cdotaccent D Eth Dcaron Dcroat E Eacute Ecaron Ecircumflex Edieresis Edotaccent Egrave Emacron Eogonek F G Gbreve Gcommaaccent Gdotaccent H Hbar I IJ Iacute Icircumflex Idieresis Idotaccent Igrave Imacron Iogonek J K Kcommaaccent L Lacute Lcaron Lcommaaccent Ldot Lslash M N Nacute Ncaron Ncommaaccent Eng Ntilde O Oacute Ocircumflex Odieresis Ograve Ohungarumlaut Omacron Oslash Otilde OE P Thorn Q R Racute Rcaron Rcommaaccent S Sacute Scaron Scedilla Scommaaccent T Tbar Tcaron Tcedilla Tcommaaccent U Uacute Ucircumflex Udieresis Ugrave Uhungarumlaut Umacron Uogonek Uring V W Wacute Wcircumflex Wdieresis Wgrave X Y Yacute Ycircumflex Ydieresis Ygrave Z Zacute Zcaron Zdotaccent A.ss01 E.ss01 M.ss01 N.ss01 Q.ss01 R.ss01 U.ss01 W.ss01";
name = Uppercase;
}
);
copyright = "Copyright \U00A9 2013 by Andrew Paglinawan. All rights reserved.";
customParameters = (
{
name = description;
value = "Copyright \U00A9 2013 by Andrew Paglinawan. All rights reserved.";
},
{
name = vendorID;
value = AP;
},
{
name = licenseURL;
value = "http://scripts.sil.org/OFL_web";
}
);
date = "2013-10-27 09:57:24 +0000";
designer = "Andrew Paglinawan";
designerURL = www.andrewpaglinawan.com;
familyName = "Quicksand Pro";
featurePrefixes = (
{
automatic = 1;
code = "languagesystem DFLT dflt;\012languagesystem grek dflt;\012languagesystem latn dflt;\012languagesystem latn CAT;\012languagesystem latn ROM;\012languagesystem latn MOL;\012languagesystem latn TRK;\012";
name = Languagesystems;
}
);
features = (
{
automatic = 1;
code = "feature locl;\012feature sups;\012feature frac;\012feature ordn;\012feature case;\012feature salt;\012feature ss01;\012";
name = aalt;
},
{
automatic = 1;

glyphs = (
{
glyphname = A;
lastChange = "2013-12-18 08:32:29 +0400";
layers = (
{
anchors = (
{
name = ogonek;
position = "{553, 10}";
},
{
name = top;
position = "{303, 700}";
}
);
layerId = "4FD7A5AB-3C0B-49D1-A419-889C157412FC";
name = Bold;
paths = (
{
closed = 1;
nodes = (
"359 664 LINE SMOOTH",
"348 689 OFFCURVE",
"327 704 OFFCURVE",
"303 704 CURVE",
"277 706 OFFCURVE",
"253 691 OFFCURVE",
"243 664 CURVE SMOOTH",
"15 79 LINE SMOOTH",
"2 46 OFFCURVE",
"17 13 OFFCURVE",
"49 1 CURVE SMOOTH",
"82 -11 OFFCURVE",
"115 4 OFFCURVE",
"128 37 CURVE SMOOTH",
"171 149 LINE SMOOTH",
"173 154 OFFCURVE",
"177 157 OFFCURVE",
"182 157 CURVE SMOOTH",
"422 157 LINE SMOOTH",
"427 157 OFFCURVE",
"431 155 OFFCURVE",
"433 149 CURVE SMOOTH",
"478 37 LINE SMOOTH",
"491 4 OFFCURVE",
"522 -12 OFFCURVE",
"554 0 CURVE SMOOTH",
"587 13 OFFCURVE",
"602 46 OFFCURVE",
"589 79 CURVE SMOOTH"
);
},
{
closed = 1;
nodes = (
"233 277 LINE SMOOTH",
"226 277 OFFCURVE",
"223 282 OFFCURVE",
"226 289 CURVE SMOOTH",
"295 467 LINE SMOOTH",
"299 476 OFFCURVE",
"305 476 OFFCURVE",
"309 467 CURVE SMOOTH",
"378 289 LINE SMOOTH",
"381 282 OFFCURVE",
"378 277 OFFCURVE",
"371 277 CURVE SMOOTH"
);
}
);
width = 603.66;
}
);
leftKerningGroup = A;
rightKerningGroup = dollar;
unicode = 0041;
},
{
glyphname = AE;
lastChange = "2013-12-18 08:32:29 +0400";
layers = (
{
anchors = (
{
name = bottom;
position = "{626, 0}";
},
{
name = ogonek;
position = "{860, 10}";
},
{
name = top;
position = "{626, 700}";
}
);
layerId = "4FD7A5AB-3C0B-49D1-A419-889C157412FC";
name = Bold;
paths = (
{
closed = 1;
nodes = (
"552 120 LINE SMOOTH",
"546 120 OFFCURVE",
"542 124 OFFCURVE",
"542 130 CURVE SMOOTH",
"542 240 LINE SMOOTH",
"542 247 OFFCURVE",
"546 250 OFFCURVE",
"552 250 CURVE SMOOTH",
"763 250 LINE SMOOTH",
"798 250 OFFCURVE",
"824 275 OFFCURVE",
"824 309 CURVE SMOOTH",
"824 344 OFFCURVE",
"798 370 OFFCURVE",
"763 370 CURVE SMOOTH",
"552 370 LINE SMOOTH",
"546 370 OFFCURVE",
"542 374 OFFCURVE",
"542 380 CURVE SMOOTH",
"542 570 LINE SMOOTH",
"542 577 OFFCURVE",
"545 580 OFFCURVE",
"552 580 CURVE SMOOTH",
"808 580 LINE SMOOTH",
"843 580 OFFCURVE",
"869 605 OFFCURVE",
"869 639 CURVE SMOOTH",
"869 674 OFFCURVE",
"843 700 OFFCURVE",
"808 700 CURVE SMOOTH",
"486 700 LINE",
"465 703 OFFCURVE",
"444 694 OFFCURVE",
"430 674 CURVE SMOOTH",
"22 97 LINE SMOOTH",
"2 68 OFFCURVE",
"7 32 OFFCURVE",
"35 13 CURVE SMOOTH",
"64 -8 OFFCURVE",
"100 -2 OFFCURVE",
"120 27 CURVE SMOOTH",
"195 133 LINE SMOOTH",
"196 135 OFFCURVE",
"198 136 OFFCURVE",
"201 136 CURVE SMOOTH",
"417 136 LINE SMOOTH",
"420 136 OFFCURVE",
"422 134 OFFCURVE",
"422 131 CURVE SMOOTH",
"422 61 LINE SMOOTH",
"422 26 OFFCURVE",
"448 0 OFFCURVE",
"483 0 CURVE SMOOTH",
"808 0 LINE SMOOTH",
"843 0 OFFCURVE",
"869 25 OFFCURVE",
"869 59 CURVE SMOOTH",
"869 94 OFFCURVE",
"843 120 OFFCURVE",
"808 120 CURVE SMOOTH"
);
},
{
closed = 1;
nodes = (
"289 256 LINE SMOOTH",
"285 256 OFFCURVE",
"284 259 OFFCURVE",
"286 262 CURVE SMOOTH",
"416 445 LINE SMOOTH",
"419 449 OFFCURVE",
"422 448 OFFCURVE",
"422 444 CURVE SMOOTH",
"422 261 LINE SMOOTH",
"422 258 OFFCURVE",
"420 256 OFFCURVE",
"417 256 CURVE SMOOTH"
);
}
);
width = 919;
}
);
leftMetricsKey = A;
rightMetricsKey = E;
unicode = 00C6;
},
{
glyphname = B;
lastChange = "2013-12-18 08:32:29 +0400";
layers = (
{
layerId = "4FD7A5AB-3C0B-49D1-A419-889C157412FC";
name = Bold;
paths = (
{
closed = 1;
nodes = (
"151 700 LINE SMOOTH",
"116 700 OFFCURVE",
"90 674 OFFCURVE",
"90 639 CURVE SMOOTH",
"90 61 LINE SMOOTH",
"90 26 OFFCURVE",
"116 0 OFFCURVE",
"151 0 CURVE SMOOTH",
"340 0 LINE SMOOTH",
"439 0 OFFCURVE",
"570 36 OFFCURVE",
"570 213 CURVE SMOOTH",
"570 311 OFFCURVE",
"527 364 OFFCURVE",
"473 393 CURVE SMOOTH",
"467 396 OFFCURVE",
"466 400 OFFCURVE",
"469 406 CURVE SMOOTH",
"484 434 OFFCURVE",
"493 468 OFFCURVE",
"493 511 CURVE SMOOTH",
"493 668 OFFCURVE",
"380 700 OFFCURVE",
"313 700 CURVE SMOOTH"
);
},
{
closed = 1;
nodes = (
"220 426 LINE SMOOTH",
"214 426 OFFCURVE",
"210 430 OFFCURVE",
"210 436 CURVE SMOOTH",
"210 570 LINE SMOOTH",
"210 577 OFFCURVE",
"214 580 OFFCURVE",
"220 580 CURVE SMOOTH",
"288 580 LINE SMOOTH",
"325 580 OFFCURVE",
"373 567 OFFCURVE",
"373 508 CURVE SMOOTH",
"373 442 OFFCURVE",
"329 426 OFFCURVE",
"291 426 CURVE SMOOTH"
);
},
{
closed = 1;
nodes = (
"220 120 LINE SMOOTH",
"214 120 OFFCURVE",
"210 123 OFFCURVE",
"210 130 CURVE SMOOTH",
"210 296 LINE SMOOTH",
"210 302 OFFCURVE",
"214 306 OFFCURVE",
"220 306 CURVE SMOOTH",
"333 306 LINE SMOOTH",
"378 306 OFFCURVE",
"450 302 OFFCURVE",
"450 213 CURVE SMOOTH",
"450 148 OFFCURVE",
"407 120 OFFCURVE",
"340 120 CURVE SMOOTH"
);
}
);
width = 618;
}
);
leftKerningGroup = B;
rightKerningGroup = B;
unicode = 0042;
},
{
glyphname = C;
lastChange = "2013-12-18 08:32:29 +0400";
layers = (
{
anchors = (
{
name = bottom;
position = "{314, 0}";
},
{
name = top;
position = "{314, 700}";
}
);
layerId = "4FD7A5AB-3C0B-49D1-A419-889C157412FC";
name = Bold;
paths = (
{
closed = 1;
nodes = (
"526 686 OFFCURVE",
"469 700 OFFCURVE",
"410 700 CURVE SMOOTH",
"211 700 OFFCURVE",
"50 543 OFFCURVE",
"50 350 CURVE SMOOTH",
"50 128 OFFCURVE",
"229 1 OFFCURVE",
"410 1 CURVE SMOOTH",
"467 1 OFFCURVE",
"524 14 OFFCURVE",
"576 40 CURVE SMOOTH",
"609 56 OFFCURVE",
"618 96 OFFCURVE",
"592 130 CURVE SMOOTH",
"573 154 OFFCURVE",
"544 157 OFFCURVE",
"516 144 CURVE SMOOTH",
"483 128 OFFCURVE",
"446 121 OFFCURVE",
"410 121 CURVE SMOOTH",
"289 121 OFFCURVE",
"170 203 OFFCURVE",
"170 350 CURVE SMOOTH",
"170 476 OFFCURVE",
"277 580 OFFCURVE",
"410 580 CURVE SMOOTH",
"448 580 OFFCURVE",
"484 572 OFFCURVE",
"516 557 CURVE SMOOTH",
"544 543 OFFCURVE",
"573 545 OFFCURVE",
"591 569 CURVE SMOOTH",
"616 600 OFFCURVE",
"610 643 OFFCURVE",
"575 661 CURVE SMOOTH"
);
}
);
width = 627.387;
}
);
leftKerningGroup = C;
rightKerningGroup = C;
unicode = 0043;
},
{
glyphname = D;
lastChange = "2013-12-18 08:32:29 +0400";
layers = (
{
anchors = (
{
name = center;
position = "{351, 350}";
},
{
name = top;
position = "{351, 700}";
}
);
layerId = "4FD7A5AB-3C0B-49D1-A419-889C157412FC";
name = Bold;
paths = (
{
closed = 1;
nodes = (
"151 700 LINE SMOOTH",
"116 700 OFFCURVE",
"90 674 OFFCURVE",
"90 639 CURVE SMOOTH",
"90 61 LINE SMOOTH",
"90 26 OFFCURVE",
"116 0 OFFCURVE",
"151 0 CURVE SMOOTH",
"350 0 LINE SMOOTH",
"543 0 OFFCURVE",
"650 156 OFFCURVE",
"650 350 CURVE SMOOTH",
"650 543 OFFCURVE",
"543 700 OFFCURVE",
"350 700 CURVE SMOOTH"
);
},
{
closed = 1;
nodes = (
"220 120 LINE SMOOTH",
"214 120 OFFCURVE",
"210 124 OFFCURVE",
"210 130 CURVE SMOOTH",
"210 570 LINE SMOOTH",
"210 577 OFFCURVE",
"214 580 OFFCURVE",
"220 580 CURVE SMOOTH",
"350 580 LINE SMOOTH",
"476 580 OFFCURVE",
"530 476 OFFCURVE",
"530 350 CURVE SMOOTH",
"530 223 OFFCURVE",
"476 120 OFFCURVE",
"350 120 CURVE SMOOTH"
);
}
);
width = 700;
}
);
leftKerningGroup = B;
rightKerningGroup = D;
unicode = 0044;
},
{
glyphname = Eth;
lastChange = "2013-12-18 08:32:29 +0400";
layers = (
{
anchors = (
{
name = center;
position = "{351, 350}";
},
{
name = top;
position = "{351, 700}";
}
);
layerId = "4FD7A5AB-3C0B-49D1-A419-889C157412FC";
name = Bold;
paths = (
{
closed = 1;
nodes = (
"151 700 LINE SMOOTH",
"116 700 OFFCURVE",
"90 674 OFFCURVE",
"90 639 CURVE SMOOTH",
"90 415 LINE SMOOTH",
"90 412 OFFCURVE",
"88 410 OFFCURVE",
"85 410 CURVE SMOOTH",
"72 410 LINE SMOOTH",
"37 410 OFFCURVE",
"11 385 OFFCURVE",
"11 351 CURVE SMOOTH",
"11 316 OFFCURVE",
"37 291 OFFCURVE",
"72 291 CURVE SMOOTH",
"85 291 LINE SMOOTH",
"88 291 OFFCURVE",
"90 289 OFFCURVE",
"90 286 CURVE SMOOTH",
"90 61 LINE SMOOTH",
"90 26 OFFCURVE",
"116 0 OFFCURVE",
"151 0 CURVE SMOOTH",
"350 0 LINE SMOOTH",
"543 0 OFFCURVE",
"650 156 OFFCURVE",
"650 350 CURVE SMOOTH",
"650 543 OFFCURVE",
"543 700 OFFCURVE",
"350 700 CURVE SMOOTH"
);
},
{
closed = 1;
nodes = (
"220 120 LINE SMOOTH",
"214 120 OFFCURVE",
"210 124 OFFCURVE",
"210 130 CURVE SMOOTH",
"210 286 LINE SMOOTH",
"210 289 OFFCURVE",
"212 291 OFFCURVE",
"215 291 CURVE SMOOTH",
"246 291 LINE SMOOTH",
"281 291 OFFCURVE",
"307 315 OFFCURVE",
"307 349 CURVE SMOOTH",
"307 384 OFFCURVE",
"281 410 OFFCURVE",
"246 410 CURVE SMOOTH",
"215 410 LINE SMOOTH",
"212 410 OFFCURVE",
"210 412 OFFCURVE",
"210 415 CURVE SMOOTH",
"210 570 LINE SMOOTH",
"210 577 OFFCURVE",
"214 580 OFFCURVE",
"220 580 CURVE SMOOTH",
"350 580 LINE SMOOTH",
"476 580 OFFCURVE",
"530 476 OFFCURVE",
"530 350 CURVE SMOOTH",
"530 223 OFFCURVE",
"476 120 OFFCURVE",
"350 120 CURVE SMOOTH"
);
}
);
width = 700;
}
);
unicode = 00D0;
},
{
glyphname = E;
lastChange = "2013-12-18 08:32:29 +0400";
layers = (
{
anchors = (
{
name = bottom;
position = "{294, 0}";
},
{
name = ogonek;
position = "{528, 10}";
},
{
name = top;
position = "{294, 700}";
}
);
layerId = "4FD7A5AB-3C0B-49D1-A419-889C157412FC";
name = Bold;
paths = (
{
closed = 1;
nodes = (
"476 580 LINE SMOOTH",
"511 580 OFFCURVE",
"537 605 OFFCURVE",
"537 639 CURVE SMOOTH",
"537 674 OFFCURVE",
"511 700 OFFCURVE",
"476 700 CURVE SMOOTH",
"151 700 LINE SMOOTH",
"116 700 OFFCURVE",
"90 674 OFFCURVE",
"90 639 CURVE SMOOTH",
"90 61 LINE SMOOTH",
"90 26 OFFCURVE",
"116 0 OFFCURVE",
"151 0 CURVE SMOOTH",
"476 0 LINE SMOOTH",
"511 0 OFFCURVE",
"537 25 OFFCURVE",
"537 59 CURVE SMOOTH",
"537 94 OFFCURVE",
"511 120 OFFCURVE",
"476 120 CURVE SMOOTH",
"220 120 LINE SMOOTH",
"214 120 OFFCURVE",
"210 124 OFFCURVE",
"210 130 CURVE SMOOTH",
"210 240 LINE SMOOTH",
"210 247 OFFCURVE",
"214 250 OFFCURVE",
"220 250 CURVE SMOOTH",
"431 250 LINE SMOOTH",
"466 250 OFFCURVE",
"492 275 OFFCURVE",
"492 309 CURVE SMOOTH",
"492 344 OFFCURVE",
"466 370 OFFCURVE",
"431 370 CURVE SMOOTH",
"220 370 LINE SMOOTH",
"214 370 OFFCURVE",
"210 374 OFFCURVE",
"210 380 CURVE SMOOTH",
"210 570 LINE SMOOTH",
"210 577 OFFCURVE",
"213 580 OFFCURVE",
"220 580 CURVE SMOOTH"
);
}
);
width = 587;
}
);
leftKerningGroup = B;
rightKerningGroup = E;
unicode = 0045;
},
{
glyphname = F;
lastChange = "2013-12-18 08:32:29 +0400";
layers = (
{
layerId = "4FD7A5AB-3C0B-49D1-A419-889C157412FC";
name = Bold;
paths = (
{
closed = 1;
nodes = (
"476 580 LINE SMOOTH",
"511 580 OFFCURVE",
"537 605 OFFCURVE",
"537 639 CURVE SMOOTH",
"537 674 OFFCURVE",
"511 700 OFFCURVE",
"476 700 CURVE SMOOTH",
"151 700 LINE SMOOTH",
"116 700 OFFCURVE",
"90 674 OFFCURVE",
"90 639 CURVE SMOOTH",
"90 61 LINE SMOOTH",
"90 26 OFFCURVE",
"115 0 OFFCURVE",
"150 0 CURVE SMOOTH",
"185 0 OFFCURVE",
"210 26 OFFCURVE",
"210 61 CURVE SMOOTH",
"210 240 LINE SMOOTH",
"210 247 OFFCURVE",
"214 250 OFFCURVE",
"220 250 CURVE SMOOTH",
"431 250 LINE SMOOTH",
"466 250 OFFCURVE",
"492 275 OFFCURVE",
"492 309 CURVE SMOOTH",
"492 344 OFFCURVE",
"466 370 OFFCURVE",
"431 370 CURVE SMOOTH",
"220 370 LINE SMOOTH",
"214 370 OFFCURVE",
"210 374 OFFCURVE",
"210 380 CURVE SMOOTH",
"210 570 LINE SMOOTH",
"210 577 OFFCURVE",
"213 580 OFFCURVE",
"220 580 CURVE SMOOTH"
);
}
);
width = 587;
}
);
leftKerningGroup = B;
rightKerningGroup = F;
unicode = 0046;
},
{
glyphname = G;
lastChange = "2013-12-18 08:32:30 +0400";
layers = (
{
anchors = (
{
name = bottom;
position = "{347, 0}";
},
{
name = top;
position = "{347, 700}";
}
);
layerId = "4FD7A5AB-3C0B-49D1-A419-889C157412FC";
name = Bold;
paths = (
{
closed = 1;
nodes = (
"589 371 LINE",
"482 371 LINE SMOOTH",
"447 371 OFFCURVE",
"421 346 OFFCURVE",
"421 311 CURVE SMOOTH",
"421 276 OFFCURVE",
"447 251 OFFCURVE",
"482 251 CURVE SMOOTH",
"521 251 LINE SMOOTH",
"528 251 OFFCURVE",
"531 248 OFFCURVE",
"531 241 CURVE SMOOTH",
"531 159 LINE SMOOTH",
"531 153 OFFCURVE",
"529 150 OFFCURVE",
"524 147 CURVE SMOOTH",
"491 130 OFFCURVE",
"452 120 OFFCURVE",
"410 120 CURVE SMOOTH",
"277 120 OFFCURVE",
"170 224 OFFCURVE",
"170 350 CURVE SMOOTH",
"170 476 OFFCURVE",
"277 580 OFFCURVE",
"410 580 CURVE SMOOTH",
"449 580 OFFCURVE",
"485 572 OFFCURVE",
"517 557 CURVE SMOOTH",
"545 543 OFFCURVE",
"574 546 OFFCURVE",
"593 571 CURVE SMOOTH",
"617 602 OFFCURVE",
"610 641 OFFCURVE",
"577 660 CURVE SMOOTH",
"529 687 OFFCURVE",
"470 700 OFFCURVE",
"410 700 CURVE SMOOTH",
"211 700 OFFCURVE",
"50 543 OFFCURVE",
"50 350 CURVE SMOOTH",
"50 157 OFFCURVE",
"211 0 OFFCURVE",
"410 0 CURVE SMOOTH",
"488 0 OFFCURVE",
"560 25 OFFCURVE",
"620 66 CURVE",
"636 76 OFFCURVE",
"651 93 OFFCURVE",
"651 120 CURVE SMOOTH",
"651 310 LINE SMOOTH",
"651 345 OFFCURVE",
"626 371 OFFCURVE",
"591 371 CURVE SMOOTH"
);
}
);
width = 691;
}
);
leftKerningGroup = C;
rightKerningGroup = G;
unicode = 0047;
},
{
glyphname = H;
lastChange = "2013-12-18 08:32:29 +0400";
layers = (
{
anchors = (
{
name = center;
position = "{370, 350}";
},
{
name = top;
position = "{370, 700}";
}
);
layerId = "4FD7A5AB-3C0B-49D1-A419-889C157412FC";
name = Bold;
paths = (
{
closed = 1;
nodes = (
"529 380 LINE SMOOTH",
"529 374 OFFCURVE",
"525 370 OFFCURVE",
"519 370 CURVE SMOOTH",
"220 370 LINE SMOOTH",
"214 370 OFFCURVE",
"210 373 OFFCURVE",
"210 380 CURVE SMOOTH",
"210 639 LINE SMOOTH",
"210 674 OFFCURVE",
"185 700 OFFCURVE",
"150 700 CURVE SMOOTH",
"115 700 OFFCURVE",
"90 674 OFFCURVE",
"90 639 CURVE SMOOTH",
"90 61 LINE SMOOTH",
"90 26 OFFCURVE",
"115 0 OFFCURVE",
"150 0 CURVE SMOOTH",
"185 0 OFFCURVE",
"210 26 OFFCURVE",
"210 61 CURVE SMOOTH",
"210 240 LINE SMOOTH",
"210 247 OFFCURVE",
"214 250 OFFCURVE",
"220 250 CURVE SMOOTH",
"519 250 LINE SMOOTH",
"526 250 OFFCURVE",
"529 247 OFFCURVE",
"529 240 CURVE SMOOTH",
"529 61 LINE SMOOTH",
"529 26 OFFCURVE",
"554 0 OFFCURVE",
"589 0 CURVE SMOOTH",
"624 0 OFFCURVE",
"649 26 OFFCURVE",
"649 61 CURVE SMOOTH",
"649 639 LINE SMOOTH",
"649 674 OFFCURVE",
"624 700 OFFCURVE",
"589 700 CURVE SMOOTH",
"554 700 OFFCURVE",
"529 674 OFFCURVE",
"529 639 CURVE SMOOTH"
);
}
);
width = 739;
}
);
leftKerningGroup = B;
rightKerningGroup = H;
unicode = 0048;
},
{
glyphname = Hbar;
lastChange = "2013-12-18 08:32:30 +0400";
layers = (
{
anchors = (
{
name = center;
position = "{408, 350}";
},
{
name = top;
position = "{408, 700}";
}
);
layerId = "4FD7A5AB-3C0B-49D1-A419-889C157412FC";
name = Bold;
paths = (
{
closed = 1;
nodes = (
"692 560 LINE SMOOTH",
"689 560 OFFCURVE",
"687 562 OFFCURVE",
"687 565 CURVE SMOOTH",
"687 639 LINE SMOOTH",
"687 674 OFFCURVE",
"662 700 OFFCURVE",
"627 700 CURVE SMOOTH",
"592 700 OFFCURVE",
"567 674 OFFCURVE",
"567 639 CURVE SMOOTH",
"567 565 LINE SMOOTH",
"567 562 OFFCURVE",
"565 560 OFFCURVE",
"562 560 CURVE SMOOTH",
"253 560 LINE SMOOTH",
"250 560 OFFCURVE",
"248 562 OFFCURVE",
"248 565 CURVE SMOOTH",
"248 639 LINE SMOOTH",
"248 674 OFFCURVE",
"223 700 OFFCURVE",
"188 700 CURVE SMOOTH",
"153 700 OFFCURVE",
"128 674 OFFCURVE",
"128 639 CURVE SMOOTH",
"128 565 LINE SMOOTH",
"128 562 OFFCURVE",
"126 560 OFFCURVE",
"123 560 CURVE SMOOTH",
"96 560 LINE SMOOTH",
"66 560 OFFCURVE",
"45 539 OFFCURVE",
"45 511 CURVE SMOOTH",
"45 481 OFFCURVE",
"66 460 OFFCURVE",
"96 460 CURVE SMOOTH",
"123 460 LINE SMOOTH",
"126 460 OFFCURVE",
"128 458 OFFCURVE",
"128 455 CURVE SMOOTH",
"128 61 LINE SMOOTH",
"128 26 OFFCURVE",
"153 0 OFFCURVE",
"188 0 CURVE SMOOTH",
"223 0 OFFCURVE",
"248 26 OFFCURVE",
"248 61 CURVE SMOOTH",
"248 240 LINE SMOOTH",
"248 247 OFFCURVE",
"252 250 OFFCURVE",
"258 250 CURVE SMOOTH",
"557 250 LINE SMOOTH",
"564 250 OFFCURVE",
"567 247 OFFCURVE",
"567 240 CURVE SMOOTH",
"567 61 LINE SMOOTH",
"567 26 OFFCURVE",
"592 0 OFFCURVE",
"627 0 CURVE SMOOTH",
"662 0 OFFCURVE",
"687 26 OFFCURVE",
"687 61 CURVE SMOOTH",
"687 455 LINE SMOOTH",
"687 458 OFFCURVE",
"689 460 OFFCURVE",
"692 460 CURVE SMOOTH",
"719 460 LINE SMOOTH",
"749 460 OFFCURVE",
"770 481 OFFCURVE",
"770 509 CURVE SMOOTH",
"770 539 OFFCURVE",
"749 560 OFFCURVE",
"719 560 CURVE SMOOTH"
);
},
{
closed = 1;
nodes = (
"567 380 LINE SMOOTH",
"567 374 OFFCURVE",
"563 370 OFFCURVE",
"557 370 CURVE SMOOTH",
"258 370 LINE SMOOTH",
"252 370 OFFCURVE",
"248 373 OFFCURVE",
"248 380 CURVE SMOOTH",
"248 455 LINE SMOOTH",
"248 458 OFFCURVE",
"250 460 OFFCURVE",
"253 460 CURVE SMOOTH",
"562 460 LINE SMOOTH",
"565 460 OFFCURVE",
"567 458 OFFCURVE",
"567 455 CURVE SMOOTH"
);
}
);
width = 815;
}
);
unicode = 0126;
},
{
glyphname = I;
lastChange = "2013-12-18 08:32:30 +0400";
layers = (
{
anchors = (
{
name = ogonek;
position = "{273, 10}";
},
{
name = top;
position = "{149, 700}";
}
);
layerId = "4FD7A5AB-3C0B-49D1-A419-889C157412FC";
name = Bold;
paths = (
{
closed = 1;
nodes = (
"210 639 LINE SMOOTH",
"210 674 OFFCURVE",
"185 700 OFFCURVE",
"151 700 CURVE SMOOTH",
"116 700 OFFCURVE",
"90 674 OFFCURVE",
"90 639 CURVE SMOOTH",
"90 61 LINE SMOOTH",
"90 26 OFFCURVE",
"115 0 OFFCURVE",
"149 0 CURVE SMOOTH",
"184 0 OFFCURVE",
"210 26 OFFCURVE",
"210 61 CURVE SMOOTH"
);
}
);
width = 300;
}
);
leftKerningGroup = B;
rightKerningGroup = H;
unicode = 0049;
},
{
glyphname = J;
lastChange = "2013-12-18 08:32:29 +0400";
layers = (
{
anchors = (
{
name = top;
position = "{285, 700}";
}
);
layerId = "4FD7A5AB-3C0B-49D1-A419-889C157412FC";
name = Bold;
paths = (
{
closed = 1;
nodes = (
"88 32 OFFCURVE",
"157 0 OFFCURVE",
"233 0 CURVE SMOOTH",
"361 0 OFFCURVE",
"462 107 OFFCURVE",
"462 229 CURVE SMOOTH",
"462 639 LINE SMOOTH",
"462 674 OFFCURVE",
"437 700 OFFCURVE",
"403 700 CURVE SMOOTH",
"368 700 OFFCURVE",
"342 674 OFFCURVE",
"342 639 CURVE SMOOTH",
"342 229 LINE SMOOTH",
"342 171 OFFCURVE",
"293 120 OFFCURVE",
"233 120 CURVE SMOOTH",
"200 120 OFFCURVE",
"175 129 OFFCURVE",
"149 153 CURVE SMOOTH",
"125 176 OFFCURVE",
"98 191 OFFCURVE",
"66 172 CURVE SMOOTH",
"39 156 OFFCURVE",
"23 123 OFFCURVE",
"47 89 CURVE SMOOTH"
);
}
);
width = 552;
}
);
leftKerningGroup = J;
rightKerningGroup = J;
unicode = 004A;
},
{
glyphname = K;
lastChange = "2013-12-18 08:32:29 +0400";
layers = (
{
anchors = (
{
name = bottom;
position = "{349, 0}";
},
{
name = top;
position = "{349, 700}";
}
);
layerId = "4FD7A5AB-3C0B-49D1-A419-889C157412FC";
name = Bold;
paths = (
{
closed = 1;
nodes = (
"418 367 LINE SMOOTH",
"414 372 OFFCURVE",
"415 377 OFFCURVE",
"419 382 CURVE SMOOTH",
"636 597 LINE SMOOTH",
"661 622 OFFCURVE",
"662 658 OFFCURVE",
"638 682 CURVE SMOOTH",
"613 707 OFFCURVE",
"577 707 OFFCURVE",
"552 682 CURVE SMOOTH",
"222 354 LINE SMOOTH",
"216 348 OFFCURVE",
"210 350 OFFCURVE",
"210 359 CURVE SMOOTH",
"210 639 LINE SMOOTH",
"210 674 OFFCURVE",
"185 700 OFFCURVE",
"151 700 CURVE SMOOTH",
"116 700 OFFCURVE",
"90 674 OFFCURVE",
"90 639 CURVE SMOOTH",
"90 61 LINE SMOOTH",
"90 26 OFFCURVE",
"115 0 OFFCURVE",
"149 0 CURVE SMOOTH",
"184 0 OFFCURVE",
"210 26 OFFCURVE",
"210 61 CURVE SMOOTH",
"210 166 LINE SMOOTH",
"210 172 OFFCURVE",
"211 175 OFFCURVE",
"215 179 CURVE SMOOTH",
"319 282 LINE SMOOTH",
"324 287 OFFCURVE",
"329 287 OFFCURVE",
"334 282 CURVE SMOOTH",
"547 23 LINE SMOOTH",
"569 -4 OFFCURVE",
"605 -8 OFFCURVE",
"631 13 CURVE SMOOTH",
"658 36 OFFCURVE",
"661 72 OFFCURVE",
"639 99 CURVE SMOOTH"
);
}
);
width = 690.392;
}
);
leftKerningGroup = B;
rightKerningGroup = K;
unicode = 004B;
},
{
glyphname = L;
lastChange = "2013-12-18 08:32:29 +0400";
layers = (
{
anchors = (
{
name = bottom;
position = "{274, 0}";
},
{
name = top;
position = "{274, 700}";
}
);
layerId = "4FD7A5AB-3C0B-49D1-A419-889C157412FC";
name = Bold;
paths = (
{
closed = 1;
nodes = (
"220 120 LINE SMOOTH",
"214 120 OFFCURVE",
"210 124 OFFCURVE",
"210 130 CURVE SMOOTH",
"210 639 LINE SMOOTH",
"210 674 OFFCURVE",
"185 700 OFFCURVE",
"151 700 CURVE SMOOTH",
"116 700 OFFCURVE",
"90 674 OFFCURVE",
"90 639 CURVE SMOOTH",
"90 61 LINE SMOOTH",
"90 26 OFFCURVE",
"116 0 OFFCURVE",
"151 0 CURVE SMOOTH",
"476 0 LINE SMOOTH",
"511 0 OFFCURVE",
"537 25 OFFCURVE",
"537 59 CURVE SMOOTH",
"537 94 OFFCURVE",
"511 120 OFFCURVE",
"476 120 CURVE SMOOTH"
);
}
);
width = 552;
}
);
leftKerningGroup = B;
rightKerningGroup = L;
unicode = 004C;
},
{
glyphname = Lslash;
lastChange = "2013-12-18 08:32:30 +0400";
layers = (
{
anchors = (
{
name = bottom;
position = "{332, 0}";
},
{
name = top;
position = "{332, 700}";
}
);
layerId = "4FD7A5AB-3C0B-49D1-A419-889C157412FC";
name = Bold;
paths = (
{
closed = 1;
nodes = (
"278 120 LINE SMOOTH",
"272 120 OFFCURVE",
"268 124 OFFCURVE",
"268 130 CURVE SMOOTH",
"268 341 LINE SMOOTH",
"268 344.008 OFFCURVE",
"269 346 OFFCURVE",
"272 347 CURVE SMOOTH",
"403 405 LINE SMOOTH",
"431 417 OFFCURVE",
"442 445 OFFCURVE",
"430 471 CURVE SMOOTH",
"418 498 OFFCURVE",
"390 509 OFFCURVE",
"363 497 CURVE SMOOTH",
"274 458 LINE SMOOTH",
"270 456 OFFCURVE",
"268 458 OFFCURVE",
"268 461 CURVE SMOOTH",
"268 639 LINE SMOOTH",
"268 674 OFFCURVE",
"243 700 OFFCURVE",
"209 700 CURVE SMOOTH",
"174 700 OFFCURVE",
"148 674 OFFCURVE",
"148 639 CURVE SMOOTH",
"148 406 LINE SMOOTH",
"148 403 OFFCURVE",
"147 401 OFFCURVE",
"144 400 CURVE SMOOTH",
"69 367 LINE SMOOTH",
"41 355 OFFCURVE",
"30 327 OFFCURVE",
"42 301 CURVE SMOOTH",
"54 274 OFFCURVE",
"82 263 OFFCURVE",
"109 275 CURVE SMOOTH",
"142 290 LINE SMOOTH",
"146 291 OFFCURVE",
"148 290 OFFCURVE",
"148 286 CURVE SMOOTH",
"148 61 LINE SMOOTH",
"148 26 OFFCURVE",
"174 0 OFFCURVE",
"209 0 CURVE SMOOTH",
"534 0 LINE SMOOTH",
"569 0 OFFCURVE",
"595 25 OFFCURVE",
"595 59 CURVE SMOOTH",
"595 94 OFFCURVE",
"569 120 OFFCURVE",
"534 120 CURVE SMOOTH"
);
}
);
width = 552;
}
);
unicode = 0141;
},
{
glyphname = M;
lastChange = "2013-12-18 08:32:29 +0400";
layers = (
{
layerId = "4FD7A5AB-3C0B-49D1-A419-889C157412FC";
name = Bold;
paths = (
{
closed = 1;
nodes = (
"451 376 LINE SMOOTH",
"447 371 OFFCURVE",
"441 371 OFFCURVE",
"437 376 CURVE SMOOTH",
"201 674 LINE",
"182 696 OFFCURVE",
"162 706 OFFCURVE",
"137 700 CURVE",
"109 694 OFFCURVE",
"90 670 OFFCURVE",
"90 640 CURVE SMOOTH",
"90 61 LINE SMOOTH",
"90 26 OFFCURVE",
"115 0 OFFCURVE",
"149 0 CURVE SMOOTH",
"184 0 OFFCURVE",
"210 26 OFFCURVE",
"210 61 CURVE SMOOTH",
"210 455 LINE SMOOTH",
"210 465 OFFCURVE",
"217 467 OFFCURVE",
"222 460 CURVE SMOOTH",
"395 232 LINE SMOOTH",
"407 217 OFFCURVE",
"426 205 OFFCURVE",
"444 206 CURVE SMOOTH",
"463 205 OFFCURVE",
"482 217 OFFCURVE",
"494 232 CURVE SMOOTH",
"667 460 LINE SMOOTH",
"672 467 OFFCURVE",
"679 465 OFFCURVE",
"679 455 CURVE SMOOTH",
"679 61 LINE SMOOTH",
"679 26 OFFCURVE",
"705 0 OFFCURVE",
"740 0 CURVE SMOOTH",
"774 0 OFFCURVE",
"799 26 OFFCURVE",
"799 61 CURVE SMOOTH",
"799 640 LINE SMOOTH",
"799 670 OFFCURVE",
"779 694 OFFCURVE",
"752 700 CURVE SMOOTH",
"726 706 OFFCURVE",
"708 696 OFFCURVE",
"688 674 CURVE"
);
}
);
width = 889;
}
);
leftKerningGroup = B;
rightKerningGroup = H;
unicode = 004D;
},
{
glyphname = N;
lastChange = "2013-12-18 08:32:29 +0400";
layers = (
{
anchors = (
{
name = bottom;
position = "{393, 0}";
},
{
name = top;
position = "{393, 700}";
}
);
layerId = "4FD7A5AB-3C0B-49D1-A419-889C157412FC";
name = Bold;
paths = (
{
closed = 1;
nodes = (
"575 236 LINE SMOOTH",
"575 227 OFFCURVE",
"569 225 OFFCURVE",
"563 232 CURVE SMOOTH",
"201 674 LINE",
"197 678 LINE",
"187 692 OFFCURVE",
"170 700 OFFCURVE",
"151 700 CURVE SMOOTH",
"116 700 OFFCURVE",
"90 674 OFFCURVE",
"90 639 CURVE SMOOTH",
"90 61 LINE SMOOTH",
"90 26 OFFCURVE",
"115 0 OFFCURVE",
"149 0 CURVE SMOOTH",
"184 0 OFFCURVE",
"210 26 OFFCURVE",
"210 61 CURVE SMOOTH",
"210 461 LINE SMOOTH",
"210 470 OFFCURVE",
"216 472 OFFCURVE",
"222 465 CURVE SMOOTH",
"582 27 LINE SMOOTH",
"585 24 OFFCURVE",
"588 20 OFFCURVE",
"592 17 CURVE",
"602 7 OFFCURVE",
"617 0 OFFCURVE",
"634 0 CURVE SMOOTH",
"669 0 OFFCURVE",
"695 26 OFFCURVE",
"695 61 CURVE SMOOTH",
"695 639 LINE SMOOTH",
"695 674 OFFCURVE",
"670 700 OFFCURVE",
"636 700 CURVE SMOOTH",
"601 700 OFFCURVE",
"575 674 OFFCURVE",
"575 639 CURVE SMOOTH"
);
}
);
width = 785;
}
);
leftKerningGroup = B;
rightKerningGroup = H;
unicode = 004E;
},
{
glyphname = Eng;
lastChange = "2013-12-18 08:32:29 +0400";
layers = (
{
anchors = (
{
name = bottom;
position = "{393, 0}";
},
{
name = top;
position = "{393, 700}";
}
);
layerId = "4FD7A5AB-3C0B-49D1-A419-889C157412FC";
name = Bold;
paths = (
{
closed = 1;
nodes = (
"601 700 OFFCURVE",
"575 674 OFFCURVE",
"575 639 CURVE SMOOTH",
"575 236 LINE SMOOTH",
"575 227 OFFCURVE",
"569 225 OFFCURVE",
"563 232 CURVE SMOOTH",
"201 674 LINE",
"197 678 LINE",
"187 692 OFFCURVE",
"170 700 OFFCURVE",
"151 700 CURVE SMOOTH",
"116 700 OFFCURVE",
"90 674 OFFCURVE",
"90 639 CURVE SMOOTH",
"90 61 LINE SMOOTH",
"90 26 OFFCURVE",
"115 0 OFFCURVE",
"149 0 CURVE SMOOTH",
"184 0 OFFCURVE",
"210 26 OFFCURVE",
"210 61 CURVE SMOOTH",
"210 461 LINE SMOOTH",
"210 470 OFFCURVE",
"216 472 OFFCURVE",
"222 465 CURVE SMOOTH",
"573 38 LINE SMOOTH",
"574 36 OFFCURVE",
"575 35 OFFCURVE",
"575 32 CURVE SMOOTH",
"575 -19 LINE SMOOTH",
"575 -69 OFFCURVE",
"554 -89 OFFCURVE",
"512 -90 CURVE SMOOTH",
"478 -91 OFFCURVE",
"454 -116 OFFCURVE",
"454 -148 CURVE SMOOTH",
"454 -180 OFFCURVE",
"481 -200 OFFCURVE",
"518 -200 CURVE SMOOTH",
"605 -201 OFFCURVE",
"695 -156 OFFCURVE",
"695 -14 CURVE SMOOTH",
"695 639 LINE SMOOTH",
"695 674 OFFCURVE",
"670 700 OFFCURVE",
"636 700 CURVE SMOOTH"
);
}
);
width = 744;
}
);
unicode = 014A;
},
{
glyphname = O;
lastChange = "2013-12-18 08:32:29 +0400";
layers = (
{
anchors = (
{
name = top;
position = "{377, 700}";
}
);
layerId = "4FD7A5AB-3C0B-49D1-A419-889C157412FC";
name = Bold;
paths = (
{
closed = 1;
nodes = (
"589 222 OFFCURVE",
"492 120 OFFCURVE",
"379 120 CURVE",
"266 120 OFFCURVE",
"170 221 OFFCURVE",
"170 350 CURVE",
"170 479 OFFCURVE",
"266 580 OFFCURVE",
"379 580 CURVE",
"492 580 OFFCURVE",
"589 478 OFFCURVE",
"589 350 CURVE"
);
},
{
closed = 1;
nodes = (
"709 543 OFFCURVE",
"561 700 OFFCURVE",
"379 700 CURVE",
"197 700 OFFCURVE",
"50 543 OFFCURVE",
"50 350 CURVE",
"50 157 OFFCURVE",
"197 0 OFFCURVE",
"379 0 CURVE",
"561 0 OFFCURVE",
"709 157 OFFCURVE",
"709 350 CURVE"
);
}
);
width = 759;
}
);
leftKerningGroup = C;
rightKerningGroup = D;
unicode = 004F;
},
{
glyphname = Oslash;
lastChange = "2013-12-18 08:32:30 +0400";
layers = (
{
anchors = (
{
name = top;
position = "{372, 703}";
}
);
layerId = "4FD7A5AB-3C0B-49D1-A419-889C157412FC";
name = Bold;
paths = (
{
closed = 1;
nodes = (
"689 667 LINE SMOOTH",
"707 690 OFFCURVE",
"705 719 OFFCURVE",
"683 737 CURVE SMOOTH",
"660 756 OFFCURVE",
"630 753 OFFCURVE",
"611 730 CURVE SMOOTH",
"554 659 LINE SMOOTH",
"552 657 OFFCURVE",
"549 656 OFFCURVE",
"547 658 CURVE SMOOTH",
"496 691 OFFCURVE",
"437 710 OFFCURVE",
"374 710 CURVE SMOOTH",
"192 710 OFFCURVE",
"45 553 OFFCURVE",
"45 360 CURVE SMOOTH",
"45 274 OFFCURVE",
"74 196 OFFCURVE",
"122 135 CURVE SMOOTH",
"124 132 OFFCURVE",
"124 130 OFFCURVE",
"122 128 CURVE SMOOTH",
"61 52 LINE SMOOTH",
"43 29 OFFCURVE",
"45 0 OFFCURVE",
"67 -18 CURVE SMOOTH",
"90 -37 OFFCURVE",
"120 -34 OFFCURVE",
"139 -11 CURVE SMOOTH",
"196 60 LINE SMOOTH",
"198 62 OFFCURVE",
"201 62 OFFCURVE",
"203 61 CURVE SMOOTH",
"253 29 OFFCURVE",
"311 10 OFFCURVE",
"374 10 CURVE SMOOTH",
"556 10 OFFCURVE",
"704 167 OFFCURVE",
"704 360 CURVE SMOOTH",
"704 445 OFFCURVE",
"675 523 OFFCURVE",
"627 584 CURVE SMOOTH",
"625 586 OFFCURVE",
"625 589 OFFCURVE",
"627 591 CURVE SMOOTH"
);
},
{
closed = 1;
nodes = (
"165 489 OFFCURVE",
"261 590 OFFCURVE",
"374 590 CURVE SMOOTH",
"408 590 OFFCURVE",
"441 581 OFFCURVE",
"470 564 CURVE SMOOTH",
"473 563 OFFCURVE",
"473 560 OFFCURVE",
"471 557 CURVE SMOOTH",
"207 232 LINE SMOOTH",
"205 229 OFFCURVE",
"202 229 OFFCURVE",
"200 233 CURVE SMOOTH",
"178 269 OFFCURVE",
"165 312 OFFCURVE",
"165 360 CURVE SMOOTH"
);
},
{
closed = 1;
nodes = (
"341 130 OFFCURVE",
"309 139 OFFCURVE",
"280 155 CURVE SMOOTH",
"277 156 OFFCURVE",
"277 159 OFFCURVE",
"279 162 CURVE SMOOTH",
"542 486 LINE SMOOTH",
"545 489 OFFCURVE",
"547 489 OFFCURVE",
"549 486 CURVE SMOOTH",
"571 450 OFFCURVE",
"584 407 OFFCURVE",
"584 360 CURVE SMOOTH",
"584 232 OFFCURVE",
"487 130 OFFCURVE",
"374 130 CURVE SMOOTH"
);
}
);
width = 749;
}
);
unicode = 00D8;
},
{
glyphname = OE;
lastChange = "2013-12-18 08:32:30 +0400";
layers = (
{
anchors = (
{
name = bottom;
position = "{694, 0}";
},
{
name = center;
position = "{349, 350}";
},
{
name = ogonek;
position = "{928, 10}";
},
{
name = top;
position = "{349, 700}";
}
);
layerId = "4FD7A5AB-3C0B-49D1-A419-889C157412FC";
name = Bold;
paths = (
{
closed = 1;
nodes = (
"620 120 LINE SMOOTH",
"614 120 OFFCURVE",
"610 124 OFFCURVE",
"610 130 CURVE SMOOTH",
"610 240 LINE SMOOTH",
"610 247 OFFCURVE",
"614 250 OFFCURVE",
"620 250 CURVE SMOOTH",
"831 250 LINE SMOOTH",
"866 250 OFFCURVE",
"892 275 OFFCURVE",
"892 309 CURVE SMOOTH",
"892 344 OFFCURVE",
"866 370 OFFCURVE",
"831 370 CURVE SMOOTH",
"620 370 LINE SMOOTH",
"614 370 OFFCURVE",
"610 374 OFFCURVE",
"610 380 CURVE SMOOTH",
"610 570 LINE SMOOTH",
"610 577 OFFCURVE",
"613 580 OFFCURVE",
"620 580 CURVE SMOOTH",
"876 580 LINE SMOOTH",
"911 580 OFFCURVE",
"937 605 OFFCURVE",
"937 639 CURVE SMOOTH",
"937 674 OFFCURVE",
"911 700 OFFCURVE",
"876 700 CURVE SMOOTH",
"551 700 LINE SMOOTH",
"551 700 OFFCURVE",
"550 700 OFFCURVE",
"550 700 CURVE SMOOTH",
"549 700 LINE",
"350 700 LINE SMOOTH",
"157 700 OFFCURVE",
"50 543 OFFCURVE",
"50 350 CURVE SMOOTH",
"50 156 OFFCURVE",
"157 0 OFFCURVE",
"350 0 CURVE SMOOTH",
"549 0 LINE SMOOTH",
"549 0 OFFCURVE",
"550 0 OFFCURVE",
"550 0 CURVE SMOOTH",
"551 0 LINE",
"876 0 LINE SMOOTH",
"911 0 OFFCURVE",
"937 25 OFFCURVE",
"937 59 CURVE SMOOTH",
"937 94 OFFCURVE",
"911 120 OFFCURVE",
"876 120 CURVE SMOOTH"
);
},
{
closed = 1;
nodes = (
"350 120 LINE SMOOTH",
"224 120 OFFCURVE",
"170 223 OFFCURVE",
"170 350 CURVE SMOOTH",
"170 476 OFFCURVE",
"224 580 OFFCURVE",
"350 580 CURVE SMOOTH",
"480 580 LINE SMOOTH",
"486 580 OFFCURVE",
"490 577 OFFCURVE",
"490 570 CURVE SMOOTH",
"490 130 LINE SMOOTH",
"490 124 OFFCURVE",
"486 120 OFFCURVE",
"480 120 CURVE SMOOTH"
);
}
);
width = 987;
}
);
leftMetricsKey = O;
rightMetricsKey = E;
unicode = 0152;
},
{
glyphname = P;
lastChange = "2013-12-18 08:32:29 +0400";
layers = (
{
layerId = "4FD7A5AB-3C0B-49D1-A419-889C157412FC";
name = Bold;
paths = (
{
closed = 1;
nodes = (
"151 700 LINE SMOOTH",
"116 700 OFFCURVE",
"90 674 OFFCURVE",
"90 639 CURVE SMOOTH",
"90 61 LINE SMOOTH",
"90 26 OFFCURVE",
"115 0 OFFCURVE",
"149 0 CURVE SMOOTH",
"184 0 OFFCURVE",
"210 26 OFFCURVE",
"210 61 CURVE SMOOTH",
"210 240 LINE SMOOTH",
"210 247 OFFCURVE",
"214 250 OFFCURVE",
"220 250 CURVE SMOOTH",
"379 250 LINE SMOOTH",
"483 250 OFFCURVE",
"578 351 OFFCURVE",
"578 475 CURVE SMOOTH",
"578 600 OFFCURVE",
"483 700 OFFCURVE",
"379 700 CURVE SMOOTH"
);
},
{
closed = 1;
nodes = (
"220 370 LINE SMOOTH",
"214 370 OFFCURVE",
"210 374 OFFCURVE",
"210 380 CURVE SMOOTH",
"210 570 LINE SMOOTH",
"210 577 OFFCURVE",
"214 580 OFFCURVE",
"220 580 CURVE SMOOTH",
"379 580 LINE SMOOTH",
"417 580 OFFCURVE",
"458 533 OFFCURVE",
"458 475 CURVE SMOOTH",
"458 418 OFFCURVE",
"417 370 OFFCURVE",
"379 370 CURVE SMOOTH"
);
}
);
width = 613;
}
);
leftKerningGroup = B;
rightKerningGroup = P;
unicode = 0050;
},
{
glyphname = Thorn;
lastChange = "2013-12-18 08:32:29 +0400";
layers = (
{
layerId = "4FD7A5AB-3C0B-49D1-A419-889C157412FC";
name = Bold;
paths = (
{
closed = 1;
nodes = (
"539 576 OFFCURVE",
"388 589 OFFCURVE",
"210 590 CURVE",
"210 679 LINE SMOOTH",
"210 714 OFFCURVE",
"186 740 OFFCURVE",
"151 740 CURVE SMOOTH",
"116 740 OFFCURVE",
"90 714 OFFCURVE",
"90 679 CURVE SMOOTH",
"90 61 LINE SMOOTH",
"90 26 OFFCURVE",
"114 0 OFFCURVE",
"149 0 CURVE SMOOTH",
"184 0 OFFCURVE",
"210 26 OFFCURVE",
"210 61 CURVE SMOOTH",
"210 152 LINE",
"380 153 OFFCURVE",
"539 166 OFFCURVE",
"539 371 CURVE SMOOTH"
);
},
{
closed = 1;
nodes = (
"210 470 LINE",
"348 471 OFFCURVE",
"419 469 OFFCURVE",
"419 371 CURVE SMOOTH",
"419 272 OFFCURVE",
"348 271 OFFCURVE",
"210 272 CURVE"
);
}
);
width = 574;
}
);
unicode = 00DE;
},
{
glyphname = Q;
lastChange = "2013-12-18 08:32:29 +0400";
layers = (
{
layerId = "4FD7A5AB-3C0B-49D1-A419-889C157412FC";
name = Bold;
paths = (
{
closed = 1;
nodes = (
"552 52 LINE SMOOTH",
"646 114 OFFCURVE",
"709 224 OFFCURVE",
"709 350 CURVE SMOOTH",
"709 543 OFFCURVE",
"561 700 OFFCURVE",
"379 700 CURVE SMOOTH",
"197 700 OFFCURVE",
"50 543 OFFCURVE",
"50 350 CURVE SMOOTH",
"50 203 OFFCURVE",
"135 77 OFFCURVE",
"256 25 CURVE SMOOTH",
"264 22 OFFCURVE",
"264 16 OFFCURVE",
"257 12 CURVE SMOOTH",
"204 -21 LINE",
"195 -26 LINE",
"171 -44 OFFCURVE",
"164 -77 OFFCURVE",
"179 -105 CURVE SMOOTH",
"190 -125 OFFCURVE",
"208 -135 OFFCURVE",
"229 -135 CURVE",
"238 -135 LINE",
"244 -134 OFFCURVE",
"249 -133 OFFCURVE",
"255 -131 CURVE SMOOTH",
"311 -113 OFFCURVE",
"359 -96 OFFCURVE",
"413 -131 CURVE SMOOTH",
"470 -168 OFFCURVE",
"522 -191 OFFCURVE",
"595 -191 CURVE SMOOTH",
"669 -191 OFFCURVE",
"757 -145 OFFCURVE",
"803 -111 CURVE SMOOTH",
"832 -90 OFFCURVE",
"837 -52 OFFCURVE",
"813 -25 CURVE SMOOTH",
"790 1 OFFCURVE",
"763 2 OFFCURVE",
"732 -18 CURVE SMOOTH",
"699 -40 OFFCURVE",
"661 -71 OFFCURVE",
"605 -71 CURVE SMOOTH",
"546 -71 OFFCURVE",
"513 -48 OFFCURVE",
"460 -21 CURVE SMOOTH",
"451 -16 OFFCURVE",
"447 -12 OFFCURVE",
"460 -4 CURVE SMOOTH"
);
},
{
closed = 1;
nodes = (
"472 144 LINE",
"444 129 OFFCURVE",
"412 120 OFFCURVE",
"379 120 CURVE SMOOTH",
"266 120 OFFCURVE",
"170 221 OFFCURVE",
"170 350 CURVE SMOOTH",
"170 479 OFFCURVE",
"266 580 OFFCURVE",
"379 580 CURVE SMOOTH",
"492 580 OFFCURVE",
"589 478 OFFCURVE",
"589 350 CURVE SMOOTH",
"589 268 OFFCURVE",
"549 196 OFFCURVE",
"490 155 CURVE"
);
}
);
width = 778.016;
}
);
leftKerningGroup = C;
rightKerningGroup = D;
unicode = 0051;
},
{
glyphname = R;
lastChange = "2013-12-18 08:32:29 +0400";
layers = (
{
anchors = (
{
name = bottom;
position = "{325, 0}";
},
{
name = top;
position = "{325, 700}";
}
);
layerId = "4FD7A5AB-3C0B-49D1-A419-889C157412FC";
name = Bold;
paths = (
{
closed = 1;
nodes = (
"151 700 LINE SMOOTH",
"116 700 OFFCURVE",
"90 674 OFFCURVE",
"90 639 CURVE SMOOTH",
"90 61 LINE SMOOTH",
"90 26 OFFCURVE",
"115 0 OFFCURVE",
"149 0 CURVE SMOOTH",
"184 0 OFFCURVE",
"210 26 OFFCURVE",
"210 61 CURVE SMOOTH",
"210 265 LINE SMOOTH",
"210 272 OFFCURVE",
"214 275 OFFCURVE",
"220 275 CURVE SMOOTH",
"342 275 LINE SMOOTH",
"402 275 OFFCURVE",
"433 239 OFFCURVE",
"433 187 CURVE SMOOTH",
"433 77 OFFCURVE",
"470 31 OFFCURVE",
"505 10 CURVE SMOOTH",
"527 -3 OFFCURVE",
"573 -9 OFFCURVE",
"595 17 CURVE SMOOTH",
"617 42 OFFCURVE",
"608 81 OFFCURVE",
"579 98 CURVE SMOOTH",
"553 113 OFFCURVE",
"556 148 OFFCURVE",
"550 204 CURVE SMOOTH",
"545 247 OFFCURVE",
"534 281 OFFCURVE",
"486 316 CURVE SMOOTH",
"480 320 OFFCURVE",
"480 326 OFFCURVE",
"486 330 CURVE SMOOTH",
"539 362 OFFCURVE",
"578 417 OFFCURVE",
"578 485 CURVE SMOOTH",
"578 610 OFFCURVE",
"483 700 OFFCURVE",
"379 700 CURVE SMOOTH"
);
},
{
closed = 1;
nodes = (
"220 384 LINE SMOOTH",
"214 384 OFFCURVE",
"210 388 OFFCURVE",
"210 394 CURVE SMOOTH",
"210 570 LINE SMOOTH",
"210 577 OFFCURVE",
"214 580 OFFCURVE",
"220 580 CURVE SMOOTH",
"379 580 LINE SMOOTH",
"417 580 OFFCURVE",
"458 540 OFFCURVE",
"458 482 CURVE SMOOTH",
"458 425 OFFCURVE",
"417 384 OFFCURVE",
"379 384 CURVE SMOOTH"
);
}
);
width = 647.206;
}
);
leftKerningGroup = B;
rightKerningGroup = R;
unicode = 0052;
},
{
glyphname = S;
lastChange = "2013-12-18 08:32:30 +0400";
layers = (
{
anchors = (
{
name = bottom;
position = "{319, 0}";
},
{
name = top;
position = "{319, 700}";
}
);
layerId = "4FD7A5AB-3C0B-49D1-A419-889C157412FC";
name = Bold;
paths = (
{
closed = 1;
nodes = (
"141 16 OFFCURVE",
"222 -7 OFFCURVE",
"315 -7 CURVE SMOOTH",
"450 -7 OFFCURVE",
"582 66 OFFCURVE",
"582 193 CURVE SMOOTH",
"582 285 OFFCURVE",
"549 358 OFFCURVE",
"360 410 CURVE SMOOTH",
"251 440 OFFCURVE",
"166 464 OFFCURVE",
"166 523 CURVE SMOOTH",
"166 563 OFFCURVE",
"207 595 OFFCURVE",
"296 595 CURVE SMOOTH",
"366 595 OFFCURVE",
"417 562 OFFCURVE",
"452 534 CURVE SMOOTH",
"474 517 OFFCURVE",
"505 525 OFFCURVE",
"521 545 CURVE SMOOTH",
"546 576 OFFCURVE",
"537 612 OFFCURVE",
"507 636 CURVE SMOOTH",
"458 676 OFFCURVE",
"387 710 OFFCURVE",
"296 710 CURVE SMOOTH",
"153 710 OFFCURVE",
"46 632 OFFCURVE",
"46 514 CURVE SMOOTH",
"46 367 OFFCURVE",
"205 337 OFFCURVE",
"329 303 CURVE SMOOTH",
"405 282 OFFCURVE",
"460 264 OFFCURVE",
"460 193 CURVE SMOOTH",
"460 145 OFFCURVE",
"398 108 OFFCURVE",
"315 108 CURVE SMOOTH",
"242 108 OFFCURVE",
"188 130 OFFCURVE",
"137 173 CURVE SMOOTH",
"114 192 OFFCURVE",
"81 189 OFFCURVE",
"61 166 CURVE SMOOTH",
"35 137 OFFCURVE",
"42 100 OFFCURVE",
"72 74 CURVE SMOOTH"
);
}
);
width = 627;
}
);
leftKerningGroup = S;
rightKerningGroup = S;
unicode = 0053;
},
{
glyphname = T;
lastChange = "2013-12-18 08:32:29 +0400";
layers = (
{
anchors = (
{
name = bottom;
position = "{304, 0}";
},
{
name = center;
position = "{304, 350}";
},
{
name = top;
position = "{304, 700}";
}
);
layerId = "4FD7A5AB-3C0B-49D1-A419-889C157412FC";
name = Bold;
paths = (
{
closed = 1;
nodes = (
"576 675 OFFCURVE",
"550 700 OFFCURVE",
"515 700 CURVE SMOOTH",
"91 700 LINE SMOOTH",
"56 700 OFFCURVE",
"30 675 OFFCURVE",
"30 641 CURVE SMOOTH",
"30 606 OFFCURVE",
"56 580 OFFCURVE",
"91 580 CURVE SMOOTH",
"238 580 LINE SMOOTH",
"241 580 OFFCURVE",
"243 578 OFFCURVE",
"243 575 CURVE SMOOTH",
"243 61 LINE SMOOTH",
"243 26 OFFCURVE",
"268 0 OFFCURVE",
"302 0 CURVE SMOOTH",
"337 0 OFFCURVE",
"363 26 OFFCURVE",
"363 61 CURVE SMOOTH",
"363 575 LINE SMOOTH",
"363 578 OFFCURVE",
"365 580 OFFCURVE",
"368 580 CURVE SMOOTH",
"515 580 LINE SMOOTH",
"550 580 OFFCURVE",
"576 605 OFFCURVE",
"576 640 CURVE SMOOTH"
);
}
);
width = 606;
}
);
leftKerningGroup = T;
rightKerningGroup = T;
unicode = 0054;
},
{
glyphname = U;
lastChange = "2013-12-18 08:32:29 +0400";
layers = (
{
anchors = (
{
name = ogonek;
position = "{641, 10}";
},
{
name = top;
position = "{357, 700}";
}
);
layerId = "4FD7A5AB-3C0B-49D1-A419-889C157412FC";
name = Bold;
paths = (
{
closed = 1;
nodes = (
"540 701 OFFCURVE",
"515 675 OFFCURVE",
"515 640 CURVE SMOOTH",
"515 278 LINE SMOOTH",
"515 191 OFFCURVE",
"444 120 OFFCURVE",
"358 120 CURVE SMOOTH",
"271 120 OFFCURVE",
"200 191 OFFCURVE",
"200 278 CURVE SMOOTH",
"200 640 LINE SMOOTH",
"200 675 OFFCURVE",
"175 701 OFFCURVE",
"141 701 CURVE SMOOTH",
"106 701 OFFCURVE",
"80 675 OFFCURVE",
"80 640 CURVE SMOOTH",
"80 278 LINE SMOOTH",
"80 124 OFFCURVE",
"204 0 OFFCURVE",
"358 0 CURVE SMOOTH",
"511 0 OFFCURVE",
"635 124 OFFCURVE",
"635 278 CURVE SMOOTH",
"635 640 LINE SMOOTH",
"635 675 OFFCURVE",
"610 701 OFFCURVE",
"575 701 CURVE SMOOTH"
);
}
);
width = 715;
}
);
leftKerningGroup = U;
rightKerningGroup = U;
unicode = 0055;
},
{
glyphname = V;
lastChange = "2013-12-18 08:32:30 +0400";
layers = (
{
layerId = "4FD7A5AB-3C0B-49D1-A419-889C157412FC";
name = Bold;
paths = (
{
closed = 1;
nodes = (
"338 215 LINE",
"136 664 LINE SMOOTH",
"121 697 OFFCURVE",
"89 711 OFFCURVE",
"58 698 CURVE SMOOTH",
"25 684 OFFCURVE",
"11 650 OFFCURVE",
"25 618 CURVE SMOOTH",
"282 38 LINE SMOOTH",
"293 14 OFFCURVE",
"314 1 OFFCURVE",
"336 0 CURVE SMOOTH",
"359 0 OFFCURVE",
"383 12 OFFCURVE",
"395 39 CURVE SMOOTH",
"652 617 LINE SMOOTH",
"667 650 OFFCURVE",
"653 684 OFFCURVE",
"621 697 CURVE SMOOTH",
"589 711 OFFCURVE",
"556 697 OFFCURVE",
"541 664 CURVE SMOOTH"
);
}
);
width = 677.942;
}
);
leftKerningGroup = V;
rightKerningGroup = V;
unicode = 0056;
},
{
glyphname = W;
lastChange = "2013-12-18 08:32:29 +0400";
layers = (
{
anchors = (
{
name = top;
position = "{486, 700}";
}
);
layerId = "4FD7A5AB-3C0B-49D1-A419-889C157412FC";
name = Bold;
paths = (
{
closed = 1;
nodes = (
"672 232 LINE SMOOTH",
"669 224 OFFCURVE",
"662 223 OFFCURVE",
"659 232 CURVE SMOOTH",
"533 524 LINE SMOOTH",
"523 548 OFFCURVE",
"502 563 OFFCURVE",
"477 562 CURVE",
"451 563 OFFCURVE",
"430 548 OFFCURVE",
"420 524 CURVE SMOOTH",
"294 232 LINE SMOOTH",
"291 223 OFFCURVE",
"284 224 OFFCURVE",
"281 232 CURVE SMOOTH",
"135 664 LINE SMOOTH",
"124 697 OFFCURVE",
"88 711 OFFCURVE",
"57 698 CURVE SMOOTH",
"24 684 OFFCURVE",
"13 650 OFFCURVE",
"24 618 CURVE SMOOTH",
"221 38 LINE SMOOTH",
"229 14 OFFCURVE",
"253 1 OFFCURVE",
"275 0 CURVE",
"298 0 OFFCURVE",
"322 13 OFFCURVE",
"334 39 CURVE SMOOTH",
"470 337 LINE SMOOTH",
"474 345 OFFCURVE",
"480 345 OFFCURVE",
"484 337 CURVE SMOOTH",
"619 39 LINE SMOOTH",
"631 13 OFFCURVE",
"655 0 OFFCURVE",
"678 0 CURVE",
"700 1 OFFCURVE",
"724 14 OFFCURVE",
"732 38 CURVE SMOOTH",
"929 618 LINE SMOOTH",
"940 650 OFFCURVE",
"929 684 OFFCURVE",
"896 698 CURVE SMOOTH",
"865 711 OFFCURVE",
"829 697 OFFCURVE",
"818 664 CURVE SMOOTH"
);
}
);
width = 952.898;
}
);
leftKerningGroup = W;
rightKerningGroup = W;
unicode = 0057;
},
{
glyphname = X;
lastChange = "2013-12-18 08:32:29 +0400";
layers = (
{
layerId = "4FD7A5AB-3C0B-49D1-A419-889C157412FC";
name = Bold;
paths = (
{
closed = 1;
nodes = (
"570 606 LINE SMOOTH",
"591 634 OFFCURVE",
"586 670 OFFCURVE",
"558 690 CURVE SMOOTH",
"530 711 OFFCURVE",
"494 705 OFFCURVE",
"473 677 CURVE SMOOTH",
"309 459 LINE SMOOTH",
"305 454 OFFCURVE",
"299 454 OFFCURVE",
"295 459 CURVE SMOOTH",
"130 677 LINE SMOOTH",
"109 705 OFFCURVE",
"74 711 OFFCURVE",
"46 691 CURVE SMOOTH",
"18 670 OFFCURVE",
"12 634 OFFCURVE",
"33 606 CURVE SMOOTH",
"221 358 LINE SMOOTH",
"224 353 OFFCURVE",
"224 349 OFFCURVE",
"221 344 CURVE SMOOTH",
"33 95 LINE SMOOTH",
"12 67 OFFCURVE",
"17 31 OFFCURVE",
"45 11 CURVE SMOOTH",
"73 -10 OFFCURVE",
"109 -4 OFFCURVE",
"130 24 CURVE SMOOTH",
"295 242 LINE SMOOTH",
"299 247 OFFCURVE",
"305 247 OFFCURVE",
"309 242 CURVE SMOOTH",
"473 24 LINE SMOOTH",
"494 -4 OFFCURVE",
"529 -10 OFFCURVE",
"557 10 CURVE SMOOTH",
"585 31 OFFCURVE",
"591 67 OFFCURVE",
"570 95 CURVE SMOOTH",
"382 344 LINE SMOOTH",
"379 349 OFFCURVE",
"379 353 OFFCURVE",
"382 358 CURVE SMOOTH"
);
}
);
width = 602.791;
}
);
leftKerningGroup = X;
rightKerningGroup = X;
unicode = 0058;
},
{
glyphname = Y;
lastChange = "2013-12-18 08:32:29 +0400";
layers = (
{
anchors = (
{
name = top;
position = "{302, 700}";
}
);
layerId = "4FD7A5AB-3C0B-49D1-A419-889C157412FC";
name = Bold;
paths = (
{
closed = 1;
nodes = (
"311 449 LINE SMOOTH",
"307 443 OFFCURVE",
"301 443 OFFCURVE",
"297 449 CURVE SMOOTH",
"130 677 LINE SMOOTH",
"109 705 OFFCURVE",
"74 711 OFFCURVE",
"46 691 CURVE SMOOTH",
"17 671 OFFCURVE",
"12 635 OFFCURVE",
"33 606 CURVE SMOOTH",
"240 324 LINE SMOOTH",
"243 320 OFFCURVE",
"244 316 OFFCURVE",
"244 311 CURVE SMOOTH",
"244 61 LINE SMOOTH",
"244 26 OFFCURVE",
"269 0 OFFCURVE",
"304 0 CURVE SMOOTH",
"339 0 OFFCURVE",
"364 26 OFFCURVE",
"364 61 CURVE SMOOTH",
"364 312 LINE SMOOTH",
"364 316 OFFCURVE",
"365 320 OFFCURVE",
"368 324 CURVE SMOOTH",
"574 607 LINE SMOOTH",
"595 635 OFFCURVE",
"590 671 OFFCURVE",
"562 691 CURVE SMOOTH",
"533 711 OFFCURVE",
"498 705 OFFCURVE",
"477 677 CURVE SMOOTH"
);
}
);
width = 607.019;
}
);
leftKerningGroup = Y;
rightKerningGroup = Y;
unicode = 0059;
},
{
glyphname = Z;
lastChange = "2013-12-18 08:32:30 +0400";
layers = (
{
anchors = (
{
name = top;
position = "{331, 700}";
}
);
layerId = "4FD7A5AB-3C0B-49D1-A419-889C157412FC";
name = Bold;
paths = (
{
closed = 1;
nodes = (
"144 700 LINE SMOOTH",
"109 700 OFFCURVE",
"83 675 OFFCURVE",
"83 641 CURVE SMOOTH",
"83 606 OFFCURVE",
"109 580 OFFCURVE",
"144 580 CURVE SMOOTH",
"423 580 LINE SMOOTH",
"432 580 OFFCURVE",
"435 574 OFFCURVE",
"429 568 CURVE SMOOTH",
"54 97 LINE SMOOTH",
"32 69 OFFCURVE",
"37 33 OFFCURVE",
"65 13 CURVE",
"73 8 LINE",
"82 3 OFFCURVE",
"92 0 OFFCURVE",
"104 0 CURVE SMOOTH",
"543 0 LINE SMOOTH",
"578 0 OFFCURVE",
"604 25 OFFCURVE",
"604 59 CURVE SMOOTH",
"604 94 OFFCURVE",
"578 120 OFFCURVE",
"543 120 CURVE SMOOTH",
"235 120 LINE SMOOTH",
"226 120 OFFCURVE",
"223 126 OFFCURVE",
"229 132 CURVE SMOOTH",
"604 603 LINE SMOOTH",
"626 631 OFFCURVE",
"621 667 OFFCURVE",
"593 687 CURVE SMOOTH",
"584 694 OFFCURVE",
"574 698 OFFCURVE",
"564 699 CURVE",
"560 700 OFFCURVE",
"557 700 OFFCURVE",
"553 700 CURVE SMOOTH"
);
}
);
width = 657.492;
}
);
leftKerningGroup = Z;
rightKerningGroup = Z;
unicode = 005A;
},
{
glyphname = A.ss01;
lastChange = "2013-12-18 08:32:29 +0400";
layers = (
{
layerId = "4FD7A5AB-3C0B-49D1-A419-889C157412FC";
name = Bold;
paths = (
{
closed = 1;
nodes = (
"633 700 OFFCURVE",
"608 674 OFFCURVE",
"608 639 CURVE SMOOTH",
"608 628 LINE SMOOTH",
"608 624 OFFCURVE",
"605 623 OFFCURVE",
"602 626 CURVE SMOOTH",
"548 676 OFFCURVE",
"469 710 OFFCURVE",
"389 710 CURVE SMOOTH",
"202 710 OFFCURVE",
"50 549 OFFCURVE",
"50 350 CURVE SMOOTH",
"50 151 OFFCURVE",
"202 -10 OFFCURVE",
"389 -10 CURVE SMOOTH",
"469 -10 OFFCURVE",
"548 24 OFFCURVE",
"602 74 CURVE SMOOTH",
"605 77 OFFCURVE",
"608 76 OFFCURVE",
"608 72 CURVE SMOOTH",
"608 61 LINE SMOOTH",
"608 26 OFFCURVE",
"633 0 OFFCURVE",
"667 0 CURVE SMOOTH",
"702 0 OFFCURVE",
"728 26 OFFCURVE",
"728 61 CURVE SMOOTH",
"728 639 LINE SMOOTH",
"728 674 OFFCURVE",
"703 700 OFFCURVE",
"668 700 CURVE SMOOTH"
);
},
{
closed = 1;
nodes = (
"271 110 OFFCURVE",
"170 216 OFFCURVE",
"170 350 CURVE SMOOTH",
"170 484 OFFCURVE",
"271 590 OFFCURVE",
"399 590 CURVE SMOOTH",
"527 590 OFFCURVE",
"628 484 OFFCURVE",
"628 350 CURVE SMOOTH",
"628 216 OFFCURVE",
"527 110 OFFCURVE",
"399 110 CURVE SMOOTH"
);
}
);
width = 818;
}
);
},
{
glyphname = E.ss01;
lastChange = "2013-12-18 08:32:30 +0400";
layers = (
{
layerId = "4FD7A5AB-3C0B-49D1-A419-889C157412FC";
name = Bold;
paths = (
{
closed = 1;
nodes = (
"746 370 CURVE SMOOTH",
"746 582 OFFCURVE",
"574 710 OFFCURVE",
"398 710 CURVE SMOOTH",
"206 710 OFFCURVE",
"50 549 OFFCURVE",
"50 350 CURVE SMOOTH",
"50 151 OFFCURVE",
"209 -10 OFFCURVE",
"401 -10 CURVE SMOOTH",
"509 -10 OFFCURVE",
"590 12 OFFCURVE",
"667 79 CURVE SMOOTH",
"696 104 OFFCURVE",
"693 144 OFFCURVE",
"666 167 CURVE SMOOTH",
"642 188 OFFCURVE",
"610 188 OFFCURVE",
"584 168 CURVE SMOOTH",
"527 123 OFFCURVE",
"465 110 OFFCURVE",
"401 110 CURVE SMOOTH",
"294 110 OFFCURVE",
"199 189 OFFCURVE",
"176 296 CURVE",
"671 296 LINE SMOOTH",
"709 296 OFFCURVE",
"746 321 OFFCURVE"
);
},
{
closed = 1;
nodes = (
"179 416 LINE",
"206 517 OFFCURVE",
"295 590 OFFCURVE",
"398 590 CURVE SMOOTH",
"502 590 OFFCURVE",
"591 517 OFFCURVE",
"617 416 CURVE"
);
}
);
width = 806;
}
);
},
{
glyphname = M.ss01;
lastChange = "2013-12-18 08:32:29 +0400";
layers = (
{
layerId = "4FD7A5AB-3C0B-49D1-A419-889C157412FC";
name = Bold;
paths = (
{
closed = 1;
nodes = (
"210 639 LINE",
"210 674 OFFCURVE",
"185 700 OFFCURVE",
"150 700 CURVE SMOOTH",
"115 700 OFFCURVE",
"90 674 OFFCURVE",
"90 639 CURVE SMOOTH",
"90 61 LINE SMOOTH",
"90 26 OFFCURVE",
"115 0 OFFCURVE",
"150 0 CURVE SMOOTH",
"185 0 OFFCURVE",
"210 26 OFFCURVE",
"210 61 CURVE SMOOTH",
"210 422 LINE SMOOTH",
"210 509 OFFCURVE",
"276 590 OFFCURVE",
"382 590 CURVE SMOOTH",
"479 590 OFFCURVE",
"500 509 OFFCURVE",
"500 422 CURVE SMOOTH",
"500 61 LINE",
"500.018 59.366 LINE SMOOTH",
"500.783 25.1938 OFFCURVE",
"525.531 0 OFFCURVE",
"559 0 CURVE SMOOTH",
"595 0 OFFCURVE",
"620 26 OFFCURVE",
"620 61 CURVE SMOOTH",
"620 422 LINE SMOOTH",
"620 509 OFFCURVE",
"686 590 OFFCURVE",
"792 590 CURVE SMOOTH",
"889 590 OFFCURVE",
"910 509 OFFCURVE",
"910 422 CURVE SMOOTH",
"910 61 LINE SMOOTH",
"910 26 OFFCURVE",
"935 0 OFFCURVE",
"969 0 CURVE SMOOTH",
"1004 0 OFFCURVE",
"1030 26 OFFCURVE",
"1030 61 CURVE SMOOTH",
"1030 422 LINE SMOOTH",
"1030 586 OFFCURVE",
"956 710 OFFCURVE",
"792 710 CURVE SMOOTH",
"729 710 OFFCURVE",
"647 675 OFFCURVE",
"586 601 CURVE SMOOTH",
"584 598 OFFCURVE",
"581 598 OFFCURVE",
"579 602 CURVE SMOOTH",
"542 668 OFFCURVE",
"477 710 OFFCURVE",
"382 710 CURVE SMOOTH",
"317 710 OFFCURVE",
"263 682 OFFCURVE",
"216 630 CURVE",
"213 627 OFFCURVE",
"210 628 OFFCURVE",
"210 632 CURVE"
);
}
);
width = 1110;
}
);
},
{
glyphname = N.ss01;
lastChange = "2013-12-18 08:32:29 +0400";
layers = (
{
layerId = "4FD7A5AB-3C0B-49D1-A419-889C157412FC";
name = Bold;
paths = (
{
closed = 1;
nodes = (
"210 422 LINE SMOOTH",
"210 509 OFFCURVE",
"281 590 OFFCURVE",
"387 590 CURVE SMOOTH",
"484 590 OFFCURVE",
"525 509 OFFCURVE",
"525 422 CURVE SMOOTH",
"525 61 LINE SMOOTH",
"525 26 OFFCURVE",
"550 0 OFFCURVE",
"584 0 CURVE SMOOTH",
"619 0 OFFCURVE",
"645 26 OFFCURVE",
"645 61 CURVE SMOOTH",
"645 422 LINE SMOOTH",
"645 586 OFFCURVE",
"551 710 OFFCURVE",
"387 710 CURVE SMOOTH",
"322 710 OFFCURVE",
"263 682 OFFCURVE",
"216 630 CURVE SMOOTH",
"213 627 OFFCURVE",
"210 628 OFFCURVE",
"210 632 CURVE SMOOTH",
"210 639 LINE SMOOTH",
"210 674 OFFCURVE",
"185 700 OFFCURVE",
"150 700 CURVE SMOOTH",
"115 700 OFFCURVE",
"90 674 OFFCURVE",
"90 639 CURVE SMOOTH",
"90 61 LINE SMOOTH",
"90 26 OFFCURVE",
"115 0 OFFCURVE",
"150 0 CURVE SMOOTH",
"185 0 OFFCURVE",
"210 26 OFFCURVE",
"210 61 CURVE SMOOTH"
);
}
);
width = 725;
}
);
},
{
glyphname = Q.ss01;
lastChange = "2013-12-18 08:32:29 +0400";
layers = (
{
layerId = "4FD7A5AB-3C0B-49D1-A419-889C157412FC";
name = Bold;
paths = (
{
closed = 1;
nodes = (
"709 543 OFFCURVE",
"561 700 OFFCURVE",
"379 700 CURVE SMOOTH",
"197 700 OFFCURVE",
"50 543 OFFCURVE",
"50 350 CURVE SMOOTH",
"50 180 OFFCURVE",
"164 39 OFFCURVE",
"315 7 CURVE SMOOTH",
"318 6 OFFCURVE",
"319 4 OFFCURVE",
"319 1 CURVE SMOOTH",
"319 -89 LINE SMOOTH",
"319 -124 OFFCURVE",
"344 -150 OFFCURVE",
"379 -150 CURVE SMOOTH",
"414 -150 OFFCURVE",
"439 -124 OFFCURVE",
"439 -89 CURVE SMOOTH",
"439 1 LINE SMOOTH",
"439 4 OFFCURVE",
"440 6 OFFCURVE",
"443 7 CURVE SMOOTH",
"595 39 OFFCURVE",
"709 180 OFFCURVE",
"709 350 CURVE SMOOTH"
);
},
{
closed = 1;
nodes = (
"266 120 OFFCURVE",
"170 221 OFFCURVE",
"170 350 CURVE SMOOTH",
"170 479 OFFCURVE",
"266 580 OFFCURVE",
"379 580 CURVE SMOOTH",
"492 580 OFFCURVE",
"589 478 OFFCURVE",
"589 350 CURVE SMOOTH",
"589 222 OFFCURVE",
"492 120 OFFCURVE",
"379 120 CURVE SMOOTH"
);
}
);
width = 759;
}
);
},
{
glyphname = R.ss01;
lastChange = "2013-12-18 08:32:29 +0400";
layers = (
{
layerId = "4FD7A5AB-3C0B-49D1-A419-889C157412FC";
name = Bold;
paths = (
{
closed = 1;
nodes = (
"210 639 LINE",
"210 674 OFFCURVE",
"185 700 OFFCURVE",
"151 700 CURVE SMOOTH",
"116 700 OFFCURVE",
"90 674 OFFCURVE",
"90 639 CURVE SMOOTH",
"90 61 LINE SMOOTH",
"90 26 OFFCURVE",
"115 0 OFFCURVE",
"149 0 CURVE SMOOTH",
"184 0 OFFCURVE",
"210 26 OFFCURVE",
"210 61 CURVE SMOOTH",
"210 282 LINE SMOOTH",
"210 462 OFFCURVE",
"301 551 OFFCURVE",
"427 581 CURVE SMOOTH",
"472 592 OFFCURVE",
"490 619 OFFCURVE",
"484 657 CURVE SMOOTH",
"478 695 OFFCURVE",
"442 719 OFFCURVE",
"394 706 CURVE SMOOTH",
"336 690 OFFCURVE",
"273 651 OFFCURVE",
"216 562 CURVE SMOOTH",
"214 559 OFFCURVE",
"210 560 OFFCURVE",
"210 564 CURVE SMOOTH"
);
}
);
width = 495.119;
}
);
},
{
glyphname = U.ss01;
lastChange = "2013-12-18 08:32:29 +0400";
layers = (
{
layerId = "4FD7A5AB-3C0B-49D1-A419-889C157412FC";
name = Bold;
paths = (
{
closed = 1;
nodes = (
"525 278 LINE SMOOTH",
"525 191 OFFCURVE",
"454 110 OFFCURVE",
"348 110 CURVE SMOOTH",
"251 110 OFFCURVE",
"210 191 OFFCURVE",
"210 278 CURVE SMOOTH",
"210 639 LINE SMOOTH",
"210 674 OFFCURVE",
"185 700 OFFCURVE",
"151 700 CURVE SMOOTH",
"116 700 OFFCURVE",
"90 674 OFFCURVE",
"90 639 CURVE SMOOTH",
"90 278 LINE SMOOTH",
"90 114 OFFCURVE",
"184 -10 OFFCURVE",
"348 -10 CURVE SMOOTH",
"413 -10 OFFCURVE",
"472 18 OFFCURVE",
"519 70 CURVE SMOOTH",
"522 73 OFFCURVE",
"525 72 OFFCURVE",
"525 68 CURVE SMOOTH",
"525 61 LINE SMOOTH",
"525 26 OFFCURVE",
"550 0 OFFCURVE",
"585 0 CURVE SMOOTH",
"620 0 OFFCURVE",
"645 26 OFFCURVE",
"645 61 CURVE SMOOTH",
"645 639 LINE SMOOTH",
"645 674 OFFCURVE",
"620 700 OFFCURVE",
"585 700 CURVE SMOOTH",
"550 700 OFFCURVE",
"525 674 OFFCURVE",
"525 639 CURVE SMOOTH"
);
}
);
width = 725;
}
);
},
{
glyphname = W.ss01;
lastChange = "2013-12-18 08:32:29 +0400";
layers = (
{
layerId = "4FD7A5AB-3C0B-49D1-A419-889C157412FC";
name = Bold;
paths = (
{
closed = 1;
nodes = (
"870 278 LINE SMOOTH",
"870 191 OFFCURVE",
"819 120 OFFCURVE",
"733 120 CURVE SMOOTH",
"646 120 OFFCURVE",
"595 191 OFFCURVE",
"595 278 CURVE SMOOTH",
"595 640 LINE",
"595 641 LINE SMOOTH",
"594 676 OFFCURVE",
"569 701 OFFCURVE",
"536 701 CURVE SMOOTH",
"500 701 OFFCURVE",
"475 675 OFFCURVE",
"475 640 CURVE SMOOTH",
"475 278 LINE SMOOTH",
"475 191 OFFCURVE",
"424 120 OFFCURVE",
"338 120 CURVE SMOOTH",
"251 120 OFFCURVE",
"200 191 OFFCURVE",
"200 278 CURVE SMOOTH",
"200 640 LINE SMOOTH",
"200 675 OFFCURVE",
"175 701 OFFCURVE",
"141 701 CURVE SMOOTH",
"106 701 OFFCURVE",
"80 675 OFFCURVE",
"80 640 CURVE SMOOTH",
"80 278 LINE SMOOTH",
"80 124 OFFCURVE",
"184 0 OFFCURVE",
"338 0 CURVE SMOOTH",
"418 0 OFFCURVE",
"495 44 OFFCURVE",
"532 100 CURVE SMOOTH",
"534 103 OFFCURVE",
"536 103 OFFCURVE",
"538 100 CURVE SMOOTH",
"576 44 OFFCURVE",
"652 0 OFFCURVE",
"733 0 CURVE SMOOTH",
"886 0 OFFCURVE",
"990 124 OFFCURVE",
"990 278 CURVE SMOOTH",
"990 640 LINE SMOOTH",
"990 675 OFFCURVE",
"965 701 OFFCURVE",
"930 701 CURVE SMOOTH",
"895 701 OFFCURVE",
"870 675 OFFCURVE",
"870 640 CURVE SMOOTH"
);
}
);
width = 1070;
}
);
},
{
glyphname = a;
lastChange = "2013-12-18 08:32:29 +0400";
layers = (
{
anchors = (
{
name = ogonek;
position = "{581, 10}";
},
{
name = top;
position = "{323, 515}";
}
);
layerId = "4FD7A5AB-3C0B-49D1-A419-889C157412FC";
name = Bold;
paths = (
{
closed = 1;
nodes = (
"473 515 OFFCURVE",
"448 489 OFFCURVE",
"448 454 CURVE SMOOTH",
"448 450 OFFCURVE",
"445 448 OFFCURVE",
"443 452 CURVE SMOOTH",
"427 484 OFFCURVE",
"372 525 OFFCURVE",
"301 525 CURVE SMOOTH",
"152 525 OFFCURVE",
"45 415 OFFCURVE",
"45 257 CURVE SMOOTH",
"45 100 OFFCURVE",
"152 -10 OFFCURVE",
"301 -10 CURVE SMOOTH",
"372 -10 OFFCURVE",
"427 31 OFFCURVE",
"443 63 CURVE SMOOTH",
"445 67 OFFCURVE",
"448 65 OFFCURVE",
"448 61 CURVE SMOOTH",
"448 26 OFFCURVE",
"473 0 OFFCURVE",
"508 0 CURVE SMOOTH",
"543 0 OFFCURVE",
"568 26 OFFCURVE",
"568 61 CURVE SMOOTH",
"568 454 LINE SMOOTH",
"568 489 OFFCURVE",
"543 515 OFFCURVE",
"508 515 CURVE SMOOTH"
);
},
{
closed = 1;
nodes = (
"221 110 OFFCURVE",
"160 174 OFFCURVE",
"160 257 CURVE SMOOTH",
"160 341 OFFCURVE",
"221 405 OFFCURVE",
"311 405 CURVE SMOOTH",
"402 405 OFFCURVE",
"463 341 OFFCURVE",
"463 257 CURVE SMOOTH",
"463 174 OFFCURVE",
"402 110 OFFCURVE",
"311 110 CURVE SMOOTH"
);
}
);
width = 648;
}
);
leftKerningGroup = a;
rightKerningGroup = a;
unicode = 0061;
},
{
glyphname = ae;
lastChange = "2013-12-18 08:32:29 +0400";
layers = (
{
anchors = (
{
name = bottom;
position = "{754, 0}";
},
{
name = ogonek;
position = "{581, 10}";
},
{
name = top;
position = "{323, 515}";
}
);
layerId = "4FD7A5AB-3C0B-49D1-A419-889C157412FC";
name = Bold;
paths = (
{
closed = 1;
nodes = (
"955 216 LINE SMOOTH",
"990 216 OFFCURVE",
"1019 242 OFFCURVE",
"1016 279 CURVE SMOOTH",
"1001 468 OFFCURVE",
"845 525 OFFCURVE",
"758 525 CURVE SMOOTH",
"690 525 OFFCURVE",
"623 499 OFFCURVE",
"574 450 CURVE SMOOTH",
"571 447 OFFCURVE",
"568 448 OFFCURVE",
"568 452 CURVE SMOOTH",
"568 454 LINE SMOOTH",
"568 489 OFFCURVE",
"543 515 OFFCURVE",
"508 515 CURVE SMOOTH",
"473 515 OFFCURVE",
"448 489 OFFCURVE",
"448 454 CURVE SMOOTH",
"448 450 OFFCURVE",
"445 448 OFFCURVE",
"443 452 CURVE SMOOTH",
"427 484 OFFCURVE",
"372 525 OFFCURVE",
"301 525 CURVE SMOOTH",
"152 525 OFFCURVE",
"45 415 OFFCURVE",
"45 257 CURVE SMOOTH",
"45 100 OFFCURVE",
"152 -10 OFFCURVE",
"301 -10 CURVE SMOOTH",
"372 -10 OFFCURVE",
"427 31 OFFCURVE",
"443 63 CURVE SMOOTH",
"445 67 OFFCURVE",
"448 65 OFFCURVE",
"448 61 CURVE SMOOTH",
"448 26 OFFCURVE",
"473 0 OFFCURVE",
"508 0 CURVE SMOOTH",
"543 0 OFFCURVE",
"568 26 OFFCURVE",
"568 61 CURVE SMOOTH",
"568 63 LINE SMOOTH",
"568 68 OFFCURVE",
"571 69 OFFCURVE",
"574 66 CURVE SMOOTH",
"624 19 OFFCURVE",
"695 -10 OFFCURVE",
"778 -10 CURVE SMOOTH",
"846 -10 OFFCURVE",
"917 16 OFFCURVE",
"953 45 CURVE SMOOTH",
"982 68 OFFCURVE",
"989 98 OFFCURVE",
"972 122 CURVE SMOOTH",
"954 147 OFFCURVE",
"925 150 OFFCURVE",
"896 135 CURVE SMOOTH",
"873 123 OFFCURVE",
"848 96 OFFCURVE",
"772 96 CURVE SMOOTH",
"700 96 OFFCURVE",
"639 158 OFFCURVE",
"623 208 CURVE",
"622 213 OFFCURVE",
"624 216 OFFCURVE",
"629 216 CURVE SMOOTH"
);
},
{
closed = 1;
nodes = (
"822 410 OFFCURVE",
"883 370 OFFCURVE",
"888 322 CURVE",
"888 318 OFFCURVE",
"885 315 OFFCURVE",
"881 315 CURVE SMOOTH",
"634 315 LINE SMOOTH",
"630 315 OFFCURVE",
"627 318 OFFCURVE",
"627 322 CURVE",
"632 370 OFFCURVE",
"694 410 OFFCURVE",
"758 410 CURVE SMOOTH"
);
},
{
closed = 1;
nodes = (
"221 110 OFFCURVE",
"160 174 OFFCURVE",
"160 257 CURVE SMOOTH",
"160 341 OFFCURVE",
"221 405 OFFCURVE",
"311 405 CURVE SMOOTH",
"402 405 OFFCURVE",
"463 341 OFFCURVE",
"463 257 CURVE SMOOTH",
"463 174 OFFCURVE",
"402 110 OFFCURVE",
"311 110 CURVE SMOOTH"
);
}
);
width = 1056.21;
}
);
leftMetricsKey = a;
rightMetricsKey = e;
unicode = 00E6;
},
{
glyphname = b;
lastChange = "2013-12-18 08:32:29 +0400";
layers = (
{
layerId = "4FD7A5AB-3C0B-49D1-A419-889C157412FC";
name = Bold;
paths = (
{
closed = 1;
nodes = (
"105 740 OFFCURVE",
"80 714 OFFCURVE",
"80 679 CURVE SMOOTH",
"80 61 LINE SMOOTH",
"80 26 OFFCURVE",
"105 0 OFFCURVE",
"140 0 CURVE SMOOTH",
"175 0 OFFCURVE",
"200 26 OFFCURVE",
"200 61 CURVE SMOOTH",
"200 65 OFFCURVE",
"203 66 OFFCURVE",
"205 62 CURVE SMOOTH",
"221 30 OFFCURVE",
"276 -10 OFFCURVE",
"347 -10 CURVE SMOOTH",
"496 -10 OFFCURVE",
"603 100 OFFCURVE",
"603 257 CURVE SMOOTH",
"603 415 OFFCURVE",
"496 525 OFFCURVE",
"347 525 CURVE SMOOTH",
"276 525 OFFCURVE",
"221 486 OFFCURVE",
"205 454 CURVE SMOOTH",
"203 450 OFFCURVE",
"200 451 OFFCURVE",
"200 456 CURVE SMOOTH",
"200 679 LINE SMOOTH",
"200 714 OFFCURVE",
"175 740 OFFCURVE",
"140 740 CURVE SMOOTH"
);
},
{
closed = 1;
nodes = (
"246 110 OFFCURVE",
"185 174 OFFCURVE",
"185 257 CURVE SMOOTH",
"185 341 OFFCURVE",
"246 405 OFFCURVE",
"337 405 CURVE SMOOTH",
"427 405 OFFCURVE",
"488 341 OFFCURVE",
"488 257 CURVE SMOOTH",
"488 174 OFFCURVE",
"427 110 OFFCURVE",
"337 110 CURVE SMOOTH"
);
}
);
width = 648;
}
);
leftKerningGroup = b;
rightKerningGroup = b;
unicode = 0062;
},
{
glyphname = c;
lastChange = "2013-12-18 08:32:29 +0400";
layers = (
{
anchors = (
{
name = bottom;
position = "{245, 0}";
},
{
name = top;
position = "{245, 515}";
}
);
layerId = "4FD7A5AB-3C0B-49D1-A419-889C157412FC";
name = Bold;
paths = (
{
closed = 1;
nodes = (
"391 521 OFFCURVE",
"359 525 OFFCURVE",
"320 525 CURVE SMOOTH",
"168 525 OFFCURVE",
"45 405 OFFCURVE",
"45 257 CURVE SMOOTH",
"45 110 OFFCURVE",
"168 -10 OFFCURVE",
"320 -10 CURVE SMOOTH",
"359 -10 OFFCURVE",
"392 -5 OFFCURVE",
"425 11 CURVE SMOOTH",
"457 27 OFFCURVE",
"472 72 OFFCURVE",
"447 105 CURVE SMOOTH",
"415 147 OFFCURVE",
"373 110 OFFCURVE",
"320 110 CURVE SMOOTH",
"233 110 OFFCURVE",
"165 177 OFFCURVE",
"165 257 CURVE SMOOTH",
"165 338 OFFCURVE",
"233 405 OFFCURVE",
"320 405 CURVE SMOOTH",
"371 405 OFFCURVE",
"423 368 OFFCURVE",
"453 422 CURVE SMOOTH",
"468 449 OFFCURVE",
"457 488 OFFCURVE",
"425 504 CURVE SMOOTH"
);
}
);
width = 489.694;
}
);
leftKerningGroup = c;
rightKerningGroup = c;
unicode = 0063;
},
{
glyphname = d;
lastChange = "2013-12-18 08:32:29 +0400";
layers = (
{
anchors = (
{
name = center;
position = "{323, 258}";
},
{
name = topright;
position = "{626, 515}";
}
);
layerId = "4FD7A5AB-3C0B-49D1-A419-889C157412FC";
name = Bold;
paths = (
{
closed = 1;
nodes = (
"473 740 OFFCURVE",
"448 714 OFFCURVE",
"448 679 CURVE SMOOTH",
"448 456 LINE SMOOTH",
"448 451 OFFCURVE",
"445 450 OFFCURVE",
"443 454 CURVE SMOOTH",
"427 486 OFFCURVE",
"372 525 OFFCURVE",
"301 525 CURVE SMOOTH",
"152 525 OFFCURVE",
"45 415 OFFCURVE",
"45 257 CURVE SMOOTH",
"45 100 OFFCURVE",
"152 -10 OFFCURVE",
"301 -10 CURVE SMOOTH",
"372 -10 OFFCURVE",
"427 30 OFFCURVE",
"443 62 CURVE SMOOTH",
"445 66 OFFCURVE",
"448 65 OFFCURVE",
"448 61 CURVE SMOOTH",
"448 26 OFFCURVE",
"473 0 OFFCURVE",
"508 0 CURVE SMOOTH",
"543 0 OFFCURVE",
"568 26 OFFCURVE",
"568 61 CURVE SMOOTH",
"568 679 LINE SMOOTH",
"568 714 OFFCURVE",
"543 740 OFFCURVE",
"508 740 CURVE SMOOTH"
);
},
{
closed = 1;
nodes = (
"221 110 OFFCURVE",
"160 174 OFFCURVE",
"160 257 CURVE SMOOTH",
"160 341 OFFCURVE",
"221 405 OFFCURVE",
"311 405 CURVE SMOOTH",
"402 405 OFFCURVE",
"463 341 OFFCURVE",
"463 257 CURVE SMOOTH",
"463 174 OFFCURVE",
"402 110 OFFCURVE",
"311 110 CURVE SMOOTH"
);
}
);
width = 648;
}
);
leftKerningGroup = c;
rightKerningGroup = d;
unicode = 0064;
},
{
glyphname = eth;
lastChange = "2013-12-18 08:32:29 +0400";
layers = (
{
layerId = "4FD7A5AB-3C0B-49D1-A419-889C157412FC";
name = Bold;
paths = (
{
closed = 1;
nodes = (
"444 553 LINE SMOOTH",
"471 563 OFFCURVE",
"483 591 OFFCURVE",
"473 618 CURVE SMOOTH",
"463 645 OFFCURVE",
"435 657 OFFCURVE",
"407 646 CURVE SMOOTH",
"356 626 LINE SMOOTH",
"353 625 OFFCURVE",
"351 626 OFFCURVE",
"349 627 CURVE SMOOTH",
"312 657 OFFCURVE",
"267 682 OFFCURVE",
"212 698 CURVE SMOOTH",
"170 710 OFFCURVE",
"135 689 OFFCURVE",
"130 655 CURVE",
"130 654 LINE",
"125 620 OFFCURVE",
"147 594 OFFCURVE",
"182 583 CURVE SMOOTH",
"190 581 OFFCURVE",
"197 578 OFFCURVE",
"205 574 CURVE SMOOTH",
"209 573 OFFCURVE",
"209 569 OFFCURVE",
"205 568 CURVE SMOOTH",
"177 557 LINE SMOOTH",
"150 547 OFFCURVE",
"138 519 OFFCURVE",
"148 492 CURVE SMOOTH",
"158 465 OFFCURVE",
"186 453 OFFCURVE",
"214 464 CURVE SMOOTH",
"305 499 LINE SMOOTH",
"308 500 OFFCURVE",
"310 500 OFFCURVE",
"312 498 CURVE SMOOTH",
"341 467 OFFCURVE",
"364 432 OFFCURVE",
"379 398 CURVE SMOOTH",
"382 391 OFFCURVE",
"376 386 OFFCURVE",
"371 392 CURVE",
"351 413 OFFCURVE",
"320 434 OFFCURVE",
"263 434 CURVE SMOOTH",
"163 434 OFFCURVE",
"55.9999 335 OFFCURVE",
"55.9999 212 CURVE SMOOTH",
"55.9999 89 OFFCURVE",
"156 -10 OFFCURVE",
"279 -10 CURVE SMOOTH",
"402 -10 OFFCURVE",
"489 89 OFFCURVE",
"502 212 CURVE SMOOTH",
"508 265 OFFCURVE",
"505 416 OFFCURVE",
"426 540 CURVE SMOOTH",
"424 543 OFFCURVE",
"425 546 OFFCURVE",
"428 547 CURVE SMOOTH"
);
},
{
closed = 1;
nodes = (
"222 110 OFFCURVE",
"176 155 OFFCURVE",
"176 212 CURVE SMOOTH",
"176 269 OFFCURVE",
"222 314 OFFCURVE",
"279 314 CURVE SMOOTH",
"337 314 OFFCURVE",
"382 269 OFFCURVE",
"382 212 CURVE SMOOTH",
"382 155 OFFCURVE",
"337 110 OFFCURVE",
"279 110 CURVE SMOOTH"
);
}
);
width = 538;
}
);
unicode = 00F0;
},
{
glyphname = dcroat;
lastChange = "2013-12-18 08:32:29 +0400";
layers = (
{
anchors = (
{
name = _top;
position = "{476, 485}";
},
{
name = center;
position = "{323, 258}";
},
{
name = topright;
position = "{626, 515}";
}
);
layerId = "4FD7A5AB-3C0B-49D1-A419-889C157412FC";
name = Bold;
paths = (
{
closed = 1;
nodes = (
"573 659 LINE SMOOTH",
"570 659 OFFCURVE",
"568 661 OFFCURVE",
"568 664 CURVE SMOOTH",
"568 679 LINE SMOOTH",
"568 714 OFFCURVE",
"543 740 OFFCURVE",
"508 740 CURVE SMOOTH",
"473 740 OFFCURVE",
"448 714 OFFCURVE",
"448 679 CURVE SMOOTH",
"448 664 LINE SMOOTH",
"448 661 OFFCURVE",
"446 659 OFFCURVE",
"443 659 CURVE SMOOTH",
"355 659 LINE SMOOTH",
"323 659 OFFCURVE",
"305 643 OFFCURVE",
"305 615 CURVE SMOOTH",
"305 586 OFFCURVE",
"323 570 OFFCURVE",
"355 570 CURVE SMOOTH",
"443 570 LINE SMOOTH",
"446 570 OFFCURVE",
"448 568 OFFCURVE",
"448 565 CURVE SMOOTH",
"448 456 LINE SMOOTH",
"448 451 OFFCURVE",
"445 450 OFFCURVE",
"443 454 CURVE SMOOTH",
"427 486 OFFCURVE",
"372 525 OFFCURVE",
"301 525 CURVE SMOOTH",
"152 525 OFFCURVE",
"45 415 OFFCURVE",
"45 257 CURVE SMOOTH",
"45 100 OFFCURVE",
"152 -10 OFFCURVE",
"301 -10 CURVE SMOOTH",
"372 -10 OFFCURVE",
"427 30 OFFCURVE",
"443 62 CURVE SMOOTH",
"445 66 OFFCURVE",
"448 65 OFFCURVE",
"448 61 CURVE SMOOTH",
"448 26 OFFCURVE",
"473 0 OFFCURVE",
"508 0 CURVE SMOOTH",
"543 0 OFFCURVE",
"568 26 OFFCURVE",
"568 61 CURVE SMOOTH",
"568 565 LINE SMOOTH",
"568 568 OFFCURVE",
"570 570 OFFCURVE",
"573 570 CURVE SMOOTH",
"597 570 LINE SMOOTH",
"630 570 OFFCURVE",
"647 586 OFFCURVE",
"647 615 CURVE SMOOTH",
"647 643 OFFCURVE",
"629 659 OFFCURVE",
"597 659 CURVE SMOOTH"
);
},
{
closed = 1;
nodes = (
"221 110 OFFCURVE",
"160 174 OFFCURVE",
"160 257 CURVE SMOOTH",
"160 341 OFFCURVE",
"221 405 OFFCURVE",
"311 405 CURVE SMOOTH",
"402 405 OFFCURVE",
"463 341 OFFCURVE",
"463 257 CURVE SMOOTH",
"463 174 OFFCURVE",
"402 110 OFFCURVE",
"311 110 CURVE SMOOTH"
);
}
);
width = 648;
}
);
unicode = 0111;
},
{
glyphname = e;
lastChange = "2013-12-18 08:32:29 +0400";
layers = (
{
anchors = (
{
name = bottom;
position = "{303, 0}";
},
{
name = ogonek;
position = "{544, 10}";
},
{
name = top;
position = "{303, 515}";
}
);
layerId = "4FD7A5AB-3C0B-49D1-A419-889C157412FC";
name = Bold;
paths = (
{
closed = 1;
nodes = (
"550 468 OFFCURVE",
"394 525 OFFCURVE",
"307 525 CURVE SMOOTH",
"173 525 OFFCURVE",
"45 423 OFFCURVE",
"45 250 CURVE SMOOTH",
"45 102 OFFCURVE",
"163 -10 OFFCURVE",
"327 -10 CURVE SMOOTH",
"395 -10 OFFCURVE",
"466 16 OFFCURVE",
"502 45 CURVE SMOOTH",
"531 68 OFFCURVE",
"538 98 OFFCURVE",
"521 122 CURVE SMOOTH",
"503 147 OFFCURVE",
"474 150 OFFCURVE",
"445 135 CURVE SMOOTH",
"422 123 OFFCURVE",
"397 96 OFFCURVE",
"321 96 CURVE SMOOTH",
"249 96 OFFCURVE",
"188 158 OFFCURVE",
"172 208 CURVE SMOOTH",
"171 213 OFFCURVE",
"173 216 OFFCURVE",
"178 216 CURVE SMOOTH",
"504 216 LINE SMOOTH",
"539 216 OFFCURVE",
"568 242 OFFCURVE",
"565 279 CURVE SMOOTH"
);
},
{
closed = 1;
nodes = (
"183 315 LINE SMOOTH",
"179 315 OFFCURVE",
"176 318 OFFCURVE",
"176 322 CURVE SMOOTH",
"181 370 OFFCURVE",
"243 410 OFFCURVE",
"307 410 CURVE SMOOTH",
"371 410 OFFCURVE",
"432 370 OFFCURVE",
"437 322 CURVE SMOOTH",
"437 318 OFFCURVE",
"434 315 OFFCURVE",
"430 315 CURVE SMOOTH"
);
}
);
width = 610.214;
}
);
leftKerningGroup = c;
rightKerningGroup = e;
unicode = 0065;
},
{
glyphname = f;
lastChange = "2013-12-18 08:32:30 +0400";
layers = (
{
layerId = "4FD7A5AB-3C0B-49D1-A419-889C157412FC";
name = Bold;
paths = (
{
closed = 1;
nodes = (
"135 521 CURVE SMOOTH",
"135 517 OFFCURVE",
"132 515 OFFCURVE",
"125 515 CURVE SMOOTH",
"86 515 LINE SMOOTH",
"51 515 OFFCURVE",
"25 490 OFFCURVE",
"25 455 CURVE SMOOTH",
"25 420 OFFCURVE",
"51 395 OFFCURVE",
"86 395 CURVE SMOOTH",
"125 395 LINE SMOOTH",
"132 395 OFFCURVE",
"135 392 OFFCURVE",
"135 385 CURVE SMOOTH",
"135 61 LINE SMOOTH",
"135 26 OFFCURVE",
"160 0 OFFCURVE",
"195 0 CURVE SMOOTH",
"230 0 OFFCURVE",
"255 26 OFFCURVE",
"255 61 CURVE SMOOTH",
"255 385 LINE SMOOTH",
"255 392 OFFCURVE",
"259 395 OFFCURVE",
"265 395 CURVE SMOOTH",
"311 395 LINE SMOOTH",
"346 395 OFFCURVE",
"372 420 OFFCURVE",
"372 455 CURVE SMOOTH",
"372 490 OFFCURVE",
"346 515 OFFCURVE",
"311 515 CURVE SMOOTH",
"265 515 LINE SMOOTH",
"259 515 OFFCURVE",
"255 519 OFFCURVE",
"255 525 CURVE SMOOTH",
"255 532 LINE SMOOTH",
"255 579 OFFCURVE",
"295 617 OFFCURVE",
"335 629 CURVE SMOOTH",
"365 638 OFFCURVE",
"386 653 OFFCURVE",
"386 683 CURVE SMOOTH",
"386 684 LINE SMOOTH",
"386 723 OFFCURVE",
"355 743 OFFCURVE",
"315 740 CURVE SMOOTH",
"180 730 OFFCURVE",
"137 603 OFFCURVE"
);
}
);
width = 406;
}
);
leftKerningGroup = f;
rightKerningGroup = f;
unicode = 0066;
},
{
glyphname = g;
lastChange = "2013-12-18 08:32:29 +0400";
layers = (
{
anchors = (
{
name = top;
position = "{323, 515}";
}
);
layerId = "4FD7A5AB-3C0B-49D1-A419-889C157412FC";
name = Bold;
paths = (
{
closed = 1;
nodes = (
"448 450 OFFCURVE",
"445 449 OFFCURVE",
"443 454 CURVE SMOOTH",
"430 487 OFFCURVE",
"372 525 OFFCURVE",
"301 525 CURVE SMOOTH",
"152 525 OFFCURVE",
"45 415 OFFCURVE",
"45 258 CURVE SMOOTH",
"45 100 OFFCURVE",
"152 -10 OFFCURVE",
"301 -10 CURVE SMOOTH",
"372 -10 OFFCURVE",
"425 30 OFFCURVE",
"442 61 CURVE SMOOTH",
"445 65 OFFCURVE",
"448 64 OFFCURVE",
"448 59 CURVE SMOOTH",
"448 33 LINE SMOOTH",
"448 -38 OFFCURVE",
"390 -80 OFFCURVE",
"311 -80 CURVE SMOOTH",
"265 -80 OFFCURVE",
"230 -71 OFFCURVE",
"209 -64 CURVE SMOOTH",
"180 -54 OFFCURVE",
"150 -67 OFFCURVE",
"138 -106 CURVE SMOOTH",
"129 -136 OFFCURVE",
"144 -163 OFFCURVE",
"184 -180 CURVE SMOOTH",
"215 -193 OFFCURVE",
"268 -200 OFFCURVE",
"311 -200 CURVE SMOOTH",
"434 -200 OFFCURVE",
"568 -125 OFFCURVE",
"568 49 CURVE SMOOTH",
"568 454 LINE SMOOTH",
"568 489 OFFCURVE",
"543 515 OFFCURVE",
"508 515 CURVE SMOOTH",
"473 515 OFFCURVE",
"448 489 OFFCURVE",
"448 454 CURVE SMOOTH"
);
},
{
closed = 1;
nodes = (
"221 110 OFFCURVE",
"160 174 OFFCURVE",
"160 258 CURVE SMOOTH",
"160 341 OFFCURVE",
"221 405 OFFCURVE",
"311 405 CURVE SMOOTH",
"402 405 OFFCURVE",
"463 341 OFFCURVE",
"463 258 CURVE SMOOTH",
"463 174 OFFCURVE",
"402 110 OFFCURVE",
"311 110 CURVE SMOOTH"
);
}
);
width = 648;
}
);
leftKerningGroup = g;
rightKerningGroup = g;
unicode = 0067;
},
{
glyphname = h;
lastChange = "2013-12-18 08:32:30 +0400";
layers = (
{
anchors = (
{
name = center;
position = "{300, 258}";
},
{
name = top;
position = "{300, 515}";
}
);
layerId = "4FD7A5AB-3C0B-49D1-A419-889C157412FC";
name = Bold;
paths = (
{
closed = 1;
nodes = (
"200 679 LINE SMOOTH",
"200 714 OFFCURVE",
"175 740 OFFCURVE",
"140 740 CURVE SMOOTH",
"105 740 OFFCURVE",
"80 714 OFFCURVE",
"80 679 CURVE SMOOTH",
"80 61 LINE SMOOTH",
"80 26 OFFCURVE",
"105 0 OFFCURVE",
"140 0 CURVE SMOOTH",
"175 0 OFFCURVE",
"200 26 OFFCURVE",
"200 61 CURVE SMOOTH",
"200 267 LINE SMOOTH",
"200 344 OFFCURVE",
"232 405 OFFCURVE",
"309 405 CURVE SMOOTH",
"386 405 OFFCURVE",
"406 344 OFFCURVE",
"406 267 CURVE SMOOTH",
"406 61 LINE SMOOTH",
"406 26 OFFCURVE",
"431 0 OFFCURVE",
"466 0 CURVE SMOOTH",
"501 0 OFFCURVE",
"526 26 OFFCURVE",
"526 61 CURVE SMOOTH",
"526 267 LINE SMOOTH",
"526 409 OFFCURVE",
"484 525 OFFCURVE",
"341 525 CURVE SMOOTH",
"253 525 OFFCURVE",
"213 459 OFFCURVE",
"208 449 CURVE SMOOTH",
"204 441 OFFCURVE",
"200 442 OFFCURVE",
"200 450 CURVE SMOOTH"
);
}
);
width = 596;
}
);
leftKerningGroup = b;
rightKerningGroup = h;
unicode = 0068;
},
{
glyphname = hbar;
lastChange = "2013-12-18 08:32:29 +0400";
layers = (
{
anchors = (
{
name = center;
position = "{300, 258}";
},
{
name = top;
position = "{300, 515}";
}
);
layerId = "4FD7A5AB-3C0B-49D1-A419-889C157412FC";
name = Bold;
paths = (
{
closed = 1;
nodes = (
"253 525 OFFCURVE",
"213 459 OFFCURVE",
"208 449 CURVE SMOOTH",
"204 441 OFFCURVE",
"200 442 OFFCURVE",
"200 450 CURVE SMOOTH",
"200 552 LINE SMOOTH",
"200 555 OFFCURVE",
"202 557 OFFCURVE",
"205 557 CURVE SMOOTH",
"285 557 LINE SMOOTH",
"315 557 OFFCURVE",
"336 578 OFFCURVE",
"336 606 CURVE SMOOTH",
"336 636 OFFCURVE",
"315 657 OFFCURVE",
"285 657 CURVE SMOOTH",
"205 657 LINE SMOOTH",
"202 657 OFFCURVE",
"200 659 OFFCURVE",
"200 662 CURVE SMOOTH",
"200 679 LINE SMOOTH",
"200 714 OFFCURVE",
"175 740 OFFCURVE",
"140 740 CURVE SMOOTH",
"105 740 OFFCURVE",
"80 714 OFFCURVE",
"80 679 CURVE SMOOTH",
"80 662 LINE SMOOTH",
"80 659 OFFCURVE",
"78 657 OFFCURVE",
"75 657 CURVE SMOOTH",
"59 657 LINE SMOOTH",
"29 657 OFFCURVE",
"8 636 OFFCURVE",
"8 608 CURVE SMOOTH",
"8 578 OFFCURVE",
"29 557 OFFCURVE",
"59 557 CURVE SMOOTH",
"75 557 LINE SMOOTH",
"78 557 OFFCURVE",
"80 555 OFFCURVE",
"80 552 CURVE SMOOTH",
"80 61 LINE SMOOTH",
"80 26 OFFCURVE",
"105 0 OFFCURVE",
"140 0 CURVE SMOOTH",
"175 0 OFFCURVE",
"200 26 OFFCURVE",
"200 61 CURVE SMOOTH",
"200 267 LINE SMOOTH",
"200 344 OFFCURVE",
"232 405 OFFCURVE",
"309 405 CURVE SMOOTH",
"386 405 OFFCURVE",
"406 344 OFFCURVE",
"406 267 CURVE SMOOTH",
"406 61 LINE SMOOTH",
"406 26 OFFCURVE",
"431 0 OFFCURVE",
"466 0 CURVE SMOOTH",
"501 0 OFFCURVE",
"526 26 OFFCURVE",
"526 61 CURVE SMOOTH",
"526 267 LINE SMOOTH",
"526 409 OFFCURVE",
"484 525 OFFCURVE",
"341 525 CURVE SMOOTH"
);
}
);
width = 596;
}
);
unicode = 0127;
},
{
glyphname = i;
lastChange = "2013-12-18 08:32:29 +0400";
layers = (
{
layerId = "4FD7A5AB-3C0B-49D1-A419-889C157412FC";
name = Bold;
paths = (
{
closed = 1;
nodes = (
"200 454 LINE SMOOTH",
"200 489 OFFCURVE",
"175 515 OFFCURVE",
"140 515 CURVE SMOOTH",
"105 515 OFFCURVE",
"80 489 OFFCURVE",
"80 454 CURVE SMOOTH",
"80 61 LINE SMOOTH",
"80 26 OFFCURVE",
"105 0 OFFCURVE",
"140 0 CURVE SMOOTH",
"175 0 OFFCURVE",
"200 26 OFFCURVE",
"200 61 CURVE SMOOTH"
);
},
{
closed = 1;
nodes = (
"80 650 LINE SMOOTH",
"80 617 OFFCURVE",
"97 600 OFFCURVE",
"130 600 CURVE SMOOTH",
"156 600 LINE SMOOTH",
"189 600 OFFCURVE",
"206 618 OFFCURVE",
"206 650 CURVE SMOOTH",
"206 669 LINE SMOOTH",
"206 702 OFFCURVE",
"189 719 OFFCURVE",
"156 719 CURVE SMOOTH",
"130 719 LINE SMOOTH",
"98 719 OFFCURVE",
"80 701 OFFCURVE",
"80 669 CURVE SMOOTH"
);
}
);
width = 286;
}
);
leftKerningGroup = i;
rightKerningGroup = i;
unicode = 0069;
},
{
glyphname = dotlessi;
lastChange = "2013-12-18 08:32:29 +0400";
layers = (
{
layerId = "4FD7A5AB-3C0B-49D1-A419-889C157412FC";
name = Bold;
paths = (
{
closed = 1;
nodes = (
"183 439 LINE SMOOTH",
"183 474 OFFCURVE",
"158 500 OFFCURVE",
"123 500 CURVE SMOOTH",
"88 500 OFFCURVE",
"63 474 OFFCURVE",
"63 439 CURVE SMOOTH",
"63 61 LINE SMOOTH",
"63 26 OFFCURVE",
"88 0 OFFCURVE",
"123 0 CURVE SMOOTH",
"158 0 OFFCURVE",
"183 26 OFFCURVE",
"183 61 CURVE SMOOTH"
);
}
);
width = 246;
}
);
unicode = 0131;
},
{
glyphname = j;
lastChange = "2013-12-18 08:32:29 +0400";
layers = (
{
layerId = "4FD7A5AB-3C0B-49D1-A419-889C157412FC";
name = Bold;
paths = (
{
closed = 1;
nodes = (
"131 -184 OFFCURVE",
"205 -143 OFFCURVE",
"205 -10 CURVE SMOOTH",
"205 454 LINE SMOOTH",
"205 489 OFFCURVE",
"180 515 OFFCURVE",
"145 515 CURVE SMOOTH",
"110 515 OFFCURVE",
"85 489 OFFCURVE",
"85 454 CURVE SMOOTH",
"85 25 LINE SMOOTH",
"85 -20 OFFCURVE",
"83 -59 OFFCURVE",
"36 -74 CURVE SMOOTH",
"6 -83 OFFCURVE",
"-15 -100 OFFCURVE",
"-15 -129 CURVE SMOOTH",
"-15 -140 LINE SMOOTH",
"-15 -174 OFFCURVE",
"13 -201 OFFCURVE",
"50 -196 CURVE SMOOTH"
);
},
{
closed = 1;
nodes = (
"81 650 LINE SMOOTH",
"81 617 OFFCURVE",
"98 600 OFFCURVE",
"131 600 CURVE SMOOTH",
"157 600 LINE SMOOTH",
"190 600 OFFCURVE",
"207 618 OFFCURVE",
"207 650 CURVE SMOOTH",
"207 669 LINE SMOOTH",
"207 702 OFFCURVE",
"190 719 OFFCURVE",
"157 719 CURVE SMOOTH",
"131 719 LINE SMOOTH",
"99 719 OFFCURVE",
"81 701 OFFCURVE",
"81 669 CURVE SMOOTH"
);
}
);
width = 287;
}
);
leftKerningGroup = j;
rightKerningGroup = j;
unicode = 006A;
},
{
glyphname = dotlessj;
lastChange = "2013-12-18 08:32:30 +0400";
layers = (
{
layerId = "4FD7A5AB-3C0B-49D1-A419-889C157412FC";
name = Bold;
paths = (
{
closed = 1;
nodes = (
"56 -184 OFFCURVE",
"130 -143 OFFCURVE",
"130 -10 CURVE SMOOTH",
"130 439 LINE SMOOTH",
"130 474 OFFCURVE",
"105 500 OFFCURVE",
"70 500 CURVE SMOOTH",
"35 500 OFFCURVE",
"10 474 OFFCURVE",
"10 439 CURVE SMOOTH",
"10 25 LINE SMOOTH",
"10 -20 OFFCURVE",
"8 -59 OFFCURVE",
"-39 -74 CURVE SMOOTH",
"-69 -83 OFFCURVE",
"-90 -100 OFFCURVE",
"-90 -129 CURVE SMOOTH",
"-90 -140 LINE SMOOTH",
"-90 -174 OFFCURVE",
"-62 -201 OFFCURVE",
"-25 -196 CURVE SMOOTH"
);
}
);
width = 193;
}
);
unicode = 0237;
},
{
glyphname = k;
lastChange = "2013-12-18 08:32:29 +0400";
layers = (
{
anchors = (
{
name = bottom;
position = "{271, 0}";
}
);
layerId = "4FD7A5AB-3C0B-49D1-A419-889C157412FC";
name = Bold;
paths = (
{
closed = 1;
nodes = (
"355 277 LINE SMOOTH",
"351 282 OFFCURVE",
"351 287 OFFCURVE",
"356 291 CURVE SMOOTH",
"491 408 LINE SMOOTH",
"521 434 OFFCURVE",
"522 471 OFFCURVE",
"496 497 CURVE SMOOTH",
"472 521 OFFCURVE",
"439 522 OFFCURVE",
"414 500 CURVE SMOOTH",
"212 323 LINE SMOOTH",
"206 318 OFFCURVE",
"200 320 OFFCURVE",
"200 329 CURVE SMOOTH",
"200 679 LINE SMOOTH",
"200 714 OFFCURVE",
"175 740 OFFCURVE",
"140 740 CURVE SMOOTH",
"105 740 OFFCURVE",
"80 714 OFFCURVE",
"80 679 CURVE SMOOTH",
"80 61 LINE SMOOTH",
"80 26 OFFCURVE",
"105 0 OFFCURVE",
"140 0 CURVE SMOOTH",
"175 0 OFFCURVE",
"200 26 OFFCURVE",
"200 61 CURVE SMOOTH",
"200 146 LINE SMOOTH",
"200 152 OFFCURVE",
"202 155 OFFCURVE",
"206 159 CURVE SMOOTH",
"250 199 LINE SMOOTH",
"255 203 OFFCURVE",
"260 203 OFFCURVE",
"265 198 CURVE SMOOTH",
"429 21 LINE SMOOTH",
"450 -2 OFFCURVE",
"485 -6 OFFCURVE",
"510 15 CURVE",
"514 18 LINE",
"540 40 OFFCURVE",
"541 77 OFFCURVE",
"515 105 CURVE SMOOTH"
);
}
);
width = 544.103;
}
);
leftKerningGroup = b;
rightKerningGroup = k;
unicode = 006B;
},
{
glyphname = l;
lastChange = "2013-12-18 08:32:29 +0400";
layers = (
{
anchors = (
{
name = bottom;
position = "{140, 0}";
},
{
name = top;
position = "{140, 515}";
},
{
name = topright;
position = "{261, 515}";
}
);
layerId = "4FD7A5AB-3C0B-49D1-A419-889C157412FC";
name = Bold;
paths = (
{
closed = 1;
nodes = (
"200 679 LINE SMOOTH",
"200 714 OFFCURVE",
"175 740 OFFCURVE",
"141 740 CURVE SMOOTH",
"106 740 OFFCURVE",
"80 714 OFFCURVE",
"80 679 CURVE SMOOTH",
"80 61 LINE SMOOTH",
"80 26 OFFCURVE",
"105 0 OFFCURVE",
"139 0 CURVE SMOOTH",
"174 0 OFFCURVE",
"200 26 OFFCURVE",
"200 61 CURVE SMOOTH"
);
}
);
width = 280;
}
);
leftKerningGroup = b;
rightKerningGroup = l;
unicode = 006C;
},
{
glyphname = lslash;
lastChange = "2013-12-18 08:32:29 +0400";
layers = (
{
anchors = (
{
name = bottom;
position = "{164, 0}";
},
{
name = top;
position = "{164, 515}";
},
{
name = topright;
position = "{285, 515}";
}
);
layerId = "4FD7A5AB-3C0B-49D1-A419-889C157412FC";
name = Bold;
paths = (
{
closed = 1;
nodes = (
"306 467 OFFCURVE",
"277 477 OFFCURVE",
"251 465 CURVE SMOOTH",
"230 455 LINE SMOOTH",
"226 454 OFFCURVE",
"224 455 OFFCURVE",
"224 459 CURVE SMOOTH",
"224 679 LINE SMOOTH",
"224 714 OFFCURVE",
"199 740 OFFCURVE",
"165 740 CURVE SMOOTH",
"130 740 OFFCURVE",
"104 714 OFFCURVE",
"104 679 CURVE SMOOTH",
"104 401 LINE SMOOTH",
"104 399 OFFCURVE",
"103 397 OFFCURVE",
"100 396 CURVE SMOOTH",
"36 366 LINE SMOOTH",
"10 354 OFFCURVE",
"-2 326 OFFCURVE",
"10 300 CURVE SMOOTH",
"22 273 OFFCURVE",
"51 263 OFFCURVE",
"77 275 CURVE SMOOTH",
"98 285 LINE SMOOTH",
"102 286 OFFCURVE",
"104 285 OFFCURVE",
"104 281 CURVE SMOOTH",
"104 61 LINE SMOOTH",
"104 26 OFFCURVE",
"129 0 OFFCURVE",
"163 0 CURVE SMOOTH",
"198 0 OFFCURVE",
"224 26 OFFCURVE",
"224 61 CURVE SMOOTH",
"224 339 LINE SMOOTH",
"224 341 OFFCURVE",
"225 343 OFFCURVE",
"228 344 CURVE SMOOTH",
"292 374 LINE SMOOTH",
"318 386 OFFCURVE",
"330 414 OFFCURVE",
"318 440 CURVE SMOOTH"
);
}
);
width = 280;
}
);
unicode = 0142;
},
{
glyphname = m;
lastChange = "2013-12-18 08:32:29 +0400";
layers = (
{
layerId = "4FD7A5AB-3C0B-49D1-A419-889C157412FC";
name = Bold;
paths = (
{
closed = 1;
nodes = (
"200 454 LINE SMOOTH",
"200 489 OFFCURVE",
"175 515 OFFCURVE",
"140 515 CURVE SMOOTH",
"105 515 OFFCURVE",
"80 489 OFFCURVE",
"80 454 CURVE SMOOTH",
"80 61 LINE SMOOTH",
"80 26 OFFCURVE",
"105 0 OFFCURVE",
"140 0 CURVE SMOOTH",
"175 0 OFFCURVE",
"200 26 OFFCURVE",
"200 61 CURVE SMOOTH",
"200 267 LINE SMOOTH",
"200 344 OFFCURVE",
"242 405 OFFCURVE",
"319 405 CURVE SMOOTH",
"401 405 OFFCURVE",
"411 344 OFFCURVE",
"411 267 CURVE SMOOTH",
"411 61 LINE SMOOTH",
"411 26 OFFCURVE",
"436 0 OFFCURVE",
"471 0 CURVE SMOOTH",
"506 0 OFFCURVE",
"531 26 OFFCURVE",
"531 61 CURVE SMOOTH",
"531 267 LINE SMOOTH",
"531 344 OFFCURVE",
"578 405 OFFCURVE",
"655 405 CURVE SMOOTH",
"737 405 OFFCURVE",
"742 344 OFFCURVE",
"742 267 CURVE SMOOTH",
"742 61 LINE SMOOTH",
"742 26 OFFCURVE",
"767 0 OFFCURVE",
"802 0 CURVE SMOOTH",
"837 0 OFFCURVE",
"862 26 OFFCURVE",
"862 61 CURVE SMOOTH",
"862 267 LINE SMOOTH",
"862 409 OFFCURVE",
"840 525 OFFCURVE",
"682 525 CURVE SMOOTH",
"616 525 OFFCURVE",
"544 497 OFFCURVE",
"505 449 CURVE SMOOTH",
"501 443 OFFCURVE",
"496 444 OFFCURVE",
"492 450 CURVE SMOOTH",
"463 496 OFFCURVE",
"427 525 OFFCURVE",
"351 525 CURVE SMOOTH",
"263 525 OFFCURVE",
"213 459 OFFCURVE",
"208 449 CURVE SMOOTH",
"204 441 OFFCURVE",
"200 442 OFFCURVE",
"200 450 CURVE SMOOTH"
);
}
);
width = 932;
}
);
leftKerningGroup = m;
rightKerningGroup = h;
unicode = 006D;
},
{
glyphname = n;
lastChange = "2013-12-18 08:32:29 +0400";
layers = (
{
anchors = (
{
name = bottom;
position = "{305, 0}";
},
{
name = top;
position = "{305, 515}";
}
);
layerId = "4FD7A5AB-3C0B-49D1-A419-889C157412FC";
name = Bold;
paths = (
{
closed = 1;
nodes = (
"200 454 LINE SMOOTH",
"200 489 OFFCURVE",
"175 515 OFFCURVE",
"140 515 CURVE SMOOTH",
"105 515 OFFCURVE",
"80 489 OFFCURVE",
"80 454 CURVE SMOOTH",
"80 61 LINE SMOOTH",
"80 26 OFFCURVE",
"105 0 OFFCURVE",
"140 0 CURVE SMOOTH",
"175 0 OFFCURVE",
"200 26 OFFCURVE",
"200 61 CURVE SMOOTH",
"200 267 LINE SMOOTH",
"200 344 OFFCURVE",
"242 405 OFFCURVE",
"319 405 CURVE SMOOTH",
"396 405 OFFCURVE",
"416 344 OFFCURVE",
"416 267 CURVE SMOOTH",
"416 61 LINE SMOOTH",
"416 26 OFFCURVE",
"441 0 OFFCURVE",
"476 0 CURVE SMOOTH",
"511 0 OFFCURVE",
"536 26 OFFCURVE",
"536 61 CURVE SMOOTH",
"536 267 LINE SMOOTH",
"536 409 OFFCURVE",
"504 525 OFFCURVE",
"361 525 CURVE SMOOTH",
"273 525 OFFCURVE",
"213 459 OFFCURVE",
"208 449 CURVE SMOOTH",
"204 441 OFFCURVE",
"200 442 OFFCURVE",
"200 450 CURVE SMOOTH"
);
}
);
width = 606;
}
);
leftKerningGroup = m;
rightKerningGroup = h;
unicode = 006E;
},
{
glyphname = eng;
lastChange = "2013-12-18 08:32:29 +0400";
layers = (
{
anchors = (
{
name = bottom;
position = "{305, 0}";
},
{
name = top;
position = "{305, 515}";
}
);
layerId = "4FD7A5AB-3C0B-49D1-A419-889C157412FC";
name = Bold;
paths = (
{
closed = 1;
nodes = (
"273 525 OFFCURVE",
"213 459 OFFCURVE",
"208 449 CURVE SMOOTH",
"204 441 OFFCURVE",
"200 442 OFFCURVE",
"200 450 CURVE SMOOTH",
"200 454 LINE SMOOTH",
"200 489 OFFCURVE",
"175 515 OFFCURVE",
"140 515 CURVE SMOOTH",
"105 515 OFFCURVE",
"80 489 OFFCURVE",
"80 454 CURVE SMOOTH",
"80 61 LINE SMOOTH",
"80 26 OFFCURVE",
"105 0 OFFCURVE",
"140 0 CURVE SMOOTH",
"175 0 OFFCURVE",
"200 26 OFFCURVE",
"200 61 CURVE SMOOTH",
"200 267 LINE SMOOTH",
"200 344 OFFCURVE",
"242 405 OFFCURVE",
"319 405 CURVE SMOOTH",
"396 405 OFFCURVE",
"416 344 OFFCURVE",
"416 267 CURVE SMOOTH",
"416 -19 LINE SMOOTH",
"416 -69 OFFCURVE",
"395 -89 OFFCURVE",
"353 -90 CURVE SMOOTH",
"319 -91 OFFCURVE",
"295 -116 OFFCURVE",
"295 -148 CURVE SMOOTH",
"295 -180 OFFCURVE",
"322 -200 OFFCURVE",
"359 -200 CURVE SMOOTH",
"446 -201 OFFCURVE",
"536 -156 OFFCURVE",
"536 -14 CURVE SMOOTH",
"536 267 LINE SMOOTH",
"536 409 OFFCURVE",
"504 525 OFFCURVE",
"361 525 CURVE SMOOTH"
);
}
);
width = 606;
}
);
leftMetricsKey = n;
rightMetricsKey = n;
unicode = 014B;
},
{
glyphname = o;
lastChange = "2013-12-18 08:32:29 +0400";
layers = (
{
anchors = (
{
name = top;
position = "{312, 515}";
}
);
layerId = "4FD7A5AB-3C0B-49D1-A419-889C157412FC";
name = Bold;
paths = (
{
closed = 1;
nodes = (
"459 174 OFFCURVE",
"393 110 OFFCURVE",
"312 110 CURVE",
"231 110 OFFCURVE",
"165 174 OFFCURVE",
"165 257 CURVE",
"165 341 OFFCURVE",
"231 405 OFFCURVE",
"312 405 CURVE",
"393 405 OFFCURVE",
"459 341 OFFCURVE",
"459 257 CURVE"
);
},
{
closed = 1;
nodes = (
"579 405 OFFCURVE",
"461 525 OFFCURVE",
"312 525 CURVE",
"163 525 OFFCURVE",
"45 405 OFFCURVE",
"45 257 CURVE",
"45 109 OFFCURVE",
"163 -10 OFFCURVE",
"312 -10 CURVE",
"461 -10 OFFCURVE",
"579 109 OFFCURVE",
"579 257 CURVE"
);
}
);
width = 624;
}
);
leftKerningGroup = c;
rightKerningGroup = b;
unicode = 006F;
},
{
glyphname = oslash;
lastChange = "2013-12-18 08:32:29 +0400";
layers = (
{
anchors = (
{
name = top;
position = "{312, 515}";
}
);
layerId = "4FD7A5AB-3C0B-49D1-A419-889C157412FC";
name = Bold;
paths = (
{
closed = 1;
nodes = (
"554 464 LINE SMOOTH",
"573 486 OFFCURVE",
"571 516 OFFCURVE",
"550 534 CURVE SMOOTH",
"527 554 OFFCURVE",
"497 551 OFFCURVE",
"478 529 CURVE SMOOTH",
"448 493 LINE SMOOTH",
"446 491 OFFCURVE",
"443 491 OFFCURVE",
"441 492 CURVE SMOOTH",
"403 513 OFFCURVE",
"359 525 OFFCURVE",
"312 525 CURVE SMOOTH",
"163 525 OFFCURVE",
"45 405 OFFCURVE",
"45 257 CURVE SMOOTH",
"45 195 OFFCURVE",
"66 138 OFFCURVE",
"101 93 CURVE SMOOTH",
"102 90 OFFCURVE",
"102 88 OFFCURVE",
"100 86 CURVE SMOOTH",
"70 50 LINE SMOOTH",
"51 28 OFFCURVE",
"53 -2 OFFCURVE",
"74 -20 CURVE SMOOTH",
"97 -40 OFFCURVE",
"127 -37 OFFCURVE",
"146 -15 CURVE SMOOTH",
"176 21 LINE SMOOTH",
"178 23 OFFCURVE",
"181 23 OFFCURVE",
"183 22 CURVE SMOOTH",
"221 1 OFFCURVE",
"265 -11 OFFCURVE",
"312 -11 CURVE SMOOTH",
"461 -11 OFFCURVE",
"579 109 OFFCURVE",
"579 257 CURVE SMOOTH",
"579 319 OFFCURVE",
"558 376 OFFCURVE",
"523 421 CURVE SMOOTH",
"522 424 OFFCURVE",
"522 426 OFFCURVE",
"524 428 CURVE SMOOTH"
);
},
{
closed = 1;
nodes = (
"165 341 OFFCURVE",
"231 405 OFFCURVE",
"312 405 CURVE SMOOTH",
"328 405 OFFCURVE",
"344 402 OFFCURVE",
"359 398 CURVE SMOOTH",
"362 396 OFFCURVE",
"363 394 OFFCURVE",
"360 391 CURVE SMOOTH",
"188 189 LINE SMOOTH",
"186 186 OFFCURVE",
"183 186 OFFCURVE",
"181 189 CURVE SMOOTH",
"171 209 OFFCURVE",
"165 232 OFFCURVE",
"165 257 CURVE"
);
},
{
closed = 1;
nodes = (
"296 110 OFFCURVE",
"280 113 OFFCURVE",
"266 117 CURVE SMOOTH",
"262 118 OFFCURVE",
"262 121 OFFCURVE",
"264 124 CURVE SMOOTH",
"436 326 LINE SMOOTH",
"439 329 OFFCURVE",
"441 328 OFFCURVE",
"443 325 CURVE SMOOTH",
"453 305 OFFCURVE",
"459 282 OFFCURVE",
"459 257 CURVE SMOOTH",
"459 174 OFFCURVE",
"393 110 OFFCURVE",
"312 110 CURVE SMOOTH"
);
}
);
width = 624;
}
);
leftMetricsKey = o;
rightMetricsKey = o;
unicode = 00F8;
},
{
glyphname = p;
lastChange = "2013-12-18 08:32:29 +0400";
layers = (
{
layerId = "4FD7A5AB-3C0B-49D1-A419-889C157412FC";
name = Bold;
paths = (
{
closed = 1;
nodes = (
"175 -200 OFFCURVE",
"200 -174 OFFCURVE",
"200 -139 CURVE SMOOTH",
"200 59 LINE SMOOTH",
"200 64 OFFCURVE",
"203 65 OFFCURVE",
"205 61 CURVE SMOOTH",
"221 29 OFFCURVE",
"276 -10 OFFCURVE",
"347 -10 CURVE SMOOTH",
"496 -10 OFFCURVE",
"603 100 OFFCURVE",
"603 258 CURVE SMOOTH",
"603 415 OFFCURVE",
"496 525 OFFCURVE",
"347 525 CURVE SMOOTH",
"276 525 OFFCURVE",
"221 485 OFFCURVE",
"205 453 CURVE SMOOTH",
"203 449 OFFCURVE",
"200 450 OFFCURVE",
"200 454 CURVE SMOOTH",
"200 489 OFFCURVE",
"175 515 OFFCURVE",
"140 515 CURVE SMOOTH",
"105 515 OFFCURVE",
"80 489 OFFCURVE",
"80 454 CURVE SMOOTH",
"80 -139 LINE SMOOTH",
"80 -174 OFFCURVE",
"105 -200 OFFCURVE",
"140 -200 CURVE SMOOTH"
);
},
{
closed = 1;
nodes = (
"427 405 OFFCURVE",
"488 341 OFFCURVE",
"488 258 CURVE SMOOTH",
"488 174 OFFCURVE",
"427 110 OFFCURVE",
"337 110 CURVE SMOOTH",
"246 110 OFFCURVE",
"185 174 OFFCURVE",
"185 258 CURVE SMOOTH",
"185 341 OFFCURVE",
"246 405 OFFCURVE",
"337 405 CURVE SMOOTH"
);
}
);
width = 648;
}
);
leftKerningGroup = p;
rightKerningGroup = b;
unicode = 0070;
},
{
glyphname = thorn;
lastChange = "2013-12-18 08:32:29 +0400";
layers = (
{
anchors = (
{
name = bottom;
position = "{140, -5}";
},
{
name = top;
position = "{140, 510}";
},
{
name = topright;
position = "{261, 510}";
}
);
layerId = "4FD7A5AB-3C0B-49D1-A419-889C157412FC";
name = Bold;
paths = (
{
closed = 1;
nodes = (
"287 613 OFFCURVE",
"243 600 OFFCURVE",
"206 576 CURVE SMOOTH",
"202 574 OFFCURVE",
"200 576 OFFCURVE",
"200 580 CURVE SMOOTH",
"200 679 LINE SMOOTH",
"200 714 OFFCURVE",
"175 740 OFFCURVE",
"141 740 CURVE SMOOTH",
"106 740 OFFCURVE",
"80 714 OFFCURVE",
"80 679 CURVE SMOOTH",
"80 61 LINE SMOOTH",
"80 26 OFFCURVE",
"105 0 OFFCURVE",
"139 0 CURVE SMOOTH",
"174 0 OFFCURVE",
"200 26 OFFCURVE",
"200 61 CURVE SMOOTH",
"200 161 LINE SMOOTH",
"200 165 OFFCURVE",
"203 166 OFFCURVE",
"206 164 CURVE SMOOTH",
"243 141 OFFCURVE",
"287 128 OFFCURVE",
"334 128 CURVE SMOOTH",
"469 128 OFFCURVE",
"576 236 OFFCURVE",
"576 370 CURVE SMOOTH",
"576 504 OFFCURVE",
"469 613 OFFCURVE",
"334 613 CURVE SMOOTH"
);
},
{
closed = 1;
nodes = (
"261 237 OFFCURVE",
"201 295 OFFCURVE",
"201 370 CURVE SMOOTH",
"201 446 OFFCURVE",
"261 504 OFFCURVE",
"334 504 CURVE SMOOTH",
"407 504 OFFCURVE",
"467 446 OFFCURVE",
"467 370 CURVE SMOOTH",
"467 295 OFFCURVE",
"407 237 OFFCURVE",
"334 237 CURVE SMOOTH"
);
}
);
width = 611;
}
);
unicode = 00FE;
},
{
glyphname = q;
lastChange = "2013-12-18 08:32:30 +0400";
layers = (
{
layerId = "4FD7A5AB-3C0B-49D1-A419-889C157412FC";
name = Bold;
paths = (
{
closed = 1;
nodes = (
"543 -200 OFFCURVE",
"568 -174 OFFCURVE",
"568 -139 CURVE SMOOTH",
"568 454 LINE SMOOTH",
"568 489 OFFCURVE",
"543 515 OFFCURVE",
"508 515 CURVE SMOOTH",
"473 515 OFFCURVE",
"448 489 OFFCURVE",
"448 454 CURVE SMOOTH",
"448 450 OFFCURVE",
"445 449 OFFCURVE",
"443 453 CURVE SMOOTH",
"427 485 OFFCURVE",
"372 525 OFFCURVE",
"301 525 CURVE SMOOTH",
"152 525 OFFCURVE",
"45 415 OFFCURVE",
"45 258 CURVE SMOOTH",
"45 100 OFFCURVE",
"152 -10 OFFCURVE",
"301 -10 CURVE SMOOTH",
"372 -10 OFFCURVE",
"427 29 OFFCURVE",
"443 61 CURVE SMOOTH",
"445 65 OFFCURVE",
"448 64 OFFCURVE",
"448 59 CURVE SMOOTH",
"448 -139 LINE SMOOTH",
"448 -174 OFFCURVE",
"473 -200 OFFCURVE",
"508 -200 CURVE SMOOTH"
);
},
{
closed = 1;
nodes = (
"402 405 OFFCURVE",
"463 341 OFFCURVE",
"463 258 CURVE SMOOTH",
"463 174 OFFCURVE",
"402 110 OFFCURVE",
"311 110 CURVE SMOOTH",
"221 110 OFFCURVE",
"160 174 OFFCURVE",
"160 258 CURVE SMOOTH",
"160 341 OFFCURVE",
"221 405 OFFCURVE",
"311 405 CURVE SMOOTH"
);
}
);
width = 648;
}
);
leftKerningGroup = c;
rightKerningGroup = q;
unicode = 0071;
},
{
glyphname = r;
lastChange = "2013-12-18 08:32:29 +0400";
layers = (
{
anchors = (
{
name = bottom;
position = "{208, 0}";
},
{
name = top;
position = "{208, 515}";
}
);
layerId = "4FD7A5AB-3C0B-49D1-A419-889C157412FC";
name = Bold;
paths = (
{
closed = 1;
nodes = (
"400 513 OFFCURVE",
"370 530 OFFCURVE",
"333 523 CURVE SMOOTH",
"289 514 OFFCURVE",
"234 466 OFFCURVE",
"207 421 CURVE SMOOTH",
"205 417 OFFCURVE",
"200 419 OFFCURVE",
"200 424 CURVE SMOOTH",
"200 454 LINE SMOOTH",
"200 489 OFFCURVE",
"175 515 OFFCURVE",
"140 515 CURVE SMOOTH",
"105 515 OFFCURVE",
"80 489 OFFCURVE",
"80 454 CURVE SMOOTH",
"80 61 LINE SMOOTH",
"80 26 OFFCURVE",
"105 0 OFFCURVE",
"140 0 CURVE SMOOTH",
"175 0 OFFCURVE",
"200 26 OFFCURVE",
"200 61 CURVE SMOOTH",
"200 229 LINE SMOOTH",
"200 359 OFFCURVE",
"302 396 OFFCURVE",
"362 412 CURVE SMOOTH",
"394 421 OFFCURVE",
"412 446 OFFCURVE",
"406 479 CURVE SMOOTH"
);
}
);
width = 415.145;
}
);
leftKerningGroup = m;
rightKerningGroup = r;
unicode = 0072;
},
{
glyphname = s;
lastChange = "2013-12-18 08:32:29 +0400";
layers = (
{
anchors = (
{
name = bottom;
position = "{244, 0}";
},
{
name = top;
position = "{244, 515}";
}
);
layerId = "4FD7A5AB-3C0B-49D1-A419-889C157412FC";
name = Bold;
paths = (
{
closed = 1;
nodes = (
"95 14 OFFCURVE",
"176 -10 OFFCURVE",
"246 -10 CURVE SMOOTH",
"340 -10 OFFCURVE",
"446 40 OFFCURVE",
"446 143 CURVE SMOOTH",
"446 236 OFFCURVE",
"390 268 OFFCURVE",
"274 308 CURVE SMOOTH",
"214 329 OFFCURVE",
"152 342 OFFCURVE",
"152 384 CURVE SMOOTH",
"152 406 OFFCURVE",
"182 423 OFFCURVE",
"230 423 CURVE SMOOTH",
"269 423 OFFCURVE",
"301 409 OFFCURVE",
"329 386 CURVE SMOOTH",
"347 371 OFFCURVE",
"378 371 OFFCURVE",
"397 388 CURVE SMOOTH",
"423 412 OFFCURVE",
"414 443 OFFCURVE",
"397 462 CURVE SMOOTH",
"356 507 OFFCURVE",
"288 525 OFFCURVE",
"230 525 CURVE SMOOTH",
"144 525 OFFCURVE",
"37 474 OFFCURVE",
"37 372 CURVE SMOOTH",
"37 268 OFFCURVE",
"141 238 OFFCURVE",
"222 210 CURVE SMOOTH",
"308 180 OFFCURVE",
"338 164 OFFCURVE",
"338 139 CURVE SMOOTH",
"338 100 OFFCURVE",
"289 91 OFFCURVE",
"246 91 CURVE SMOOTH",
"190 91 OFFCURVE",
"151 125 OFFCURVE",
"128 146 CURVE SMOOTH",
"105 167 OFFCURVE",
"79 165 OFFCURVE",
"59 151 CURVE SMOOTH",
"26 127 OFFCURVE",
"33 94 OFFCURVE",
"47 76 CURVE SMOOTH"
);
}
);
width = 491;
}
);
leftKerningGroup = s;
rightKerningGroup = s;
unicode = 0073;
},
{
glyphname = germandbls;
lastChange = "2013-12-18 08:32:29 +0400";
layers = (
{
layerId = "4FD7A5AB-3C0B-49D1-A419-889C157412FC";
name = Bold;
paths = (
{
closed = 1;
nodes = (
"310 18 OFFCURVE",
"338 -4 OFFCURVE",
"375 0 CURVE SMOOTH",
"505 14 OFFCURVE",
"585 84 OFFCURVE",
"585 196 CURVE SMOOTH",
"585 198 LINE SMOOTH",
"585 295 OFFCURVE",
"516 347 OFFCURVE",
"441 373 CURVE SMOOTH",
"436 375 OFFCURVE",
"436 378 OFFCURVE",
"440 380 CURVE SMOOTH",
"495 412 OFFCURVE",
"543 461 OFFCURVE",
"543 547 CURVE SMOOTH",
"543 549 LINE SMOOTH",
"543 654 OFFCURVE",
"464 737 OFFCURVE",
"328 737 CURVE SMOOTH",
"182 737 OFFCURVE",
"90 647 OFFCURVE",
"90 502 CURVE SMOOTH",
"90 61 LINE SMOOTH",
"90 26 OFFCURVE",
"115 0 OFFCURVE",
"150 0 CURVE SMOOTH",
"185 0 OFFCURVE",
"210 26 OFFCURVE",
"210 61 CURVE SMOOTH",
"210 506 LINE SMOOTH",
"210 584 OFFCURVE",
"256 634 OFFCURVE",
"322 634 CURVE SMOOTH",
"383 634 OFFCURVE",
"423 596 OFFCURVE",
"423 538 CURVE SMOOTH",
"423 536 LINE SMOOTH",
"423 480 OFFCURVE",
"388 441 OFFCURVE",
"338 412 CURVE SMOOTH",
"321 402 OFFCURVE",
"310 385 OFFCURVE",
"310 365 CURVE SMOOTH",
"310 356 LINE SMOOTH",
"310 331 OFFCURVE",
"329 314 OFFCURVE",
"357 306 CURVE SMOOTH",
"422 289 OFFCURVE",
"464 254 OFFCURVE",
"464 201 CURVE SMOOTH",
"464 199 LINE SMOOTH",
"464 145 OFFCURVE",
"427 110 OFFCURVE",
"363 97 CURVE SMOOTH",
"332 90 OFFCURVE",
"310 72 OFFCURVE",
"310 45 CURVE SMOOTH"
);
}
);
width = 630;
}
);
unicode = 00DF;
},
{
glyphname = t;
lastChange = "2013-12-18 08:32:29 +0400";
layers = (
{
anchors = (
{
name = bottom;
position = "{177, 0}";
},
{
name = center;
position = "{177, 258}";
}
);
layerId = "4FD7A5AB-3C0B-49D1-A419-889C157412FC";
name = Bold;
paths = (
{
closed = 1;
nodes = (
"232 385 LINE SMOOTH",
"232 392 OFFCURVE",
"235 395 OFFCURVE",
"242 395 CURVE SMOOTH",
"278 395 LINE SMOOTH",
"313 395 OFFCURVE",
"339 420 OFFCURVE",
"339 454 CURVE SMOOTH",
"339 489 OFFCURVE",
"313 515 OFFCURVE",
"278 515 CURVE SMOOTH",
"242 515 LINE SMOOTH",
"236 515 OFFCURVE",
"232 519 OFFCURVE",
"232 525 CURVE SMOOTH",
"232 589 LINE SMOOTH",
"232 624 OFFCURVE",
"207 650 OFFCURVE",
"173 650 CURVE SMOOTH",
"138 650 OFFCURVE",
"112 624 OFFCURVE",
"112 589 CURVE SMOOTH",
"112 525 LINE SMOOTH",
"112 519 OFFCURVE",
"108 515 OFFCURVE",
"102 515 CURVE SMOOTH",
"71 515 LINE SMOOTH",
"36 515 OFFCURVE",
"10 490 OFFCURVE",
"10 456 CURVE SMOOTH",
"10 421 OFFCURVE",
"36 395 OFFCURVE",
"71 395 CURVE SMOOTH",
"102 395 LINE SMOOTH",
"109 395 OFFCURVE",
"112 391 OFFCURVE",
"112 385 CURVE SMOOTH",
"112 144 LINE SMOOTH",
"112 8 OFFCURVE",
"197 0 OFFCURVE",
"261 0 CURVE SMOOTH",
"296 0 OFFCURVE",
"319 14 OFFCURVE",
"327 47 CURVE SMOOTH",
"335 82 OFFCURVE",
"314 108 OFFCURVE",
"284 116 CURVE SMOOTH",
"262 122 OFFCURVE",
"232 111 OFFCURVE",
"232 154 CURVE SMOOTH"
);
}
);
width = 354;
}
);
leftKerningGroup = t;
rightKerningGroup = t;
unicode = 0074;
},
{
glyphname = tbar;
lastChange = "2013-12-18 08:32:29 +0400";
layers = (
{
anchors = (
{
name = _top;
position = "{175, 135}";
},
{
name = bottom;
position = "{177, 0}";
},
{
name = center;
position = "{177, 258}";
}
);
layerId = "4FD7A5AB-3C0B-49D1-A419-889C157412FC";
name = Bold;
paths = (
{
closed = 1;
nodes = (
"262 122 OFFCURVE",
"232 111 OFFCURVE",
"232 154 CURVE SMOOTH",
"232 205 LINE SMOOTH",
"232 208 OFFCURVE",
"234 210 OFFCURVE",
"237 210 CURVE SMOOTH",
"275 210 LINE SMOOTH",
"305 210 OFFCURVE",
"326 236 OFFCURVE",
"326 265 CURVE SMOOTH",
"326 294 OFFCURVE",
"305 320 OFFCURVE",
"275 320 CURVE SMOOTH",
"237 320 LINE SMOOTH",
"234 320 OFFCURVE",
"232 322 OFFCURVE",
"232 325 CURVE SMOOTH",
"232 385 LINE SMOOTH",
"232 392 OFFCURVE",
"235 395 OFFCURVE",
"242 395 CURVE SMOOTH",
"278 395 LINE SMOOTH",
"313 395 OFFCURVE",
"339 420 OFFCURVE",
"339 454 CURVE SMOOTH",
"339 489 OFFCURVE",
"313 515 OFFCURVE",
"278 515 CURVE SMOOTH",
"242 515 LINE SMOOTH",
"236 515 OFFCURVE",
"232 519 OFFCURVE",
"232 525 CURVE SMOOTH",
"232 589 LINE SMOOTH",
"232 624 OFFCURVE",
"207 650 OFFCURVE",
"173 650 CURVE SMOOTH",
"138 650 OFFCURVE",
"112 624 OFFCURVE",
"112 589 CURVE SMOOTH",
"112 525 LINE SMOOTH",
"112 519 OFFCURVE",
"108 515 OFFCURVE",
"102 515 CURVE SMOOTH",
"71 515 LINE SMOOTH",
"36 515 OFFCURVE",
"10 490 OFFCURVE",
"10 456 CURVE SMOOTH",
"10 421 OFFCURVE",
"36 395 OFFCURVE",
"71 395 CURVE SMOOTH",
"102 395 LINE SMOOTH",
"109 395 OFFCURVE",
"112 391 OFFCURVE",
"112 385 CURVE SMOOTH",
"112 325 LINE SMOOTH",
"112 322 OFFCURVE",
"110 320 OFFCURVE",
"107 320 CURVE SMOOTH",
"75 320 LINE SMOOTH",
"45 320 OFFCURVE",
"24 294 OFFCURVE",
"24 266 CURVE SMOOTH",
"24 236 OFFCURVE",
"45 210 OFFCURVE",
"75 210 CURVE SMOOTH",
"107 210 LINE SMOOTH",
"110 210 OFFCURVE",
"112 208 OFFCURVE",
"112 205 CURVE SMOOTH",
"112 144 LINE SMOOTH",
"112 8 OFFCURVE",
"197 0 OFFCURVE",
"261 0 CURVE SMOOTH",
"296 0 OFFCURVE",
"319 14 OFFCURVE",
"327 47 CURVE SMOOTH",
"335 82 OFFCURVE",
"314 108 OFFCURVE",
"284 116 CURVE SMOOTH"
);
}
);
width = 354;
}
);
unicode = 0167;
},
{
glyphname = u;
lastChange = "2013-12-18 08:32:29 +0400";
layers = (
{
anchors = (
{
name = ogonek;
position = "{544, 10}";
},
{
name = top;
position = "{302, 515}";
}
);
layerId = "4FD7A5AB-3C0B-49D1-A419-889C157412FC";
name = Bold;
paths = (
{
closed = 1;
nodes = (
"432 515 OFFCURVE",
"407 489 OFFCURVE",
"407 454 CURVE SMOOTH",
"407 238 LINE SMOOTH",
"407 156 OFFCURVE",
"371 110 OFFCURVE",
"298 110 CURVE SMOOTH",
"226 110 OFFCURVE",
"190 156 OFFCURVE",
"190 238 CURVE SMOOTH",
"190 454 LINE SMOOTH",
"190 489 OFFCURVE",
"165 515 OFFCURVE",
"130 515 CURVE SMOOTH",
"95 515 OFFCURVE",
"70 489 OFFCURVE",
"70 454 CURVE SMOOTH",
"70 238 LINE SMOOTH",
"70 90 OFFCURVE",
"150 -10 OFFCURVE",
"298 -10 CURVE SMOOTH",
"446 -10 OFFCURVE",
"527 90 OFFCURVE",
"527 238 CURVE SMOOTH",
"527 454 LINE SMOOTH",
"527 489 OFFCURVE",
"502 515 OFFCURVE",
"467 515 CURVE SMOOTH"
);
}
);
width = 607;
}
);
leftKerningGroup = u;
rightKerningGroup = u;
unicode = 0075;
},
{
glyphname = v;
lastChange = "2013-12-18 08:32:29 +0400";
layers = (
{
layerId = "4FD7A5AB-3C0B-49D1-A419-889C157412FC";
name = Bold;
paths = (
{
closed = 1;
nodes = (
"424 526 OFFCURVE",
"390 512 OFFCURVE",
"376 479 CURVE SMOOTH",
"270 227 LINE SMOOTH",
"267 219 OFFCURVE",
"259 219 OFFCURVE",
"256 227 CURVE SMOOTH",
"151 480 LINE SMOOTH",
"138 512 OFFCURVE",
"104 526 OFFCURVE",
"72 513 CURVE SMOOTH",
"40 499 OFFCURVE",
"27 465 OFFCURVE",
"40 433 CURVE SMOOTH",
"206 38 LINE SMOOTH",
"218 10 OFFCURVE",
"243 -4 OFFCURVE",
"269 0 CURVE",
"291 1 OFFCURVE",
"310 15 OFFCURVE",
"320 38 CURVE SMOOTH",
"487 433 LINE SMOOTH",
"501 466 OFFCURVE",
"488 499 OFFCURVE",
"457 512 CURVE SMOOTH"
);
}
);
width = 528;
}
);
leftKerningGroup = v;
rightKerningGroup = v;
unicode = 0076;
},
{
glyphname = w;
lastChange = "2013-12-18 08:32:29 +0400";
layers = (
{
anchors = (
{
name = top;
position = "{375, 515}";
}
);
layerId = "4FD7A5AB-3C0B-49D1-A419-889C157412FC";
name = Bold;
paths = (
{
closed = 1;
nodes = (
"655 525 OFFCURVE",
"619 513 OFFCURVE",
"608 479 CURVE SMOOTH",
"529 234 LINE SMOOTH",
"526 225 OFFCURVE",
"520 224 OFFCURVE",
"516 232 CURVE SMOOTH",
"436 388 LINE",
"432 395 LINE SMOOTH",
"428 402 OFFCURVE",
"422 408 OFFCURVE",
"415 413 CURVE SMOOTH",
"404 421 OFFCURVE",
"392 425 OFFCURVE",
"379 425 CURVE SMOOTH",
"366 425 OFFCURVE",
"354 421 OFFCURVE",
"343 413 CURVE SMOOTH",
"336 408 OFFCURVE",
"331 402 OFFCURVE",
"327 395 CURVE SMOOTH",
"322 388 LINE",
"242 232 LINE SMOOTH",
"238 224 OFFCURVE",
"232 225 OFFCURVE",
"229 234 CURVE SMOOTH",
"150 479 LINE SMOOTH",
"139 513 OFFCURVE",
"103 525 OFFCURVE",
"71 512 CURVE SMOOTH",
"39 498 OFFCURVE",
"28 464 OFFCURVE",
"39 432 CURVE SMOOTH",
"172 38 LINE SMOOTH",
"181 11 OFFCURVE",
"209 -4 OFFCURVE",
"235 0 CURVE",
"257 1 OFFCURVE",
"275 15 OFFCURVE",
"286 38 CURVE SMOOTH",
"372 215 LINE SMOOTH",
"376 223 OFFCURVE",
"382 223 OFFCURVE",
"386 215 CURVE SMOOTH",
"472 38 LINE SMOOTH",
"483 15 OFFCURVE",
"501 1 OFFCURVE",
"523 0 CURVE",
"549 -4 OFFCURVE",
"577 11 OFFCURVE",
"586 38 CURVE SMOOTH",
"719 432 LINE SMOOTH",
"730 464 OFFCURVE",
"719 498 OFFCURVE",
"687 512 CURVE SMOOTH"
);
}
);
width = 758;
}
);
leftKerningGroup = w;
rightKerningGroup = w;
unicode = 0077;
},
{
glyphname = x;
lastChange = "2013-12-18 08:32:30 +0400";
layers = (
{
layerId = "4FD7A5AB-3C0B-49D1-A419-889C157412FC";
name = Bold;
paths = (
{
closed = 1;
nodes = (
"335 250 LINE SMOOTH",
"331 255 OFFCURVE",
"331 259 OFFCURVE",
"335 264 CURVE SMOOTH",
"459 419 LINE SMOOTH",
"481 447 OFFCURVE",
"475 484 OFFCURVE",
"447 504 CURVE SMOOTH",
"419 525 OFFCURVE",
"385 518 OFFCURVE",
"362 491 CURVE SMOOTH",
"261 373 LINE SMOOTH",
"256 367 OFFCURVE",
"251 367 OFFCURVE",
"246 373 CURVE SMOOTH",
"145 491 LINE SMOOTH",
"122 518 OFFCURVE",
"89 525 OFFCURVE",
"61 505 CURVE SMOOTH",
"33 484 OFFCURVE",
"26 448 OFFCURVE",
"48 420 CURVE SMOOTH",
"172 265 LINE SMOOTH",
"176 260 OFFCURVE",
"176 255 OFFCURVE",
"172 250 CURVE SMOOTH",
"48 95 LINE SMOOTH",
"26 67 OFFCURVE",
"32 31 OFFCURVE",
"60 11 CURVE SMOOTH",
"88 -10 OFFCURVE",
"122 -2 OFFCURVE",
"145 24 CURVE SMOOTH",
"247 140 LINE SMOOTH",
"252 145 OFFCURVE",
"256 146 OFFCURVE",
"261 140 CURVE SMOOTH",
"362 24 LINE SMOOTH",
"385 -3 OFFCURVE",
"418 -10 OFFCURVE",
"446 10 CURVE SMOOTH",
"474 31 OFFCURVE",
"481 67 OFFCURVE",
"459 95 CURVE SMOOTH"
);
}
);
width = 508;
}
);
leftKerningGroup = x;
rightKerningGroup = x;
unicode = 0078;
},
{
glyphname = y;
lastChange = "2013-12-18 08:32:29 +0400";
layers = (
{
anchors = (
{
name = top;
position = "{302, 515}";
}
);
layerId = "4FD7A5AB-3C0B-49D1-A419-889C157412FC";
name = Bold;
paths = (
{
closed = 1;
nodes = (
"432 515 OFFCURVE",
"407 489 OFFCURVE",
"407 454 CURVE SMOOTH",
"407 238 LINE SMOOTH",
"407 156 OFFCURVE",
"371 110 OFFCURVE",
"298 110 CURVE SMOOTH",
"226 110 OFFCURVE",
"190 156 OFFCURVE",
"190 238 CURVE SMOOTH",
"190 454 LINE SMOOTH",
"190 489 OFFCURVE",
"165 515 OFFCURVE",
"130 515 CURVE SMOOTH",
"95 515 OFFCURVE",
"70 489 OFFCURVE",
"70 454 CURVE SMOOTH",
"70 238 LINE SMOOTH",
"70 90 OFFCURVE",
"150 -10 OFFCURVE",
"298 -10 CURVE SMOOTH",
"336 -10 OFFCURVE",
"369 -3 OFFCURVE",
"398 9 CURVE SMOOTH",
"402 10 OFFCURVE",
"405 8 OFFCURVE",
"404 4 CURVE SMOOTH",
"390 -49 OFFCURVE",
"338 -80 OFFCURVE",
"270 -80 CURVE SMOOTH",
"224 -80 OFFCURVE",
"189 -71 OFFCURVE",
"168 -64 CURVE SMOOTH",
"139 -54 OFFCURVE",
"109 -67 OFFCURVE",
"97 -106 CURVE SMOOTH",
"88 -136 OFFCURVE",
"103 -163 OFFCURVE",
"143 -180 CURVE SMOOTH",
"174 -193 OFFCURVE",
"227 -200 OFFCURVE",
"270 -200 CURVE SMOOTH",
"393 -200 OFFCURVE",
"527 -125 OFFCURVE",
"527 49 CURVE SMOOTH",
"527 454 LINE SMOOTH",
"527 489 OFFCURVE",
"502 515 OFFCURVE",
"467 515 CURVE SMOOTH"
);
}
);
width = 607;
}
);
leftKerningGroup = y;
rightKerningGroup = y;
unicode = 0079;
},
{
glyphname = z;
lastChange = "2013-12-18 08:32:29 +0400";
layers = (
{
anchors = (
{
name = top;
position = "{228, 515}";
}
);
layerId = "4FD7A5AB-3C0B-49D1-A419-889C157412FC";
name = Bold;
paths = (
{
closed = 1;
nodes = (
"225 120 LINE SMOOTH",
"217 120 OFFCURVE",
"214 125 OFFCURVE",
"219 132 CURVE SMOOTH",
"417 418 LINE SMOOTH",
"437 447 OFFCURVE",
"433 483 OFFCURVE",
"405 503 CURVE SMOOTH",
"396 509 OFFCURVE",
"388 512 OFFCURVE",
"379 514 CURVE SMOOTH",
"375 515 OFFCURVE",
"371 515 OFFCURVE",
"366 515 CURVE SMOOTH",
"103 515 LINE SMOOTH",
"68 515 OFFCURVE",
"42 490 OFFCURVE",
"42 456 CURVE SMOOTH",
"42 421 OFFCURVE",
"68 395 OFFCURVE",
"103 395 CURVE SMOOTH",
"240 395 LINE SMOOTH",
"248 395 OFFCURVE",
"252 390 OFFCURVE",
"247 383 CURVE SMOOTH",
"48 97 LINE SMOOTH",
"30 72 OFFCURVE",
"32 39 OFFCURVE",
"54 19 CURVE",
"64 7 OFFCURVE",
"80 0 OFFCURVE",
"98 0 CURVE SMOOTH",
"366 0 LINE SMOOTH",
"401 0 OFFCURVE",
"427 25 OFFCURVE",
"427 59 CURVE SMOOTH",
"427 94 OFFCURVE",
"401 120 OFFCURVE",
"366 120 CURVE SMOOTH"
);
}
);
width = 456.544;
}
);
leftKerningGroup = z;
rightKerningGroup = z;
unicode = 007A;
},
{
glyphname = fi;
lastChange = "2013-12-18 08:32:29 +0400";
layers = (
{
layerId = "4FD7A5AB-3C0B-49D1-A419-889C157412FC";
name = Bold;
paths = (
{
closed = 1;
nodes = (
"548 509 OFFCURVE",
"533 515 OFFCURVE",
"516 515 CURVE SMOOTH",
"265 515 LINE SMOOTH",
"259 515 OFFCURVE",
"255 519 OFFCURVE",
"255 525 CURVE SMOOTH",
"255 532 LINE SMOOTH",
"255 614 OFFCURVE",
"305 636 OFFCURVE",
"360 636 CURVE SMOOTH",
"414 636 OFFCURVE",
"442 608 OFFCURVE",
"458 590 CURVE SMOOTH",
"490 555 OFFCURVE",
"540 552 OFFCURVE",
"568 587 CURVE SMOOTH",
"592 618 OFFCURVE",
"584 656 OFFCURVE",
"560 677 CURVE SMOOTH",
"540 695 OFFCURVE",
"481 739 OFFCURVE",
"373 741 CURVE SMOOTH",
"263 743 OFFCURVE",
"135 701 OFFCURVE",
"135 521 CURVE SMOOTH",
"135 517 OFFCURVE",
"132 515 OFFCURVE",
"125 515 CURVE SMOOTH",
"86 515 LINE SMOOTH",
"51 515 OFFCURVE",
"25 490 OFFCURVE",
"25 455 CURVE SMOOTH",
"25 420 OFFCURVE",
"51 395 OFFCURVE",
"86 395 CURVE SMOOTH",
"125 395 LINE SMOOTH",
"132 395 OFFCURVE",
"135 392 OFFCURVE",
"135 385 CURVE SMOOTH",
"135 61 LINE SMOOTH",
"135 26 OFFCURVE",
"160 0 OFFCURVE",
"195 0 CURVE SMOOTH",
"230 0 OFFCURVE",
"255 26 OFFCURVE",
"255 61 CURVE SMOOTH",
"255 385 LINE SMOOTH",
"255 392 OFFCURVE",
"259 395 OFFCURVE",
"265 395 CURVE SMOOTH",
"451 395 LINE SMOOTH",
"454 395 OFFCURVE",
"456 393 OFFCURVE",
"456 390 CURVE SMOOTH",
"456 61 LINE SMOOTH",
"456 26 OFFCURVE",
"481 0 OFFCURVE",
"516 0 CURVE SMOOTH",
"551 0 OFFCURVE",
"576 26 OFFCURVE",
"576 61 CURVE SMOOTH",
"576 455 LINE",
"576 472 OFFCURVE",
"570 487 OFFCURVE",
"559 498 CURVE SMOOTH"
);
}
);
width = 662;
}
);
leftMetricsKey = f;
rightMetricsKey = i;
unicode = FB01;
},
{
glyphname = fl;
lastChange = "2013-12-18 08:32:29 +0400";
layers = (
{
anchors = (
{
name = bottom;
position = "{546, 0}";
},
{
name = top;
position = "{546, 515}";
},
{
name = topright;
position = "{667, 515}";
}
);
layerId = "4FD7A5AB-3C0B-49D1-A419-889C157412FC";
name = Bold;
paths = (
{
closed = 1;
nodes = (
"524.484 740 OFFCURVE",
"505.693 729.24 OFFCURVE",
"495.152 712.246 CURVE",
"364.418 750.214 OFFCURVE",
"135 761.167 OFFCURVE",
"135 521 CURVE SMOOTH",
"135 517 OFFCURVE",
"132 515 OFFCURVE",
"125 515 CURVE SMOOTH",
"86 515 LINE SMOOTH",
"51 515 OFFCURVE",
"25 490 OFFCURVE",
"25 455 CURVE SMOOTH",
"25 420 OFFCURVE",
"51 395 OFFCURVE",
"86 395 CURVE SMOOTH",
"125 395 LINE SMOOTH",
"132 395 OFFCURVE",
"135 392 OFFCURVE",
"135 385 CURVE SMOOTH",
"135 61 LINE SMOOTH",
"135 26 OFFCURVE",
"160 0 OFFCURVE",
"195 0 CURVE SMOOTH",
"230 0 OFFCURVE",
"255 26 OFFCURVE",
"255 61 CURVE SMOOTH",
"255 385 LINE SMOOTH",
"255 392 OFFCURVE",
"259 395 OFFCURVE",
"265 395 CURVE SMOOTH",
"311 395 LINE SMOOTH",
"346 395 OFFCURVE",
"372 420 OFFCURVE",
"372 455 CURVE SMOOTH",
"372 490 OFFCURVE",
"346 515 OFFCURVE",
"311 515 CURVE SMOOTH",
"265 515 LINE SMOOTH",
"259 515 OFFCURVE",
"255 519 OFFCURVE",
"255 525 CURVE SMOOTH",
"255 532 LINE SMOOTH",
"255 680 OFFCURVE",
"434 612 OFFCURVE",
"478 584 CURVE SMOOTH",
"486 579.219 LINE",
"486 61 LINE SMOOTH",
"486 26 OFFCURVE",
"511 0 OFFCURVE",
"545 0 CURVE SMOOTH",
"580 0 OFFCURVE",
"606 26 OFFCURVE",
"606 61 CURVE SMOOTH",
"606 679 LINE SMOOTH",
"606 714 OFFCURVE",
"581 740 OFFCURVE",
"547 740 CURVE SMOOTH"
);
}
);
width = 686;
}
);
leftMetricsKey = f;
rightMetricsKey = l;
unicode = FB02;
},
{
glyphname = ordfeminine;
lastChange = "2013-12-18 08:32:29 +0400";
layers = (
{
anchors = (
{
name = ogonek;
position = "{581, 10}";
},
{
name = top;
position = "{323, 515}";
}
);
layerId = "4FD7A5AB-3C0B-49D1-A419-889C157412FC";
name = Bold;
paths = (
{
closed = 1;
nodes = (
"415 700 OFFCURVE",
"399 686 OFFCURVE",
"399 663 CURVE SMOOTH",
"399 660 OFFCURVE",
"397 659 OFFCURVE",
"396 662 CURVE SMOOTH",
"385 683 OFFCURVE",
"349 710 OFFCURVE",
"303 710 CURVE SMOOTH",
"205 710 OFFCURVE",
"135 638 OFFCURVE",
"135 534 CURVE SMOOTH",
"135 431 OFFCURVE",
"205 360 OFFCURVE",
"303 360 CURVE SMOOTH",
"349 360 OFFCURVE",
"385 386 OFFCURVE",
"396 407 CURVE SMOOTH",
"397 410 OFFCURVE",
"399 409 OFFCURVE",
"399 406 CURVE SMOOTH",
"399 383 OFFCURVE",
"415 370 OFFCURVE",
"438 370 CURVE SMOOTH",
"461 370 OFFCURVE",
"478 383 OFFCURVE",
"478 406 CURVE SMOOTH",
"478 663 LINE SMOOTH",
"478 686 OFFCURVE",
"461 700 OFFCURVE",
"438 700 CURVE SMOOTH"
);
},
{
closed = 1;
nodes = (
"251 438 OFFCURVE",
"211 480 OFFCURVE",
"211 534 CURVE SMOOTH",
"211 589 OFFCURVE",
"251 631 OFFCURVE",
"309 631 CURVE SMOOTH",
"369 631 OFFCURVE",
"409 589 OFFCURVE",
"409 534 CURVE SMOOTH",
"409 480 OFFCURVE",
"369 438 OFFCURVE",
"309 438 CURVE SMOOTH"
);
}
);
width = 648;
}
);
unicode = 00AA;
},
{
glyphname = ordmasculine;
lastChange = "2013-12-18 08:32:29 +0400";
layers = (
{
anchors = (
{
name = top;
position = "{312, 515}";
}
);
layerId = "4FD7A5AB-3C0B-49D1-A419-889C157412FC";
name = Bold;
paths = (
{
closed = 1;
nodes = (
"408 480 OFFCURVE",
"365 438 OFFCURVE",
"312 438 CURVE",
"259 438 OFFCURVE",
"216 480 OFFCURVE",
"216 534 CURVE",
"216 589 OFFCURVE",
"259 631 OFFCURVE",
"312 631 CURVE",
"365 631 OFFCURVE",
"408 589 OFFCURVE",
"408 534 CURVE"
);
},
{
closed = 1;
nodes = (
"487 631 OFFCURVE",
"409 710 OFFCURVE",
"312 710 CURVE",
"215 710 OFFCURVE",
"137 631 OFFCURVE",
"137 534 CURVE",
"137 437 OFFCURVE",
"215 360 OFFCURVE",
"312 360 CURVE",
"409 360 OFFCURVE",
"487 437 OFFCURVE",
"487 534 CURVE"
);
}
);
width = 624;
}
);
unicode = 00BA;
},
{
glyphname = pi;
lastChange = "2013-12-18 08:32:29 +0400";
layers = (
{
layerId = "4FD7A5AB-3C0B-49D1-A419-889C157412FC";
name = Bold;
paths = (
{
closed = 1;
nodes = (
"512 418 LINE SMOOTH",
"540 418 OFFCURVE",
"561 438 OFFCURVE",
"561 466 CURVE SMOOTH",
"561 494 OFFCURVE",
"540 515 OFFCURVE",
"512 515 CURVE SMOOTH",
"74 515 LINE SMOOTH",
"46 515 OFFCURVE",
"25 495 OFFCURVE",
"25 467 CURVE SMOOTH",
"25 439 OFFCURVE",
"46 418 OFFCURVE",
"74 418 CURVE SMOOTH",
"90 418 LINE SMOOTH",
"93 418 OFFCURVE",
"95 416 OFFCURVE",
"95 413 CURVE SMOOTH",
"95 49 LINE SMOOTH",
"95 21 OFFCURVE",
"115 0 OFFCURVE",
"143 0 CURVE SMOOTH",
"171 0 OFFCURVE",
"192 21 OFFCURVE",
"192 49 CURVE SMOOTH",
"192 413 LINE SMOOTH",
"192 416 OFFCURVE",
"194 418 OFFCURVE",
"197 418 CURVE SMOOTH",
"389 418 LINE SMOOTH",
"392 418 OFFCURVE",
"394 416 OFFCURVE",
"394 413 CURVE SMOOTH",
"394 49 LINE SMOOTH",
"394 21 OFFCURVE",
"414 0 OFFCURVE",
"442 0 CURVE SMOOTH",
"470 0 OFFCURVE",
"491 21 OFFCURVE",
"491 49 CURVE SMOOTH",
"491 413 LINE SMOOTH",
"491 416 OFFCURVE",
"493 418 OFFCURVE",
"496 418 CURVE SMOOTH"
);
}
);
width = 600;
}
);
unicode = 03C0;
},
{
glyphname = zero;
lastChange = "2013-12-18 08:32:29 +0400";
layers = (
{
layerId = "4FD7A5AB-3C0B-49D1-A419-889C157412FC";
name = Bold;
paths = (
{
closed = 1;
nodes = (
"236 110 OFFCURVE",
"180 189 OFFCURVE",
"180 350 CURVE",
"180 511 OFFCURVE",
"236 590 OFFCURVE",
"322 590 CURVE",
"408 590 OFFCURVE",
"464 511 OFFCURVE",
"464 350 CURVE",
"464 189 OFFCURVE",
"408 110 OFFCURVE",
"322 110 CURVE"
);
},
{
closed = 1;
nodes = (
"491 -10 OFFCURVE",
"584 137 OFFCURVE",
"584 350 CURVE",
"584 563 OFFCURVE",
"491 710 OFFCURVE",
"322 710 CURVE",
"153 710 OFFCURVE",
"60 563 OFFCURVE",
"60 350 CURVE",
"60 137 OFFCURVE",
"153 -10 OFFCURVE",
"322 -10 CURVE"
);
}
);
width = 644;
}
);
unicode = 0030;
},
{
glyphname = one;
lastChange = "2013-12-18 08:32:30 +0400";
layers = (
{
layerId = "4FD7A5AB-3C0B-49D1-A419-889C157412FC";
name = Bold;
paths = (
{
closed = 1;
nodes = (
"241 700 OFFCURVE",
"230 697 OFFCURVE",
"221 691 CURVE SMOOTH",
"70 601 LINE SMOOTH",
"41 584 OFFCURVE",
"30 548 OFFCURVE",
"48 518 CURVE SMOOTH",
"66 488 OFFCURVE",
"102 480 OFFCURVE",
"131 497 CURVE SMOOTH",
"181 527 LINE SMOOTH",
"188 531 OFFCURVE",
"193 528 OFFCURVE",
"193 520 CURVE SMOOTH",
"193 61 LINE SMOOTH",
"193 26 OFFCURVE",
"218 0 OFFCURVE",
"252 0 CURVE SMOOTH",
"287 0 OFFCURVE",
"313 26 OFFCURVE",
"313 61 CURVE SMOOTH",
"313 639 LINE SMOOTH",
"313 674 OFFCURVE",
"288 700 OFFCURVE",
"254 700 CURVE SMOOTH"
);
}
);
width = 403;
}
);
unicode = 0031;
},
{
glyphname = two;
lastChange = "2013-12-18 08:32:29 +0400";
layers = (
{
layerId = "4FD7A5AB-3C0B-49D1-A419-889C157412FC";
name = Bold;
paths = (
{
closed = 1;
nodes = (
"278 120 LINE SMOOTH",
"269 120 OFFCURVE",
"267 126 OFFCURVE",
"273 132 CURVE SMOOTH",
"379 245 LINE SMOOTH",
"488 360 OFFCURVE",
"547 511 OFFCURVE",
"451 625 CURVE SMOOTH",
"370 722 OFFCURVE",
"219 735 OFFCURVE",
"88 631 CURVE SMOOTH",
"49 600 OFFCURVE",
"38 559 OFFCURVE",
"62 532 CURVE SMOOTH",
"85 507 OFFCURVE",
"119 502 OFFCURVE",
"145 526 CURVE SMOOTH",
"228 603 OFFCURVE",
"313 597 OFFCURVE",
"357 546 CURVE SMOOTH",
"403 493 OFFCURVE",
"368 409 OFFCURVE",
"298 334 CURVE SMOOTH",
"80 101 LINE SMOOTH",
"58 77 OFFCURVE",
"55 44 OFFCURVE",
"76 21 CURVE SMOOTH",
"90 5 OFFCURVE",
"109 -2 OFFCURVE",
"128 0 CURVE",
"443 0 LINE SMOOTH",
"478 0 OFFCURVE",
"504 25 OFFCURVE",
"504 59 CURVE SMOOTH",
"504 94 OFFCURVE",
"478 120 OFFCURVE",
"443 120 CURVE SMOOTH"
);
}
);
width = 574;
}
);
unicode = 0032;
},
{
glyphname = three;
lastChange = "2013-12-18 08:32:29 +0400";
layers = (
{
layerId = "4FD7A5AB-3C0B-49D1-A419-889C157412FC";
name = Bold;
paths = (
{
closed = 1;
nodes = (
"267 348 OFFCURVE",
"327 354 OFFCURVE",
"372 310 CURVE SMOOTH",
"411 271 OFFCURVE",
"409 187 OFFCURVE",
"357 141 CURVE SMOOTH",
"307 96 OFFCURVE",
"236 102 OFFCURVE",
"179 134 CURVE SMOOTH",
"153 148 OFFCURVE",
"126 149 OFFCURVE",
"106 129 CURVE SMOOTH",
"105 128 LINE SMOOTH",
"77 100 OFFCURVE",
"76 54 OFFCURVE",
"110 35 CURVE SMOOTH",
"221 -27 OFFCURVE",
"353 -17 OFFCURVE",
"447 75 CURVE SMOOTH",
"528 155 OFFCURVE",
"537 317 OFFCURVE",
"455 399 CURVE",
"358 495 OFFCURVE",
"230 474 OFFCURVE",
"150 435 CURVE SMOOTH",
"116 419 OFFCURVE",
"115 370 OFFCURVE",
"144 343 CURVE SMOOTH",
"164 324 OFFCURVE",
"190 328 OFFCURVE",
"220 336 CURVE SMOOTH"
);
},
{
closed = 1;
nodes = (
"111 700 LINE SMOOTH",
"76 700 OFFCURVE",
"50 675 OFFCURVE",
"50 641 CURVE SMOOTH",
"50 606 OFFCURVE",
"76 580 OFFCURVE",
"111 580 CURVE SMOOTH",
"432 580 LINE SMOOTH",
"467 580 OFFCURVE",
"493 605 OFFCURVE",
"493 639 CURVE SMOOTH",
"493 674 OFFCURVE",
"467 700 OFFCURVE",
"432 700 CURVE SMOOTH"
);
},
{
closed = 1;
nodes = (
"149 441 LINE SMOOTH",
"123 416 OFFCURVE",
"114 386 OFFCURVE",
"134 358 CURVE SMOOTH",
"155 329 OFFCURVE",
"194 320 OFFCURVE",
"220 345 CURVE SMOOTH",
"468 590 LINE SMOOTH",
"494 615 OFFCURVE",
"503 645 OFFCURVE",
"483 673 CURVE SMOOTH",
"462 702 OFFCURVE",
"423 711 OFFCURVE",
"397 686 CURVE SMOOTH"
);
}
);
width = 582.291;
}
);
unicode = 0033;
},
{
glyphname = four;
lastChange = "2013-12-18 08:32:29 +0400";
layers = (
{
layerId = "4FD7A5AB-3C0B-49D1-A419-889C157412FC";
name = Bold;
paths = (
{
closed = 1;
nodes = (
"540 260 LINE SMOOTH",
"533 260 OFFCURVE",
"530 263 OFFCURVE",
"530 270 CURVE SMOOTH",
"530 639 LINE SMOOTH",
"530 674 OFFCURVE",
"505 700 OFFCURVE",
"471 700 CURVE SMOOTH",
"458 700 OFFCURVE",
"446 696 OFFCURVE",
"436 689 CURVE SMOOTH",
"431 686 OFFCURVE",
"426 681 OFFCURVE",
"421 676 CURVE SMOOTH",
"65 239 LINE SMOOTH",
"43 212 OFFCURVE",
"46 175 OFFCURVE",
"73 154 CURVE SMOOTH",
"85 145 OFFCURVE",
"98 140 OFFCURVE",
"110 140 CURVE SMOOTH",
"114 140 LINE",
"400 140 LINE SMOOTH",
"406 140 OFFCURVE",
"410 136 OFFCURVE",
"410 130 CURVE SMOOTH",
"410 61 LINE SMOOTH",
"410 26 OFFCURVE",
"435 0 OFFCURVE",
"469 0 CURVE SMOOTH",
"504 0 OFFCURVE",
"530 26 OFFCURVE",
"530 61 CURVE SMOOTH",
"530 130 LINE SMOOTH",
"530 136 OFFCURVE",
"533 140 OFFCURVE",
"540 140 CURVE SMOOTH",
"567 140 LINE SMOOTH",
"602 140 OFFCURVE",
"628 165 OFFCURVE",
"628 199 CURVE SMOOTH",
"628 234 OFFCURVE",
"602 260 OFFCURVE",
"567 260 CURVE SMOOTH"
);
},
{
closed = 1;
nodes = (
"253 260 LINE SMOOTH",
"245 260 OFFCURVE",
"242 266 OFFCURVE",
"247 272 CURVE SMOOTH",
"398 456 LINE SMOOTH",
"404 464 OFFCURVE",
"410 461 OFFCURVE",
"410 452 CURVE SMOOTH",
"410 270 LINE SMOOTH",
"410 263 OFFCURVE",
"406 260 OFFCURVE",
"400 260 CURVE SMOOTH"
);
}
);
width = 708;
}
);
unicode = 0034;
},
{
glyphname = five;
lastChange = "2013-12-18 08:32:29 +0400";
layers = (
{
layerId = "4FD7A5AB-3C0B-49D1-A419-889C157412FC";
name = Bold;
paths = (
{
closed = 1;
nodes = (
"374 496 OFFCURVE",
"285 520 OFFCURVE",
"200 507 CURVE SMOOTH",
"193 506 OFFCURVE",
"190 510 OFFCURVE",
"191 517 CURVE SMOOTH",
"198 571 LINE SMOOTH",
"199 577 OFFCURVE",
"203 580 OFFCURVE",
"209 580 CURVE SMOOTH",
"444 580 LINE SMOOTH",
"479 580 OFFCURVE",
"505 605 OFFCURVE",
"505 639 CURVE SMOOTH",
"505 674 OFFCURVE",
"479 700 OFFCURVE",
"444 700 CURVE SMOOTH",
"150 700 LINE SMOOTH",
"119 700 OFFCURVE",
"95 680 OFFCURVE",
"90 652 CURVE",
"88 648 OFFCURVE",
"87 644 OFFCURVE",
"87 639 CURVE SMOOTH",
"56 424 LINE SMOOTH",
"51 389 OFFCURVE",
"74 360 OFFCURVE",
"108 356 CURVE",
"118 356 LINE",
"130 356 OFFCURVE",
"143 360 OFFCURVE",
"155 367 CURVE SMOOTH",
"219 404 OFFCURVE",
"300 401 OFFCURVE",
"355 346 CURVE SMOOTH",
"400 301 OFFCURVE",
"400 215 OFFCURVE",
"354 169 CURVE SMOOTH",
"353 168 LINE SMOOTH",
"299 114 OFFCURVE",
"218 104 OFFCURVE",
"154 138 CURVE SMOOTH",
"128 152 OFFCURVE",
"101 153 OFFCURVE",
"81 133 CURVE SMOOTH",
"80 132 LINE SMOOTH",
"52 104 OFFCURVE",
"52 61 OFFCURVE",
"86 40 CURVE SMOOTH",
"196 -27 OFFCURVE",
"342 -13 OFFCURVE",
"438 83 CURVE SMOOTH",
"532 176 OFFCURVE",
"532 339 OFFCURVE",
"439 431 CURVE SMOOTH"
);
}
);
width = 578.626;
}
);
unicode = 0035;
},
{
glyphname = six;
lastChange = "2013-12-18 08:32:29 +0400";
layers = (
{
layerId = "4FD7A5AB-3C0B-49D1-A419-889C157412FC";
name = Bold;
paths = (
{
closed = 1;
nodes = (
"245 434 OFFCURVE",
"214 413 OFFCURVE",
"194 392 CURVE SMOOTH",
"189 386 OFFCURVE",
"183 391 OFFCURVE",
"186 398 CURVE SMOOTH",
"220 476 OFFCURVE",
"297 558 OFFCURVE",
"383 585 CURVE SMOOTH",
"418 596 OFFCURVE",
"440 622 OFFCURVE",
"435 656 CURVE",
"435 657 LINE",
"430 691 OFFCURVE",
"395 712 OFFCURVE",
"353 700 CURVE SMOOTH",
"65 617 OFFCURVE",
"54 294 OFFCURVE",
"63 212 CURVE SMOOTH",
"76 89 OFFCURVE",
"163 -10 OFFCURVE",
"286 -10 CURVE SMOOTH",
"409 -10 OFFCURVE",
"509 89 OFFCURVE",
"509 212 CURVE SMOOTH",
"509 335 OFFCURVE",
"402 434 OFFCURVE",
"302 434 CURVE SMOOTH"
);
},
{
closed = 1;
nodes = (
"228 110 OFFCURVE",
"183 155 OFFCURVE",
"183 212 CURVE SMOOTH",
"183 269 OFFCURVE",
"228 314 OFFCURVE",
"286 314 CURVE SMOOTH",
"343 314 OFFCURVE",
"389 269 OFFCURVE",
"389 212 CURVE SMOOTH",
"389 155 OFFCURVE",
"343 110 OFFCURVE",
"286 110 CURVE SMOOTH"
);
}
);
width = 559;
}
);
unicode = 0036;
},
{
glyphname = seven;
lastChange = "2013-12-18 08:32:29 +0400";
layers = (
{
layerId = "4FD7A5AB-3C0B-49D1-A419-889C157412FC";
name = Bold;
paths = (
{
closed = 1;
nodes = (
"455 697 LINE",
"448 699 OFFCURVE",
"441 700 OFFCURVE",
"434 700 CURVE SMOOTH",
"121 700 LINE SMOOTH",
"86 700 OFFCURVE",
"60 675 OFFCURVE",
"60 641 CURVE SMOOTH",
"60 606 OFFCURVE",
"86 580 OFFCURVE",
"121 580 CURVE SMOOTH",
"335 580 LINE SMOOTH",
"343 580 OFFCURVE",
"346 575 OFFCURVE",
"343 568 CURVE SMOOTH",
"139 84 LINE SMOOTH",
"125 51 OFFCURVE",
"138 17 OFFCURVE",
"170 4 CURVE SMOOTH",
"202 -10 OFFCURVE",
"236 4 OFFCURVE",
"250 37 CURVE SMOOTH",
"493 614 LINE SMOOTH",
"507 648 OFFCURVE",
"494 681 OFFCURVE",
"462 694 CURVE SMOOTH"
);
}
);
width = 568.593;
}
);
unicode = 0037;
},
{
glyphname = eight;
lastChange = "2013-12-18 08:32:29 +0400";
layers = (
{
layerId = "4FD7A5AB-3C0B-49D1-A419-889C157412FC";
name = Bold;
paths = (
{
closed = 1;
nodes = (
"443 418 OFFCURVE",
"470 453 OFFCURVE",
"470 514 CURVE SMOOTH",
"470 617 OFFCURVE",
"387 700 OFFCURVE",
"284 700 CURVE SMOOTH",
"181 700 OFFCURVE",
"97 617 OFFCURVE",
"97 514 CURVE SMOOTH",
"97 462 OFFCURVE",
"125 420 OFFCURVE",
"149 401 CURVE SMOOTH",
"155 397 OFFCURVE",
"156 393 OFFCURVE",
"149 389 CURVE SMOOTH",
"96 356 OFFCURVE",
"60 298 OFFCURVE",
"60 224 CURVE SMOOTH",
"60 100 OFFCURVE",
"160 0 OFFCURVE",
"284 0 CURVE SMOOTH",
"408 0 OFFCURVE",
"508 100 OFFCURVE",
"508 224 CURVE SMOOTH",
"508 298 OFFCURVE",
"472 356 OFFCURVE",
"419 390 CURVE SMOOTH",
"412 394 OFFCURVE",
"412 398 OFFCURVE",
"419 402 CURVE SMOOTH"
);
},
{
closed = 1;
nodes = (
"217 551 OFFCURVE",
"246 580 OFFCURVE",
"284 580 CURVE SMOOTH",
"321 580 OFFCURVE",
"350 551 OFFCURVE",
"350 514 CURVE SMOOTH",
"350 477 OFFCURVE",
"321 448 OFFCURVE",
"284 448 CURVE SMOOTH",
"246 448 OFFCURVE",
"217 477 OFFCURVE",
"217 514 CURVE"
);
},
{
closed = 1;
nodes = (
"226 120 OFFCURVE",
"180 166 OFFCURVE",
"180 224 CURVE SMOOTH",
"180 282 OFFCURVE",
"226 328 OFFCURVE",
"284 328 CURVE SMOOTH",
"342 328 OFFCURVE",
"388 282 OFFCURVE",
"388 224 CURVE SMOOTH",
"388 166 OFFCURVE",
"342 120 OFFCURVE",
"284 120 CURVE SMOOTH"
);
}
);
width = 568;
}
);
unicode = 0038;
},
{
glyphname = nine;
lastChange = "2013-12-18 08:32:29 +0400";
layers = (
{
layerId = "4FD7A5AB-3C0B-49D1-A419-889C157412FC";
name = Bold;
paths = (
{
closed = 1;
nodes = (
"314 259 OFFCURVE",
"345 280 OFFCURVE",
"365 301 CURVE SMOOTH",
"370 307 OFFCURVE",
"376 302 OFFCURVE",
"373 295 CURVE SMOOTH",
"339 217 OFFCURVE",
"262 135 OFFCURVE",
"176 108 CURVE SMOOTH",
"141 97 OFFCURVE",
"119 71 OFFCURVE",
"124 37 CURVE",
"124 36 LINE",
"129 2 OFFCURVE",
"164 -19 OFFCURVE",
"206 -7 CURVE SMOOTH",
"494 76 OFFCURVE",
"505 399 OFFCURVE",
"496 481 CURVE SMOOTH",
"483 604 OFFCURVE",
"396 703 OFFCURVE",
"273 703 CURVE SMOOTH",
"150 703 OFFCURVE",
"50 604 OFFCURVE",
"50 481 CURVE SMOOTH",
"50 358 OFFCURVE",
"157 259 OFFCURVE",
"257 259 CURVE SMOOTH"
);
},
{
closed = 1;
nodes = (
"331 583 OFFCURVE",
"376 538 OFFCURVE",
"376 481 CURVE SMOOTH",
"376 424 OFFCURVE",
"331 379 OFFCURVE",
"273 379 CURVE SMOOTH",
"216 379 OFFCURVE",
"170 424 OFFCURVE",
"170 481 CURVE SMOOTH",
"170 538 OFFCURVE",
"216 583 OFFCURVE",
"273 583 CURVE SMOOTH"
);
}
);
width = 557.936;
}
);
unicode = 0039;
},
{
glyphname = fraction;
lastChange = "2013-12-18 08:32:30 +0400";
layers = (
{
layerId = "4FD7A5AB-3C0B-49D1-A419-889C157412FC";
name = Bold;
paths = (
{
closed = 1;
nodes = (
"511 623 LINE SMOOTH",
"527 647 OFFCURVE",
"523 677 OFFCURVE",
"499 692 CURVE SMOOTH",
"474 709 OFFCURVE",
"445 703 OFFCURVE",
"428 678 CURVE SMOOTH",
"30 77 LINE SMOOTH",
"14 53 OFFCURVE",
"18 23 OFFCURVE",
"42 8 CURVE SMOOTH",
"67 -9 OFFCURVE",
"96 -3 OFFCURVE",
"113 22 CURVE SMOOTH"
);
}
);
width = 540.483;
}
);
unicode = 2044;
},
{
glyphname = onehalf;
lastChange = "2013-12-18 08:32:29 +0400";
layers = (
{
layerId = "4FD7A5AB-3C0B-49D1-A419-889C157412FC";
leftMetricsKey = one;
rightMetricsKey = two;
name = Bold;
paths = (
{
closed = 1;
nodes = (
"182 701 OFFCURVE",
"175 699 OFFCURVE",
"168 696 CURVE SMOOTH",
"162 693 LINE",
"66 638 LINE SMOOTH",
"41 624 OFFCURVE",
"33 594 OFFCURVE",
"48 569 CURVE SMOOTH",
"63 544 OFFCURVE",
"92 538 OFFCURVE",
"117 552 CURVE SMOOTH",
"135 562 LINE SMOOTH",
"138 564 OFFCURVE",
"141 563 OFFCURVE",
"141 559 CURVE SMOOTH",
"141 354 LINE SMOOTH",
"141 324 OFFCURVE",
"162 303 OFFCURVE",
"191 303 CURVE SMOOTH",
"220 303 OFFCURVE",
"241 324 OFFCURVE",
"241 354 CURVE SMOOTH",
"241 650 LINE SMOOTH",
"241 680 OFFCURVE",
"220 701 OFFCURVE",
"191 701 CURVE SMOOTH"
);
},
{
closed = 1;
nodes = (
"665 623 LINE SMOOTH",
"681 647 OFFCURVE",
"677 677 OFFCURVE",
"653 692 CURVE SMOOTH",
"628 709 OFFCURVE",
"599 703 OFFCURVE",
"582 678 CURVE SMOOTH",
"184 77 LINE SMOOTH",
"168 53 OFFCURVE",
"172 23 OFFCURVE",
"196 8 CURVE SMOOTH",
"221 -9 OFFCURVE",
"250 -3 OFFCURVE",
"267 22 CURVE SMOOTH"
);
},
{
closed = 1;
nodes = (
"746 90 LINE SMOOTH",
"742 90 OFFCURVE",
"741 93 OFFCURVE",
"744 96 CURVE SMOOTH",
"797 154 OFFCURVE",
"851 220 OFFCURVE",
"851 280 CURVE SMOOTH",
"851 331 OFFCURVE",
"814 403 OFFCURVE",
"722 403 CURVE SMOOTH",
"682 403 OFFCURVE",
"639 383 OFFCURVE",
"617 365 CURVE SMOOTH",
"594 347 OFFCURVE",
"584 317 OFFCURVE",
"602 294 CURVE SMOOTH",
"615 277 OFFCURVE",
"649 273 OFFCURVE",
"666 288 CURVE SMOOTH",
"691 310 OFFCURVE",
"720 314 OFFCURVE",
"741 295 CURVE SMOOTH",
"780 258 OFFCURVE",
"674 146 OFFCURVE",
"608 84 CURVE",
"603 79 LINE",
"594 70 OFFCURVE",
"589 59 OFFCURVE",
"589 45 CURVE SMOOTH",
"589 19 OFFCURVE",
"608 0 OFFCURVE",
"635 0 CURVE",
"807 0 LINE",
"834 0 OFFCURVE",
"853 19 OFFCURVE",
"853 45 CURVE SMOOTH",
"853 71 OFFCURVE",
"834 90 OFFCURVE",
"807 90 CURVE SMOOTH"
);
}
);
width = 923;
}
);
leftMetricsKey = one.numr;
rightMetricsKey = one.numr;
unicode = 00BD;
},
{
glyphname = onequarter;
lastChange = "2013-12-18 08:32:29 +0400";
layers = (
{
layerId = "4FD7A5AB-3C0B-49D1-A419-889C157412FC";
rightMetricsKey = four;
name = Bold;
paths = (
{
closed = 1;
nodes = (
"178 701 OFFCURVE",
"170 699 OFFCURVE",
"163 696 CURVE SMOOTH",
"157 693 LINE",
"61 638 LINE SMOOTH",
"36 624 OFFCURVE",
"28 594 OFFCURVE",
"43 569 CURVE SMOOTH",
"58 544 OFFCURVE",
"87 538 OFFCURVE",
"112 552 CURVE SMOOTH",
"130 562 LINE SMOOTH",
"133 564 OFFCURVE",
"136 563 OFFCURVE",
"136 559 CURVE SMOOTH",
"136 354 LINE SMOOTH",
"136 324 OFFCURVE",
"157 303 OFFCURVE",
"186 303 CURVE SMOOTH",
"215 303 OFFCURVE",
"236 324 OFFCURVE",
"236 354 CURVE SMOOTH",
"236 650 LINE SMOOTH",
"236 680 OFFCURVE",
"215 701 OFFCURVE",
"186 701 CURVE SMOOTH"
);
},
{
closed = 1;
nodes = (
"660 623 LINE SMOOTH",
"676 647 OFFCURVE",
"672 677 OFFCURVE",
"648 692 CURVE SMOOTH",
"623 709 OFFCURVE",
"594 703 OFFCURVE",
"577 678 CURVE SMOOTH",
"179 77 LINE SMOOTH",
"163 53 OFFCURVE",
"167 23 OFFCURVE",
"191 8 CURVE SMOOTH",
"216 -9 OFFCURVE",
"245 -3 OFFCURVE",
"262 22 CURVE SMOOTH"
);
},
{
closed = 1;
nodes = (
"748 165 LINE SMOOTH",
"745 165 OFFCURVE",
"743 167 OFFCURVE",
"743 170 CURVE SMOOTH",
"743 350 LINE SMOOTH",
"743 380 OFFCURVE",
"722 401 OFFCURVE",
"693 401 CURVE SMOOTH",
"689.355 401 OFFCURVE",
"685.836 400.668 OFFCURVE",
"682.47 400.028 CURVE",
"669.355 398.723 OFFCURVE",
"656.801 391.908 OFFCURVE",
"648 380 CURVE SMOOTH",
"473 148 LINE SMOOTH",
"456 125 OFFCURVE",
"458 95 OFFCURVE",
"480 77 CURVE",
"487.85 71.854 LINE",
"495.527 67.4586 OFFCURVE",
"504.736 65 OFFCURVE",
"515 65 CURVE SMOOTH",
"638 65 LINE SMOOTH",
"641 65 OFFCURVE",
"643 63 OFFCURVE",
"643 60 CURVE SMOOTH",
"643 51 LINE SMOOTH",
"643 21 OFFCURVE",
"664 0 OFFCURVE",
"693 0 CURVE SMOOTH",
"722 0 OFFCURVE",
"743 21 OFFCURVE",
"743 51 CURVE SMOOTH",
"743 60 LINE SMOOTH",
"743 63 OFFCURVE",
"745 65 OFFCURVE",
"748 65 CURVE SMOOTH",
"759 65 LINE SMOOTH",
"789 65 OFFCURVE",
"810 86 OFFCURVE",
"810 115 CURVE SMOOTH",
"810 144 OFFCURVE",
"789 165 OFFCURVE",
"759 165 CURVE SMOOTH"
);
},
{
closed = 1;
nodes = (
"619 165 LINE SMOOTH",
"615 165 OFFCURVE",
"613 168 OFFCURVE",
"616 171 CURVE SMOOTH",
"637 199 LINE SMOOTH",
"640 203 OFFCURVE",
"643 202 OFFCURVE",
"643 197 CURVE SMOOTH",
"643 170 LINE SMOOTH",
"643 167 OFFCURVE",
"641 165 OFFCURVE",
"638 165 CURVE SMOOTH"
);
}
);
width = 890;
}
);
leftMetricsKey = one.numr;
rightMetricsKey = one.numr;
unicode = 00BC;
},
{
glyphname = threequarters;
lastChange = "2013-12-18 08:32:29 +0400";
layers = (
{
layerId = "4FD7A5AB-3C0B-49D1-A419-889C157412FC";
rightMetricsKey = four;
name = Bold;
paths = (
{
closed = 1;
nodes = (
"294 494 OFFCURVE",
"264 538 OFFCURVE",
"214 555 CURVE SMOOTH",
"211 556 OFFCURVE",
"210 559 OFFCURVE",
"213 562 CURVE SMOOTH",
"266 622 LINE",
"274.411 630.376 OFFCURVE",
"279 641.222 OFFCURVE",
"279 654 CURVE SMOOTH",
"279 681 OFFCURVE",
"260 700 OFFCURVE",
"233 700 CURVE SMOOTH",
"86 700 LINE SMOOTH",
"59 700 OFFCURVE",
"40 682 OFFCURVE",
"40 656 CURVE SMOOTH",
"40 629 OFFCURVE",
"59 610 OFFCURVE",
"86 610 CURVE SMOOTH",
"127 610 LINE SMOOTH",
"132 610 OFFCURVE",
"133 607 OFFCURVE",
"130 604 CURVE SMOOTH",
"77 544 LINE SMOOTH",
"61 525 OFFCURVE",
"60 498 OFFCURVE",
"79 481 CURVE SMOOTH",
"93.07 468.337 OFFCURVE",
"110.605 464.582 OFFCURVE",
"126.033 470.781 CURVE",
"131 473 LINE",
"154 485 OFFCURVE",
"203 484 OFFCURVE",
"205 438 CURVE SMOOTH",
"206 409 OFFCURVE",
"184 386 OFFCURVE",
"154 386 CURVE SMOOTH",
"143 386 OFFCURVE",
"128 390 OFFCURVE",
"117 395 CURVE SMOOTH",
"102 402 OFFCURVE",
"80 399 OFFCURVE",
"68 381 CURVE SMOOTH",
"54 360 OFFCURVE",
"60 333 OFFCURVE",
"81 318 CURVE SMOOTH",
"98 306 OFFCURVE",
"124 300 OFFCURVE",
"151 300 CURVE SMOOTH",
"220 300 OFFCURVE",
"297 351 OFFCURVE",
"295 438 CURVE SMOOTH"
);
},
{
closed = 1;
nodes = (
"658 623 LINE SMOOTH",
"674 647 OFFCURVE",
"670 677 OFFCURVE",
"646 692 CURVE SMOOTH",
"621 709 OFFCURVE",
"592 703 OFFCURVE",
"575 678 CURVE SMOOTH",
"177 77 LINE SMOOTH",
"161 53 OFFCURVE",
"165 23 OFFCURVE",
"189 8 CURVE SMOOTH",
"214 -9 OFFCURVE",
"243 -3 OFFCURVE",
"260 22 CURVE SMOOTH"
);
},
{
closed = 1;
nodes = (
"748 165 LINE SMOOTH",
"745 165 OFFCURVE",
"743 167 OFFCURVE",
"743 170 CURVE SMOOTH",
"743 350 LINE SMOOTH",
"743 380 OFFCURVE",
"722 401 OFFCURVE",
"693 401 CURVE SMOOTH",
"689.355 401 OFFCURVE",
"685.836 400.668 OFFCURVE",
"682.47 400.028 CURVE",
"669.355 398.723 OFFCURVE",
"656.801 391.908 OFFCURVE",
"648 380 CURVE SMOOTH",
"473 148 LINE SMOOTH",
"456 125 OFFCURVE",
"458 95 OFFCURVE",
"480 77 CURVE",
"487.85 71.854 LINE",
"495.527 67.459 OFFCURVE",
"504.736 65 OFFCURVE",
"515 65 CURVE SMOOTH",
"638 65 LINE SMOOTH",
"641 65 OFFCURVE",
"643 63 OFFCURVE",
"643 60 CURVE SMOOTH",
"643 51 LINE SMOOTH",
"643 21 OFFCURVE",
"664 0 OFFCURVE",
"693 0 CURVE SMOOTH",
"722 0 OFFCURVE",
"743 21 OFFCURVE",
"743 51 CURVE SMOOTH",
"743 60 LINE SMOOTH",
"743 63 OFFCURVE",
"745 65 OFFCURVE",
"748 65 CURVE SMOOTH",
"759 65 LINE SMOOTH",
"789 65 OFFCURVE",
"810 86 OFFCURVE",
"810 115 CURVE SMOOTH",
"810 144 OFFCURVE",
"789 165 OFFCURVE",
"759 165 CURVE SMOOTH"
);
},
{
closed = 1;
nodes = (
"619 165 LINE SMOOTH",
"615 165 OFFCURVE",
"613 168 OFFCURVE",
"616 171 CURVE SMOOTH",
"637 199 LINE SMOOTH",
"640 203 OFFCURVE",
"643 202 OFFCURVE",
"643 197 CURVE SMOOTH",
"643 170 LINE SMOOTH",
"643 167 OFFCURVE",
"641 165 OFFCURVE",
"638 165 CURVE SMOOTH"
);
}
);
width = 890;
}
);
leftMetricsKey = three.numr;
rightMetricsKey = three.numr;
unicode = 00BE;
},
{
glyphname = onesuperior;
lastChange = "2013-12-18 08:32:29 +0400";
layers = (
{
layerId = "4FD7A5AB-3C0B-49D1-A419-889C157412FC";
leftMetricsKey = one;
rightMetricsKey = one;
name = Bold;
paths = (
{
closed = 1;
nodes = (
"183 701 OFFCURVE",
"175 699 OFFCURVE",
"168 696 CURVE SMOOTH",
"162 693 LINE",
"66 638 LINE SMOOTH",
"41 624 OFFCURVE",
"33 594 OFFCURVE",
"48 569 CURVE SMOOTH",
"63 544 OFFCURVE",
"92 538 OFFCURVE",
"117 552 CURVE SMOOTH",
"135 562 LINE SMOOTH",
"138 564 OFFCURVE",
"141 563 OFFCURVE",
"141 559 CURVE SMOOTH",
"141 354 LINE SMOOTH",
"141 324 OFFCURVE",
"162 303 OFFCURVE",
"191 303 CURVE SMOOTH",
"220 303 OFFCURVE",
"241 324 OFFCURVE",
"241 354 CURVE SMOOTH",
"241 650 LINE SMOOTH",
"241 680 OFFCURVE",
"220 701 OFFCURVE",
"191 701 CURVE SMOOTH"
);
}
);
width = 331;
}
);
leftMetricsKey = one;
rightMetricsKey = one;
unicode = 00B9;
},
{
glyphname = twosuperior;
lastChange = "2013-12-18 08:32:29 +0400";
layers = (
{
layerId = "4FD7A5AB-3C0B-49D1-A419-889C157412FC";
leftMetricsKey = two;
rightMetricsKey = two;
name = Bold;
paths = (
{
closed = 1;
nodes = (
"207 389 LINE SMOOTH",
"203 389 OFFCURVE",
"202 392 OFFCURVE",
"205 395 CURVE SMOOTH",
"258 453 OFFCURVE",
"312 519 OFFCURVE",
"312 579 CURVE SMOOTH",
"312 630 OFFCURVE",
"275 702 OFFCURVE",
"183 702 CURVE SMOOTH",
"143 702 OFFCURVE",
"100 682 OFFCURVE",
"78 664 CURVE SMOOTH",
"55 646 OFFCURVE",
"45 616 OFFCURVE",
"63 593 CURVE SMOOTH",
"76 576 OFFCURVE",
"110 572 OFFCURVE",
"127 587 CURVE SMOOTH",
"152 609 OFFCURVE",
"181 613 OFFCURVE",
"202 594 CURVE SMOOTH",
"241 557 OFFCURVE",
"135 445 OFFCURVE",
"69 383 CURVE",
"64 378 LINE",
"55 369 OFFCURVE",
"50 358 OFFCURVE",
"50 344 CURVE SMOOTH",
"50 318 OFFCURVE",
"69 299 OFFCURVE",
"96 299 CURVE",
"268 299 LINE",
"295 299 OFFCURVE",
"314 318 OFFCURVE",
"314 344 CURVE SMOOTH",
"314 370 OFFCURVE",
"295 389 OFFCURVE",
"268 389 CURVE SMOOTH"
);
}
);
width = 384;
}
);
leftMetricsKey = two;
rightMetricsKey = two;
unicode = 00B2;
},
{
glyphname = threesuperior;
lastChange = "2013-12-18 08:32:30 +0400";
layers = (
{
layerId = "4FD7A5AB-3C0B-49D1-A419-889C157412FC";
leftMetricsKey = three;
rightMetricsKey = three;
name = Bold;
paths = (
{
closed = 1;
nodes = (
"294 494 OFFCURVE",
"264 538 OFFCURVE",
"214 555 CURVE SMOOTH",
"211 556 OFFCURVE",
"210 559 OFFCURVE",
"213 562 CURVE SMOOTH",
"266 622 LINE",
"274.411 630.376 OFFCURVE",
"279 641.222 OFFCURVE",
"279 654 CURVE SMOOTH",
"279 681 OFFCURVE",
"260 700 OFFCURVE",
"233 700 CURVE SMOOTH",
"86 700 LINE SMOOTH",
"59 700 OFFCURVE",
"40 682 OFFCURVE",
"40 656 CURVE SMOOTH",
"40 629 OFFCURVE",
"59 610 OFFCURVE",
"86 610 CURVE SMOOTH",
"127 610 LINE SMOOTH",
"132 610 OFFCURVE",
"133 607 OFFCURVE",
"130 604 CURVE SMOOTH",
"77 544 LINE SMOOTH",
"61 525 OFFCURVE",
"60 498 OFFCURVE",
"79 481 CURVE SMOOTH",
"93.0703 468.337 OFFCURVE",
"110.605 464.582 OFFCURVE",
"126.033 470.781 CURVE",
"131 473 LINE",
"154 485 OFFCURVE",
"203 484 OFFCURVE",
"205 438 CURVE SMOOTH",
"206 409 OFFCURVE",
"184 386 OFFCURVE",
"154 386 CURVE SMOOTH",
"143 386 OFFCURVE",
"128 390 OFFCURVE",
"117 395 CURVE SMOOTH",
"102 402 OFFCURVE",
"80 399 OFFCURVE",
"68 381 CURVE SMOOTH",
"54 360 OFFCURVE",
"60 333 OFFCURVE",
"81 318 CURVE SMOOTH",
"98 306 OFFCURVE",
"124 300 OFFCURVE",
"151 300 CURVE SMOOTH",
"220 300 OFFCURVE",
"297 351 OFFCURVE",
"295 438 CURVE SMOOTH"
);
}
);
width = 365;
}
);
leftMetricsKey = three;
rightMetricsKey = three;
unicode = 00B3;
},
{
glyphname = asterisk;
lastChange = "2013-12-18 08:32:30 +0400";
layers = (
{
layerId = "4FD7A5AB-3C0B-49D1-A419-889C157412FC";
name = Bold;
paths = (
{
closed = 1;
nodes = (
"151 417 LINE SMOOTH",
"149 397 OFFCURVE",
"162 382 OFFCURVE",
"181 382 CURVE SMOOTH",
"201 382 OFFCURVE",
"215 397 OFFCURVE",
"213 417 CURVE SMOOTH",
"204 496 LINE SMOOTH",
"203 500 OFFCURVE",
"206 502 OFFCURVE",
"210 499 CURVE SMOOTH",
"275 451 LINE SMOOTH",
"291 440 OFFCURVE",
"311 444 OFFCURVE",
"321 461 CURVE SMOOTH",
"331 478 OFFCURVE",
"325 498 OFFCURVE",
"306 506 CURVE SMOOTH",
"233 539 LINE SMOOTH",
"229 540 OFFCURVE",
"229 544 OFFCURVE",
"233 545 CURVE SMOOTH",
"306 578 LINE SMOOTH",
"323 585 OFFCURVE",
"333 602 OFFCURVE",
"321 623 CURVE SMOOTH",
"311 640 OFFCURVE",
"291 644 OFFCURVE",
"275 632 CURVE SMOOTH",
"210 585 LINE SMOOTH",
"206 582 OFFCURVE",
"203 584 OFFCURVE",
"204 588 CURVE SMOOTH",
"213 667 LINE SMOOTH",
"215 687 OFFCURVE",
"202 702 OFFCURVE",
"183 702 CURVE SMOOTH",
"163 702 OFFCURVE",
"149 687 OFFCURVE",
"151 667 CURVE SMOOTH",
"160 588 LINE SMOOTH",
"161 584 OFFCURVE",
"158 582 OFFCURVE",
"154 585 CURVE SMOOTH",
"89 633 LINE SMOOTH",
"73 644 OFFCURVE",
"53 640 OFFCURVE",
"43 623 CURVE SMOOTH",
"33 606 OFFCURVE",
"39 586 OFFCURVE",
"58 578 CURVE SMOOTH",
"131 545 LINE SMOOTH",
"135 544 OFFCURVE",
"135 540 OFFCURVE",
"131 539 CURVE SMOOTH",
"58 506 LINE SMOOTH",
"41 499 OFFCURVE",
"31 482 OFFCURVE",
"43 461 CURVE SMOOTH",
"53 444 OFFCURVE",
"73 440 OFFCURVE",
"89 452 CURVE SMOOTH",
"154 499 LINE SMOOTH",
"158 502 OFFCURVE",
"161 500 OFFCURVE",
"160 496 CURVE SMOOTH"
);
}
);
width = 363.266;
}
);
unicode = 002A;
},
{
glyphname = backslash;
lastChange = "2013-12-18 08:32:29 +0400";
layers = (
{
layerId = "4FD7A5AB-3C0B-49D1-A419-889C157412FC";
name = Bold;
paths = (
{
closed = 1;
nodes = (
"32 782 OFFCURVE",
"22 754 OFFCURVE",
"35 727 CURVE SMOOTH",
"440 -104 LINE SMOOTH",
"453 -131 OFFCURVE",
"482 -141 OFFCURVE",
"507 -128 CURVE SMOOTH",
"534 -115 OFFCURVE",
"544 -87 OFFCURVE",
"531 -60 CURVE SMOOTH",
"125 771 LINE SMOOTH",
"112 798 OFFCURVE",
"84 808 OFFCURVE",
"58 795 CURVE SMOOTH"
);
},
{
closed = 1;
nodes = (
"32 782 OFFCURVE",
"22 754 OFFCURVE",
"35 727 CURVE SMOOTH",
"440 -104 LINE SMOOTH",
"453 -131 OFFCURVE",
"482 -141 OFFCURVE",
"507 -128 CURVE SMOOTH",
"534 -115 OFFCURVE",
"544 -87 OFFCURVE",
"531 -60 CURVE SMOOTH",
"125 771 LINE SMOOTH",
"112 798 OFFCURVE",
"84 808 OFFCURVE",
"58 795 CURVE SMOOTH"
);
}
);
width = 567.654;
}
);
unicode = 005C;
},
{
glyphname = bullet;
lastChange = "2013-12-18 08:32:29 +0400";
layers = (
{
layerId = "4FD7A5AB-3C0B-49D1-A419-889C157412FC";
name = Bold;
paths = (
{
closed = 1;
nodes = (
"252 211 OFFCURVE",
"316 273 OFFCURVE",
"316 351 CURVE SMOOTH",
"316 353 LINE SMOOTH",
"316 431 OFFCURVE",
"251 493 OFFCURVE",
"174 493 CURVE SMOOTH",
"98 493 OFFCURVE",
"33 431 OFFCURVE",
"33 353 CURVE SMOOTH",
"33 351 LINE SMOOTH",
"33 273 OFFCURVE",
"97 211 OFFCURVE",
"174 211 CURVE SMOOTH"
);
}
);
width = 349;
}
);
unicode = 2022;
},
{
glyphname = colon;
lastChange = "2013-12-18 08:32:29 +0400";
layers = (
{
layerId = "4FD7A5AB-3C0B-49D1-A419-889C157412FC";
name = Bold;
paths = (
{
closed = 1;
nodes = (
"70 451 LINE SMOOTH",
"70 412 OFFCURVE",
"91 391 OFFCURVE",
"130 391 CURVE SMOOTH",
"143 391 LINE SMOOTH",
"182 391 OFFCURVE",
"203 412 OFFCURVE",
"203 451 CURVE SMOOTH",
"203 468 LINE SMOOTH",
"203 507 OFFCURVE",
"182 528 OFFCURVE",
"143 528 CURVE SMOOTH",
"130 528 LINE SMOOTH",
"91 528 OFFCURVE",
"70 507 OFFCURVE",
"70 468 CURVE SMOOTH"
);
},
{
closed = 1;
nodes = (
"70 60 LINE SMOOTH",
"70 21 OFFCURVE",
"91 0 OFFCURVE",
"130 0 CURVE SMOOTH",
"143 0 LINE SMOOTH",
"182 0 OFFCURVE",
"203 21 OFFCURVE",
"203 60 CURVE SMOOTH",
"203 77 LINE SMOOTH",
"203 116 OFFCURVE",
"182 137 OFFCURVE",
"143 137 CURVE SMOOTH",
"130 137 LINE SMOOTH",
"91 137 OFFCURVE",
"70 116 OFFCURVE",
"70 77 CURVE SMOOTH"
);
}
);
width = 273;
}
);
unicode = 003A;
},
{
glyphname = comma;
lastChange = "2013-12-18 08:32:29 +0400";
layers = (
{
layerId = "4FD7A5AB-3C0B-49D1-A419-889C157412FC";
name = Bold;
paths = (
{
closed = 1;
nodes = (
"61 -135 OFFCURVE",
"87 -145 OFFCURVE",
"118 -135 CURVE SMOOTH",
"183 -115 OFFCURVE",
"217 -68 OFFCURVE",
"217 21 CURVE SMOOTH",
"217 76 LINE SMOOTH",
"217 111 OFFCURVE",
"191 137 OFFCURVE",
"156 137 CURVE SMOOTH",
"145 137 LINE SMOOTH",
"110 137 OFFCURVE",
"84 111 OFFCURVE",
"84 76 CURVE SMOOTH",
"84 61 LINE SMOOTH",
"84 26 OFFCURVE",
"105 0 OFFCURVE",
"135 0 CURVE",
"138 -35 OFFCURVE",
"126 -60 OFFCURVE",
"98 -77 CURVE SMOOTH",
"72 -93 OFFCURVE",
"53 -104 OFFCURVE",
"57 -120 CURVE SMOOTH"
);
}
);
width = 275;
}
);
unicode = 002C;
},
{
glyphname = ellipsis;
lastChange = "2013-12-18 08:32:29 +0400";
layers = (
{
layerId = "4FD7A5AB-3C0B-49D1-A419-889C157412FC";
name = Bold;
paths = (
{
closed = 1;
nodes = (
"584 60 LINE SMOOTH",
"584 21 OFFCURVE",
"605 0 OFFCURVE",
"644 0 CURVE SMOOTH",
"654 0 LINE SMOOTH",
"693 0 OFFCURVE",
"714 21 OFFCURVE",
"714 60 CURVE SMOOTH",
"714 74 LINE SMOOTH",
"714 113 OFFCURVE",
"693 134 OFFCURVE",
"654 134 CURVE SMOOTH",
"644 134 LINE SMOOTH",
"605 134 OFFCURVE",
"584 113 OFFCURVE",
"584 74 CURVE SMOOTH"
);
},
{
closed = 1;
nodes = (
"321 60 LINE SMOOTH",
"321 21 OFFCURVE",
"342 0 OFFCURVE",
"381 0 CURVE SMOOTH",
"391 0 LINE SMOOTH",
"430 0 OFFCURVE",
"451 21 OFFCURVE",
"451 60 CURVE SMOOTH",
"451 74 LINE SMOOTH",
"451 113 OFFCURVE",
"430 134 OFFCURVE",
"391 134 CURVE SMOOTH",
"381 134 LINE SMOOTH",
"342 134 OFFCURVE",
"321 113 OFFCURVE",
"321 74 CURVE SMOOTH"
);
},
{
closed = 1;
nodes = (
"58 60 LINE SMOOTH",
"58 21 OFFCURVE",
"79 0 OFFCURVE",
"118 0 CURVE SMOOTH",
"128 0 LINE SMOOTH",
"167 0 OFFCURVE",
"188 21 OFFCURVE",
"188 60 CURVE SMOOTH",
"188 74 LINE SMOOTH",
"188 113 OFFCURVE",
"167 134 OFFCURVE",
"128 134 CURVE SMOOTH",
"118 134 LINE SMOOTH",
"79 134 OFFCURVE",
"58 113 OFFCURVE",
"58 74 CURVE SMOOTH"
);
}
);
width = 772;
}
);
unicode = 2026;
},
{
glyphname = exclam;
lastChange = "2013-12-18 08:32:29 +0400";
layers = (
{
layerId = "4FD7A5AB-3C0B-49D1-A419-889C157412FC";
name = Bold;
paths = (
{
closed = 1;
nodes = (
"97 259 LINE SMOOTH",
"99 234 OFFCURVE",
"112 221 OFFCURVE",
"134 221 CURVE SMOOTH",
"156 221 OFFCURVE",
"168 234 OFFCURVE",
"170 259 CURVE SMOOTH",
"198 627 LINE SMOOTH",
"202 668 OFFCURVE",
"173 700 OFFCURVE",
"133 700 CURVE SMOOTH",
"93 700 OFFCURVE",
"65 668 OFFCURVE",
"68 627 CURVE SMOOTH"
);
},
{
closed = 1;
nodes = (
"67 60 LINE SMOOTH",
"67 21 OFFCURVE",
"88 0 OFFCURVE",
"127 0 CURVE SMOOTH",
"140 0 LINE SMOOTH",
"179 0 OFFCURVE",
"200 21 OFFCURVE",
"200 60 CURVE SMOOTH",
"200 77 LINE SMOOTH",
"200 116 OFFCURVE",
"179 137 OFFCURVE",
"140 137 CURVE SMOOTH",
"127 137 LINE SMOOTH",
"88 137 OFFCURVE",
"67 116 OFFCURVE",
"67 77 CURVE SMOOTH"
);
}
);
width = 267;
}
);
unicode = 0021;
},
{
glyphname = exclamdown;
lastChange = "2013-12-18 08:32:29 +0400";
layers = (
{
layerId = "4FD7A5AB-3C0B-49D1-A419-889C157412FC";
name = Bold;
paths = (
{
closed = 1;
nodes = (
"70 32 OFFCURVE",
"98 0 OFFCURVE",
"138 0 CURVE SMOOTH",
"178 0 OFFCURVE",
"207 32 OFFCURVE",
"203 73 CURVE SMOOTH",
"175 441 LINE SMOOTH",
"173 466 OFFCURVE",
"161 479 OFFCURVE",
"139 479 CURVE SMOOTH",
"117 479 OFFCURVE",
"104 466 OFFCURVE",
"102 441 CURVE SMOOTH",
"73 73 LINE SMOOTH"
);
},
{
closed = 1;
nodes = (
"72 584 OFFCURVE",
"93 563 OFFCURVE",
"132 563 CURVE SMOOTH",
"145 563 LINE SMOOTH",
"184 563 OFFCURVE",
"205 584 OFFCURVE",
"205 623 CURVE SMOOTH",
"205 640 LINE SMOOTH",
"205 679 OFFCURVE",
"184 700 OFFCURVE",
"145 700 CURVE SMOOTH",
"132 700 LINE SMOOTH",
"93 700 OFFCURVE",
"72 679 OFFCURVE",
"72 640 CURVE SMOOTH",
"72 623 LINE SMOOTH"
);
}
);
width = 277;
}
);
unicode = 00A1;
},
{
glyphname = numbersign;
lastChange = "2013-12-18 08:32:29 +0400";
layers = (
{
layerId = "4FD7A5AB-3C0B-49D1-A419-889C157412FC";
name = Bold;
paths = (
{
closed = 1;
nodes = (
"110 67 LINE SMOOTH",
"103 30 OFFCURVE",
"126 0 OFFCURVE",
"161 0 CURVE SMOOTH",
"188 0 OFFCURVE",
"208 17 OFFCURVE",
"212 43 CURVE SMOOTH",
"231 156 LINE SMOOTH",
"232 159 OFFCURVE",
"234 161 OFFCURVE",
"237 161 CURVE SMOOTH",
"391 161 LINE SMOOTH",
"394 161 OFFCURVE",
"396 159 OFFCURVE",
"395 156 CURVE SMOOTH",
"380 67 LINE SMOOTH",
"373 30 OFFCURVE",
"396 0 OFFCURVE",
"432 0 CURVE SMOOTH",
"458 0 OFFCURVE",
"478 17 OFFCURVE",
"482 43 CURVE SMOOTH",
"502 156 LINE SMOOTH",
"503 159 OFFCURVE",
"505 161 OFFCURVE",
"508 161 CURVE SMOOTH",
"567 161 LINE SMOOTH",
"598 161 OFFCURVE",
"621 182 OFFCURVE",
"621 211 CURVE SMOOTH",
"621 242 OFFCURVE",
"598 265 OFFCURVE",
"567 265 CURVE SMOOTH",
"526 265 LINE SMOOTH",
"523 265 OFFCURVE",
"521 267 OFFCURVE",
"522 270 CURVE SMOOTH",
"549 434 LINE SMOOTH",
"550 437 OFFCURVE",
"552 439 OFFCURVE",
"555 439 CURVE SMOOTH",
"603 439 LINE SMOOTH",
"634 439 OFFCURVE",
"657 460 OFFCURVE",
"657 489 CURVE SMOOTH",
"657 520 OFFCURVE",
"634 543 OFFCURVE",
"603 543 CURVE SMOOTH",
"573 543 LINE SMOOTH",
"570 543 OFFCURVE",
"568 545 OFFCURVE",
"569 548 CURVE SMOOTH",
"583 633 LINE SMOOTH",
"590 670 OFFCURVE",
"567 700 OFFCURVE",
"532 700 CURVE SMOOTH",
"505 700 OFFCURVE",
"485 683 OFFCURVE",
"481 657 CURVE SMOOTH",
"463 548 LINE SMOOTH",
"462 545 OFFCURVE",
"460 543 OFFCURVE",
"457 543 CURVE SMOOTH",
"303 543 LINE SMOOTH",
"300 543 OFFCURVE",
"298 545 OFFCURVE",
"299 548 CURVE SMOOTH",
"313 633 LINE SMOOTH",
"320 670 OFFCURVE",
"297 700 OFFCURVE",
"261 700 CURVE SMOOTH",
"235 700 OFFCURVE",
"215 683 OFFCURVE",
"211 657 CURVE SMOOTH",
"192 548 LINE SMOOTH",
"191 545 OFFCURVE",
"189 543 OFFCURVE",
"186 543 CURVE SMOOTH",
"127 543 LINE SMOOTH",
"96 543 OFFCURVE",
"73 522 OFFCURVE",
"73 493 CURVE SMOOTH",
"73 462 OFFCURVE",
"96 439 OFFCURVE",
"127 439 CURVE SMOOTH",
"168 439 LINE SMOOTH",
"171 439 OFFCURVE",
"173 437 OFFCURVE",
"172 434 CURVE SMOOTH",
"145 270 LINE SMOOTH",
"144 267 OFFCURVE",
"142 265 OFFCURVE",
"139 265 CURVE SMOOTH",
"90 265 LINE SMOOTH",
"59 265 OFFCURVE",
"36 244 OFFCURVE",
"36 215 CURVE SMOOTH",
"36 184 OFFCURVE",
"59 161 OFFCURVE",
"90 161 CURVE SMOOTH",
"121 161 LINE SMOOTH",
"124 161 OFFCURVE",
"126 159 OFFCURVE",
"125 156 CURVE SMOOTH"
);
},
{
closed = 1;
nodes = (
"255 265 LINE SMOOTH",
"252 265 OFFCURVE",
"250 267 OFFCURVE",
"251 270 CURVE SMOOTH",
"279 434 LINE SMOOTH",
"280 437 OFFCURVE",
"282 439 OFFCURVE",
"285 439 CURVE SMOOTH",
"439 439 LINE SMOOTH",
"442 439 OFFCURVE",
"444 437 OFFCURVE",
"443 434 CURVE SMOOTH",
"415 270 LINE SMOOTH",
"414 267 OFFCURVE",
"412 265 OFFCURVE",
"409 265 CURVE SMOOTH"
);
}
);
width = 693;
}
);
unicode = 0023;
},
{
glyphname = period;
lastChange = "2013-12-18 08:32:29 +0400";
layers = (
{
layerId = "4FD7A5AB-3C0B-49D1-A419-889C157412FC";
name = Bold;
paths = (
{
closed = 1;
nodes = (
"58 61 LINE SMOOTH",
"58 22 OFFCURVE",
"79 1 OFFCURVE",
"118 1 CURVE SMOOTH",
"131 1 LINE SMOOTH",
"170 1 OFFCURVE",
"191 22 OFFCURVE",
"191 61 CURVE SMOOTH",
"191 78 LINE SMOOTH",
"191 117 OFFCURVE",
"170 138 OFFCURVE",
"131 138 CURVE SMOOTH",
"118 138 LINE SMOOTH",
"79 138 OFFCURVE",
"58 117 OFFCURVE",
"58 78 CURVE SMOOTH"
);
}
);
width = 249;
}
);
unicode = 002E;
},
{
glyphname = periodcentered;
lastChange = "2013-12-18 08:32:30 +0400";
layers = (
{
layerId = "4FD7A5AB-3C0B-49D1-A419-889C157412FC";
name = Bold;
paths = (
{
closed = 1;
nodes = (
"44 298 LINE SMOOTH",
"44 259 OFFCURVE",
"65 238 OFFCURVE",
"104 238 CURVE SMOOTH",
"117 238 LINE SMOOTH",
"156 238 OFFCURVE",
"177 259 OFFCURVE",
"177 298 CURVE SMOOTH",
"177 315 LINE SMOOTH",
"177 354 OFFCURVE",
"156 375 OFFCURVE",
"117 375 CURVE SMOOTH",
"104 375 LINE SMOOTH",
"65 375 OFFCURVE",
"44 354 OFFCURVE",
"44 315 CURVE SMOOTH"
);
}
);
width = 222;
}
);
unicode = 00B7;
},
{
glyphname = question;
lastChange = "2013-12-18 08:32:29 +0400";
layers = (
{
layerId = "4FD7A5AB-3C0B-49D1-A419-889C157412FC";
name = Bold;
paths = (
{
closed = 1;
nodes = (
"156 240 LINE SMOOTH",
"156 205 OFFCURVE",
"181 179 OFFCURVE",
"216 179 CURVE SMOOTH",
"251 179 OFFCURVE",
"276 205 OFFCURVE",
"276 240 CURVE SMOOTH",
"276 277 LINE SMOOTH",
"276 280 OFFCURVE",
"278 281 OFFCURVE",
"281 282 CURVE SMOOTH",
"396 300 OFFCURVE",
"482 371 OFFCURVE",
"482 504 CURVE SMOOTH",
"482 637 OFFCURVE",
"373 740 OFFCURVE",
"236 740 CURVE SMOOTH",
"162 740 OFFCURVE",
"96 711 OFFCURVE",
"48 662 CURVE SMOOTH",
"20 634 OFFCURVE",
"23 597 OFFCURVE",
"55 573 CURVE SMOOTH",
"85 550 OFFCURVE",
"118 564 OFFCURVE",
"139 583 CURVE SMOOTH",
"165 606 OFFCURVE",
"199 620 OFFCURVE",
"236 620 CURVE SMOOTH",
"307 620 OFFCURVE",
"362 571 OFFCURVE",
"362 504 CURVE SMOOTH",
"362 412 OFFCURVE",
"297 377 OFFCURVE",
"216 377 CURVE SMOOTH",
"181 377 OFFCURVE",
"156 351 OFFCURVE",
"156 316 CURVE SMOOTH"
);
},
{
closed = 1;
nodes = (
"211 137 LINE SMOOTH",
"172 137 OFFCURVE",
"151 116 OFFCURVE",
"151 77 CURVE SMOOTH",
"151 60 LINE SMOOTH",
"151 21 OFFCURVE",
"172 0 OFFCURVE",
"211 0 CURVE SMOOTH",
"224 0 LINE SMOOTH",
"263 0 OFFCURVE",
"284 21 OFFCURVE",
"284 60 CURVE SMOOTH",
"284 77 LINE SMOOTH",
"284 116 OFFCURVE",
"263 137 OFFCURVE",
"224 137 CURVE SMOOTH"
);
}
);
width = 527;
}
);
unicode = 003F;
},
{
glyphname = questiondown;
lastChange = "2013-12-18 08:32:29 +0400";
layers = (
{
layerId = "4FD7A5AB-3C0B-49D1-A419-889C157412FC";
name = Bold;
paths = (
{
closed = 1;
nodes = (
"179 204 OFFCURVE",
"204 178 OFFCURVE",
"239 178 CURVE SMOOTH",
"320 178 OFFCURVE",
"385 143 OFFCURVE",
"385 51 CURVE SMOOTH",
"385 -16 OFFCURVE",
"330 -65 OFFCURVE",
"259 -65 CURVE SMOOTH",
"222 -65 OFFCURVE",
"188 -51 OFFCURVE",
"162 -28 CURVE SMOOTH",
"141 -9 OFFCURVE",
"108 5 OFFCURVE",
"78 -18 CURVE SMOOTH",
"46 -42 OFFCURVE",
"43 -79 OFFCURVE",
"71 -107 CURVE SMOOTH",
"119 -156 OFFCURVE",
"185 -185 OFFCURVE",
"259 -185 CURVE SMOOTH",
"396 -185 OFFCURVE",
"505 -82 OFFCURVE",
"505 51 CURVE SMOOTH",
"505 184 OFFCURVE",
"419 255 OFFCURVE",
"304 273 CURVE SMOOTH",
"301 274 OFFCURVE",
"299 275 OFFCURVE",
"299 278 CURVE SMOOTH",
"299 315 LINE SMOOTH",
"299 350 OFFCURVE",
"274 376 OFFCURVE",
"239 376 CURVE SMOOTH",
"204 376 OFFCURVE",
"179 350 OFFCURVE",
"179 315 CURVE SMOOTH",
"179 239 LINE SMOOTH"
);
},
{
closed = 1;
nodes = (
"286 418 OFFCURVE",
"307 439 OFFCURVE",
"307 478 CURVE SMOOTH",
"307 495 LINE SMOOTH",
"307 534 OFFCURVE",
"286 555 OFFCURVE",
"247 555 CURVE SMOOTH",
"234 555 LINE SMOOTH",
"195 555 OFFCURVE",
"174 534 OFFCURVE",
"174 495 CURVE SMOOTH",
"174 478 LINE SMOOTH",
"174 439 OFFCURVE",
"195 418 OFFCURVE",
"234 418 CURVE SMOOTH",
"247 418 LINE SMOOTH"
);
}
);
width = 526;
}
);
unicode = 00BF;
},
{
glyphname = quotedbl;
lastChange = "2013-12-18 08:32:29 +0400";
layers = (
{
layerId = "4FD7A5AB-3C0B-49D1-A419-889C157412FC";
name = Bold;
paths = (
{
closed = 1;
nodes = (
"253 443 LINE SMOOTH",
"251 416 OFFCURVE",
"261 401 OFFCURVE",
"282 401 CURVE SMOOTH",
"303 401 OFFCURVE",
"316 412 OFFCURVE",
"324 434 CURVE SMOOTH",
"392 643 LINE SMOOTH",
"404 678 OFFCURVE",
"388 700 OFFCURVE",
"351 700 CURVE SMOOTH",
"322 700 LINE SMOOTH",
"290 700 OFFCURVE",
"273 684 OFFCURVE",
"270 652 CURVE SMOOTH"
);
},
{
closed = 1;
nodes = (
"34 442 LINE SMOOTH",
"32 416 OFFCURVE",
"42 401 OFFCURVE",
"63 401 CURVE SMOOTH",
"84 401 OFFCURVE",
"97 412 OFFCURVE",
"105 434 CURVE SMOOTH",
"173 643 LINE SMOOTH",
"184 678 OFFCURVE",
"168 700 OFFCURVE",
"131 700 CURVE SMOOTH",
"102 700 LINE SMOOTH",
"70 700 OFFCURVE",
"53 684 OFFCURVE",
"50 652 CURVE SMOOTH"
);
}
);
width = 429.929;
}
);
unicode = 0022;
},
{
glyphname = quotesingle;
lastChange = "2013-12-18 08:32:30 +0400";
layers = (
{
layerId = "4FD7A5AB-3C0B-49D1-A419-889C157412FC";
name = Bold;
paths = (
{
closed = 1;
nodes = (
"34 442 LINE SMOOTH",
"32 416 OFFCURVE",
"42 401 OFFCURVE",
"63 401 CURVE SMOOTH",
"85 401 OFFCURVE",
"98 412 OFFCURVE",
"106 434 CURVE SMOOTH",
"174 643 LINE SMOOTH",
"186 678 OFFCURVE",
"170 700 OFFCURVE",
"133 700 CURVE SMOOTH",
"102 700 LINE SMOOTH",
"70 700 OFFCURVE",
"53 684 OFFCURVE",
"50 652 CURVE SMOOTH"
);
}
);
width = 211.929;
}
);
unicode = 0027;
},
{
glyphname = semicolon;
lastChange = "2013-12-18 08:32:30 +0400";
layers = (
{
layerId = "4FD7A5AB-3C0B-49D1-A419-889C157412FC";
name = Bold;
paths = (
{
closed = 1;
nodes = (
"73 -136 OFFCURVE",
"96 -146 OFFCURVE",
"132 -135 CURVE SMOOTH",
"196 -114 OFFCURVE",
"229 -67 OFFCURVE",
"229 21 CURVE SMOOTH",
"229 77 LINE SMOOTH",
"229 116 OFFCURVE",
"208 137 OFFCURVE",
"169 137 CURVE SMOOTH",
"156 137 LINE SMOOTH",
"117 137 OFFCURVE",
"96 116 OFFCURVE",
"96 77 CURVE SMOOTH",
"96 60 LINE SMOOTH",
"96 21 OFFCURVE",
"114 0 OFFCURVE",
"147 0 CURVE",
"150 -33 OFFCURVE",
"139 -58 OFFCURVE",
"115 -74 CURVE SMOOTH",
"83 -95 OFFCURVE",
"64 -103 OFFCURVE",
"69 -120 CURVE SMOOTH"
);
},
{
closed = 1;
nodes = (
"96 451 LINE SMOOTH",
"96 412 OFFCURVE",
"117 391 OFFCURVE",
"156 391 CURVE SMOOTH",
"169 391 LINE SMOOTH",
"208 391 OFFCURVE",
"229 412 OFFCURVE",
"229 451 CURVE SMOOTH",
"229 468 LINE SMOOTH",
"229 507 OFFCURVE",
"208 528 OFFCURVE",
"169 528 CURVE SMOOTH",
"156 528 LINE SMOOTH",
"117 528 OFFCURVE",
"96 507 OFFCURVE",
"96 468 CURVE SMOOTH"
);
}
);
width = 299;
}
);
unicode = 003B;
},
{
glyphname = slash;
lastChange = "2013-12-18 08:32:29 +0400";
layers = (
{
layerId = "4FD7A5AB-3C0B-49D1-A419-889C157412FC";
name = Bold;
paths = (
{
closed = 1;
nodes = (
"484 808 OFFCURVE",
"456 798 OFFCURVE",
"443 771 CURVE SMOOTH",
"37 -60 LINE SMOOTH",
"24 -87 OFFCURVE",
"34 -115 OFFCURVE",
"61 -128 CURVE SMOOTH",
"86 -141 OFFCURVE",
"115 -131 OFFCURVE",
"128 -104 CURVE SMOOTH",
"533 727 LINE SMOOTH",
"546 754 OFFCURVE",
"536 782 OFFCURVE",
"510 795 CURVE SMOOTH"
);
},
{
closed = 1;
nodes = (
"484 808 OFFCURVE",
"456 798 OFFCURVE",
"443 771 CURVE SMOOTH",
"37 -60 LINE SMOOTH",
"24 -87 OFFCURVE",
"34 -115 OFFCURVE",
"61 -128 CURVE SMOOTH",
"86 -141 OFFCURVE",
"115 -131 OFFCURVE",
"128 -104 CURVE SMOOTH",
"533 727 LINE SMOOTH",
"546 754 OFFCURVE",
"536 782 OFFCURVE",
"510 795 CURVE SMOOTH"
);
}
);
width = 567.68;
}
);
unicode = 002F;
},
{
glyphname = underscore;
lastChange = "2013-12-18 08:32:29 +0400";
layers = (
{
layerId = "4FD7A5AB-3C0B-49D1-A419-889C157412FC";
name = Bold;
paths = (
{
closed = 1;
nodes = (
"-8 -140 OFFCURVE",
"12 -160 OFFCURVE",
"40 -160 CURVE SMOOTH",
"548 -160 LINE SMOOTH",
"576 -160 OFFCURVE",
"596 -141 OFFCURVE",
"596 -114 CURVE SMOOTH",
"596 -86 OFFCURVE",
"576 -66 OFFCURVE",
"548 -66 CURVE SMOOTH",
"40 -66 LINE SMOOTH",
"12 -66 OFFCURVE",
"-8 -86 OFFCURVE",
"-8 -113 CURVE SMOOTH"
);
}
);
width = 588;
}
);
unicode = 005F;
},
{
glyphname = braceleft;
lastChange = "2013-12-18 08:32:29 +0400";
layers = (
{
layerId = "4FD7A5AB-3C0B-49D1-A419-889C157412FC";
name = Bold;
paths = (
{
closed = 1;
nodes = (
"395 -78 OFFCURVE",
"381 -57 OFFCURVE",
"356 -48 CURVE SMOOTH",
"275 -19 OFFCURVE",
"263 13 OFFCURVE",
"263 76 CURVE SMOOTH",
"263 96 OFFCURVE",
"265 159 OFFCURVE",
"265 180 CURVE SMOOTH",
"265 258 OFFCURVE",
"228 295 OFFCURVE",
"161 317 CURVE",
"227 338 OFFCURVE",
"265 376 OFFCURVE",
"265 454 CURVE SMOOTH",
"265 475 OFFCURVE",
"263 538 OFFCURVE",
"263 558 CURVE SMOOTH",
"263 621 OFFCURVE",
"275 653 OFFCURVE",
"356 682 CURVE SMOOTH",
"381 691 OFFCURVE",
"395 711 OFFCURVE",
"389 734 CURVE SMOOTH",
"383 758 OFFCURVE",
"360 772 OFFCURVE",
"334 766 CURVE SMOOTH",
"189 731 OFFCURVE",
"151 669 OFFCURVE",
"151 575 CURVE SMOOTH",
"151 560 OFFCURVE",
"153 490 OFFCURVE",
"153 473 CURVE SMOOTH",
"153 395 OFFCURVE",
"113 363 OFFCURVE",
"60 363 CURVE SMOOTH",
"35 363 OFFCURVE",
"14 344 OFFCURVE",
"14 317 CURVE SMOOTH",
"14 290 OFFCURVE",
"35 271 OFFCURVE",
"60 271 CURVE SMOOTH",
"113 271 OFFCURVE",
"153 239 OFFCURVE",
"153 161 CURVE SMOOTH",
"153 144 OFFCURVE",
"151 74 OFFCURVE",
"151 59 CURVE SMOOTH",
"151 -35 OFFCURVE",
"189 -97 OFFCURVE",
"334 -132 CURVE SMOOTH",
"360 -138 OFFCURVE",
"382 -124 OFFCURVE",
"389 -101 CURVE SMOOTH"
);
}
);
width = 399.382;
}
);
unicode = 007B;
},
{
glyphname = braceright;
lastChange = "2013-12-18 08:32:29 +0400";
layers = (
{
layerId = "4FD7A5AB-3C0B-49D1-A419-889C157412FC";
name = Bold;
paths = (
{
closed = 1;
nodes = (
"17 -124 OFFCURVE",
"39 -138 OFFCURVE",
"65 -132 CURVE SMOOTH",
"210 -97 OFFCURVE",
"248 -35 OFFCURVE",
"248 59 CURVE SMOOTH",
"248 74 OFFCURVE",
"246 144 OFFCURVE",
"246 161 CURVE SMOOTH",
"246 239 OFFCURVE",
"286 271 OFFCURVE",
"339 271 CURVE SMOOTH",
"364 271 OFFCURVE",
"385 290 OFFCURVE",
"385 317 CURVE SMOOTH",
"385 344 OFFCURVE",
"364 363 OFFCURVE",
"339 363 CURVE SMOOTH",
"286 363 OFFCURVE",
"246 395 OFFCURVE",
"246 473 CURVE SMOOTH",
"246 490 OFFCURVE",
"248 560 OFFCURVE",
"248 575 CURVE SMOOTH",
"248 669 OFFCURVE",
"210 731 OFFCURVE",
"65 766 CURVE SMOOTH",
"39 772 OFFCURVE",
"16 758 OFFCURVE",
"10 734 CURVE SMOOTH",
"4 711 OFFCURVE",
"18 691 OFFCURVE",
"43 682 CURVE SMOOTH",
"124 653 OFFCURVE",
"136 621 OFFCURVE",
"136 558 CURVE SMOOTH",
"136 538 OFFCURVE",
"134 475 OFFCURVE",
"134 454 CURVE SMOOTH",
"134 376 OFFCURVE",
"172 338 OFFCURVE",
"238 317 CURVE",
"171 295 OFFCURVE",
"134 258 OFFCURVE",
"134 180 CURVE SMOOTH",
"134 159 OFFCURVE",
"136 96 OFFCURVE",
"136 76 CURVE SMOOTH",
"136 13 OFFCURVE",
"124 -19 OFFCURVE",
"43 -48 CURVE SMOOTH",
"18 -57 OFFCURVE",
"4 -78 OFFCURVE",
"10 -101 CURVE SMOOTH"
);
}
);
width = 399;
}
);
unicode = 007D;
},
{
glyphname = bracketleft;
lastChange = "2013-12-18 08:32:29 +0400";
layers = (
{
layerId = "4FD7A5AB-3C0B-49D1-A419-889C157412FC";
name = Bold;
paths = (
{
closed = 1;
nodes = (
"64 -82 LINE SMOOTH",
"64 -110 OFFCURVE",
"84 -130 OFFCURVE",
"112 -130 CURVE SMOOTH",
"323 -130 LINE SMOOTH",
"351 -130 OFFCURVE",
"371 -110 OFFCURVE",
"371 -83 CURVE SMOOTH",
"371 -55 OFFCURVE",
"351 -35 OFFCURVE",
"323 -35 CURVE SMOOTH",
"184 -35 LINE SMOOTH",
"181 -35 OFFCURVE",
"179 -33 OFFCURVE",
"179 -30 CURVE SMOOTH",
"179 660 LINE SMOOTH",
"179 663 OFFCURVE",
"181 665 OFFCURVE",
"184 665 CURVE SMOOTH",
"323 665 LINE SMOOTH",
"351 665 OFFCURVE",
"371 685 OFFCURVE",
"371 712 CURVE SMOOTH",
"371 740 OFFCURVE",
"351 760 OFFCURVE",
"323 760 CURVE SMOOTH",
"112 760 LINE SMOOTH",
"84 760 OFFCURVE",
"64 740 OFFCURVE",
"64 712 CURVE SMOOTH"
);
}
);
width = 382;
}
);
unicode = 005B;
},
{
glyphname = bracketright;
lastChange = "2013-12-18 08:32:30 +0400";
layers = (
{
layerId = "4FD7A5AB-3C0B-49D1-A419-889C157412FC";
name = Bold;
paths = (
{
closed = 1;
nodes = (
"318 740 OFFCURVE",
"298 760 OFFCURVE",
"270 760 CURVE SMOOTH",
"59 760 LINE SMOOTH",
"31 760 OFFCURVE",
"11 740 OFFCURVE",
"11 712 CURVE SMOOTH",
"11 685 OFFCURVE",
"31 665 OFFCURVE",
"59 665 CURVE SMOOTH",
"198 665 LINE SMOOTH",
"201 665 OFFCURVE",
"203 663 OFFCURVE",
"203 660 CURVE SMOOTH",
"203 -30 LINE SMOOTH",
"203 -33 OFFCURVE",
"201 -35 OFFCURVE",
"198 -35 CURVE SMOOTH",
"59 -35 LINE SMOOTH",
"31 -35 OFFCURVE",
"11 -55 OFFCURVE",
"11 -83 CURVE SMOOTH",
"11 -110 OFFCURVE",
"31 -130 OFFCURVE",
"59 -130 CURVE SMOOTH",
"270 -130 LINE SMOOTH",
"298 -130 OFFCURVE",
"318 -110 OFFCURVE",
"318 -82 CURVE SMOOTH",
"318 712 LINE SMOOTH"
);
}
);
width = 382;
}
);
unicode = 005D;
},
{
glyphname = parenleft;
lastChange = "2013-12-18 08:32:30 +0400";
layers = (
{
layerId = "4FD7A5AB-3C0B-49D1-A419-889C157412FC";
name = Bold;
paths = (
{
closed = 1;
nodes = (
"332 -100 CURVE SMOOTH",
"348 -77 OFFCURVE",
"342 -49 OFFCURVE",
"320 -32 CURVE SMOOTH",
"205 58 OFFCURVE",
"150 183 OFFCURVE",
"150 317 CURVE SMOOTH",
"150 451 OFFCURVE",
"205 576 OFFCURVE",
"320 666 CURVE SMOOTH",
"342 683 OFFCURVE",
"348 711 OFFCURVE",
"332 734 CURVE SMOOTH",
"332 735 LINE SMOOTH",
"317 758 OFFCURVE",
"288 766 OFFCURVE",
"264 750 CURVE SMOOTH",
"110 650 OFFCURVE",
"29 491 OFFCURVE",
"29 317 CURVE SMOOTH",
"29 143 OFFCURVE",
"110 -16 OFFCURVE",
"264 -116 CURVE SMOOTH",
"288 -132 OFFCURVE",
"317 -124 OFFCURVE"
);
}
);
width = 357.04;
}
);
unicode = 0028;
},
{
glyphname = parenright;
lastChange = "2013-12-18 08:32:30 +0400";
layers = (
{
layerId = "4FD7A5AB-3C0B-49D1-A419-889C157412FC";
name = Bold;
paths = (
{
closed = 1;
nodes = (
"69 -132 OFFCURVE",
"93 -116 CURVE SMOOTH",
"247 -16 OFFCURVE",
"328 143 OFFCURVE",
"328 317 CURVE SMOOTH",
"328 491 OFFCURVE",
"247 650 OFFCURVE",
"93 750 CURVE SMOOTH",
"69 766 OFFCURVE",
"40 758 OFFCURVE",
"25 735 CURVE SMOOTH",
"25 734 LINE SMOOTH",
"9 711 OFFCURVE",
"15 683 OFFCURVE",
"37 666 CURVE SMOOTH",
"152 576 OFFCURVE",
"207 451 OFFCURVE",
"207 317 CURVE SMOOTH",
"207 183 OFFCURVE",
"152 58 OFFCURVE",
"37 -32 CURVE SMOOTH",
"15 -49 OFFCURVE",
"9 -77 OFFCURVE",
"25 -100 CURVE SMOOTH",
"40 -124 OFFCURVE"
);
}
);
width = 357;
}
);
unicode = 0029;
},
{
glyphname = emdash;
lastChange = "2013-12-18 08:32:29 +0400";
layers = (
{
layerId = "4FD7A5AB-3C0B-49D1-A419-889C157412FC";
name = Bold;
paths = (
{
closed = 1;
nodes = (
"52 273 OFFCURVE",
"78 249 OFFCURVE",
"113 249 CURVE SMOOTH",
"777 249 LINE SMOOTH",
"812 249 OFFCURVE",
"838 273 OFFCURVE",
"838 307 CURVE SMOOTH",
"838 340 OFFCURVE",
"812 364 OFFCURVE",
"777 364 CURVE SMOOTH",
"113 364 LINE SMOOTH",
"78 364 OFFCURVE",
"52 340 OFFCURVE",
"52 307 CURVE SMOOTH"
);
}
);
width = 890;
}
);
unicode = 2014;
},
{
glyphname = endash;
lastChange = "2013-12-18 08:32:29 +0400";
layers = (
{
layerId = "4FD7A5AB-3C0B-49D1-A419-889C157412FC";
name = Bold;
paths = (
{
closed = 1;
nodes = (
"40 273 OFFCURVE",
"66 249 OFFCURVE",
"101 249 CURVE SMOOTH",
"395 249 LINE SMOOTH",
"430 249 OFFCURVE",
"456 273 OFFCURVE",
"456 307 CURVE SMOOTH",
"456 340 OFFCURVE",
"430 364 OFFCURVE",
"395 364 CURVE SMOOTH",
"101 364 LINE SMOOTH",
"66 364 OFFCURVE",
"40 340 OFFCURVE",
"40 307 CURVE SMOOTH"
);
}
);
width = 496;
}
);
unicode = 2013;
},
{
glyphname = hyphen;
lastChange = "2013-12-18 08:32:29 +0400";
layers = (
{
layerId = "4FD7A5AB-3C0B-49D1-A419-889C157412FC";
name = Bold;
paths = (
{
closed = 1;
nodes = (
"51 272 OFFCURVE",
"77 247 OFFCURVE",
"112 247 CURVE SMOOTH",
"286 247 LINE SMOOTH",
"321 247 OFFCURVE",
"347 271 OFFCURVE",
"347 305 CURVE SMOOTH",
"347 340 OFFCURVE",
"321 366 OFFCURVE",
"286 366 CURVE SMOOTH",
"112 366 LINE SMOOTH",
"77 366 OFFCURVE",
"51 341 OFFCURVE",
"51 307 CURVE SMOOTH"
);
}
);
width = 398;
}
);
unicode = 002D;
},
{
glyphname = guillemetleft;
lastChange = "2013-12-18 08:32:30 +0400";
layers = (
{
layerId = "4FD7A5AB-3C0B-49D1-A419-889C157412FC";
name = Bold;
paths = (
{
closed = 1;
nodes = (
"430 71 LINE SMOOTH",
"445 50 OFFCURVE",
"472 44 OFFCURVE",
"496 58 CURVE SMOOTH",
"525 75 OFFCURVE",
"532 109 OFFCURVE",
"512 136 CURVE SMOOTH",
"421 258 LINE SMOOTH",
"418 263 OFFCURVE",
"418 267 OFFCURVE",
"421 272 CURVE SMOOTH",
"509 390 LINE SMOOTH",
"531 418 OFFCURVE",
"524 453 OFFCURVE",
"493 469 CURVE SMOOTH",
"471 480 OFFCURVE",
"446 475 OFFCURVE",
"432 455 CURVE SMOOTH",
"311 291 LINE SMOOTH",
"299 274 OFFCURVE",
"299 253 OFFCURVE",
"311 236 CURVE SMOOTH"
);
},
{
closed = 1;
nodes = (
"179 71 LINE SMOOTH",
"193 52 OFFCURVE",
"218 42 OFFCURVE",
"245 58 CURVE SMOOTH",
"274 75 OFFCURVE",
"281 109 OFFCURVE",
"261 136 CURVE SMOOTH",
"170 258 LINE SMOOTH",
"167 263 OFFCURVE",
"167 267 OFFCURVE",
"170 272 CURVE SMOOTH",
"258 390 LINE SMOOTH",
"280 418 OFFCURVE",
"273 453 OFFCURVE",
"242 469 CURVE SMOOTH",
"220 481 OFFCURVE",
"195 475 OFFCURVE",
"181 455 CURVE SMOOTH",
"59 291 LINE SMOOTH",
"47 275 OFFCURVE",
"47 253 OFFCURVE",
"59 236 CURVE SMOOTH"
);
}
);
width = 573;
}
);
unicode = 00AB;
},
{
glyphname = guillemetright;
lastChange = "2013-12-18 08:32:30 +0400";
layers = (
{
layerId = "4FD7A5AB-3C0B-49D1-A419-889C157412FC";
name = Bold;
paths = (
{
closed = 1;
nodes = (
"274 253 OFFCURVE",
"274 274 OFFCURVE",
"262 291 CURVE SMOOTH",
"141 455 LINE SMOOTH",
"127 475 OFFCURVE",
"102 480 OFFCURVE",
"80 469 CURVE SMOOTH",
"49 453 OFFCURVE",
"42 418 OFFCURVE",
"64 390 CURVE SMOOTH",
"152 272 LINE SMOOTH",
"155 267 OFFCURVE",
"155 263 OFFCURVE",
"152 258 CURVE SMOOTH",
"61 136 LINE SMOOTH",
"41 109 OFFCURVE",
"48 75 OFFCURVE",
"77 58 CURVE SMOOTH",
"101 44 OFFCURVE",
"128 50 OFFCURVE",
"143 71 CURVE SMOOTH",
"262 236 LINE SMOOTH"
);
},
{
closed = 1;
nodes = (
"526 253 OFFCURVE",
"526 275 OFFCURVE",
"514 291 CURVE SMOOTH",
"392 455 LINE SMOOTH",
"378 475 OFFCURVE",
"353 481 OFFCURVE",
"331 469 CURVE SMOOTH",
"300 453 OFFCURVE",
"293 418 OFFCURVE",
"315 390 CURVE SMOOTH",
"403 272 LINE SMOOTH",
"406 267 OFFCURVE",
"406 263 OFFCURVE",
"403 258 CURVE SMOOTH",
"312 136 LINE SMOOTH",
"292 109 OFFCURVE",
"299 75 OFFCURVE",
"328 58 CURVE SMOOTH",
"355 42 OFFCURVE",
"380 52 OFFCURVE",
"394 71 CURVE SMOOTH",
"514 236 LINE SMOOTH"
);
}
);
width = 573;
}
);
unicode = 00BB;
},
{
glyphname = guilsinglleft;
lastChange = "2013-12-18 08:32:29 +0400";
layers = (
{
layerId = "4FD7A5AB-3C0B-49D1-A419-889C157412FC";
name = Bold;
paths = (
{
closed = 1;
nodes = (
"147 71 LINE SMOOTH",
"162 50 OFFCURVE",
"189 44 OFFCURVE",
"213 58 CURVE SMOOTH",
"242 75 OFFCURVE",
"249 109 OFFCURVE",
"229 136 CURVE SMOOTH",
"138 258 LINE SMOOTH",
"135 263 OFFCURVE",
"135 267 OFFCURVE",
"138 272 CURVE SMOOTH",
"226 390 LINE SMOOTH",
"248 418 OFFCURVE",
"241 453 OFFCURVE",
"210 469 CURVE SMOOTH",
"188 480 OFFCURVE",
"163 475 OFFCURVE",
"149 455 CURVE SMOOTH",
"28 291 LINE SMOOTH",
"16 274 OFFCURVE",
"16 253 OFFCURVE",
"28 236 CURVE SMOOTH"
);
}
);
width = 276.379;
}
);
unicode = 2039;
},
{
glyphname = guilsinglright;
lastChange = "2013-12-18 08:32:29 +0400";
layers = (
{
layerId = "4FD7A5AB-3C0B-49D1-A419-889C157412FC";
name = Bold;
paths = (
{
closed = 1;
nodes = (
"260 253 OFFCURVE",
"260 274 OFFCURVE",
"248 291 CURVE SMOOTH",
"127 455 LINE SMOOTH",
"113 475 OFFCURVE",
"88 480 OFFCURVE",
"66 469 CURVE SMOOTH",
"35 453 OFFCURVE",
"28 418 OFFCURVE",
"50 390 CURVE SMOOTH",
"138 272 LINE SMOOTH",
"141 267 OFFCURVE",
"141 263 OFFCURVE",
"138 258 CURVE SMOOTH",
"47 136 LINE SMOOTH",
"27 109 OFFCURVE",
"34 75 OFFCURVE",
"63 58 CURVE SMOOTH",
"87 44 OFFCURVE",
"114 50 OFFCURVE",
"129 71 CURVE SMOOTH",
"248 236 LINE SMOOTH"
);
}
);
width = 276;
}
);
unicode = 203A;
},
{
glyphname = quotedblbase;
lastChange = "2013-12-18 08:32:29 +0400";
layers = (
{
layerId = "4FD7A5AB-3C0B-49D1-A419-889C157412FC";
name = Bold;
paths = (
{
closed = 1;
nodes = (
"60 -135 OFFCURVE",
"86 -145 OFFCURVE",
"117 -135 CURVE SMOOTH",
"182 -115 OFFCURVE",
"216 -68 OFFCURVE",
"216 21 CURVE SMOOTH",
"216 76 LINE SMOOTH",
"216 111 OFFCURVE",
"190 137 OFFCURVE",
"155 137 CURVE SMOOTH",
"144 137 LINE SMOOTH",
"109 137 OFFCURVE",
"83 111 OFFCURVE",
"83 76 CURVE SMOOTH",
"83 61 LINE SMOOTH",
"83 30 OFFCURVE",
"100 6 OFFCURVE",
"125 1 CURVE SMOOTH",
"131 0 OFFCURVE",
"134 -3 OFFCURVE",
"134 -9 CURVE SMOOTH",
"135 -40 OFFCURVE",
"122 -62 OFFCURVE",
"97 -77 CURVE SMOOTH",
"71 -93 OFFCURVE",
"52 -104 OFFCURVE",
"56 -120 CURVE SMOOTH"
);
}
);
width = 274;
}
);
unicode = 201E;
},
{
glyphname = quotedblleft;
lastChange = "2013-12-18 08:32:29 +0400";
layers = (
{
layerId = "4FD7A5AB-3C0B-49D1-A419-889C157412FC";
name = Bold;
paths = (
{
closed = 1;
nodes = (
"204 695 OFFCURVE",
"178 706 OFFCURVE",
"146 696 CURVE SMOOTH",
"82 676 OFFCURVE",
"48 628 OFFCURVE",
"48 540 CURVE SMOOTH",
"48 484 LINE SMOOTH",
"48 449 OFFCURVE",
"74 423 OFFCURVE",
"109 423 CURVE SMOOTH",
"120 423 LINE SMOOTH",
"155 423 OFFCURVE",
"181 449 OFFCURVE",
"181 484 CURVE SMOOTH",
"181 499 LINE SMOOTH",
"181 530 OFFCURVE",
"164 554 OFFCURVE",
"139 559 CURVE SMOOTH",
"133 560 OFFCURVE",
"130 563 OFFCURVE",
"130 569 CURVE SMOOTH",
"129 600 OFFCURVE",
"142 622 OFFCURVE",
"167 637 CURVE SMOOTH",
"193 653 OFFCURVE",
"212 664 OFFCURVE",
"208 680 CURVE SMOOTH"
);
},
{
closed = 1;
nodes = (
"436 695 OFFCURVE",
"410 706 OFFCURVE",
"378 696 CURVE SMOOTH",
"314 676 OFFCURVE",
"280 628 OFFCURVE",
"280 540 CURVE SMOOTH",
"280 484 LINE SMOOTH",
"280 449 OFFCURVE",
"306 423 OFFCURVE",
"341 423 CURVE SMOOTH",
"352 423 LINE SMOOTH",
"387 423 OFFCURVE",
"413 449 OFFCURVE",
"413 484 CURVE SMOOTH",
"413 499 LINE SMOOTH",
"413 530 OFFCURVE",
"396 554 OFFCURVE",
"371 559 CURVE SMOOTH",
"365 560 OFFCURVE",
"362 563 OFFCURVE",
"362 569 CURVE SMOOTH",
"361 600 OFFCURVE",
"374 622 OFFCURVE",
"399 637 CURVE SMOOTH",
"425 653 OFFCURVE",
"444 664 OFFCURVE",
"440 680 CURVE SMOOTH"
);
}
);
width = 489.533;
}
);
unicode = 201C;
},
{
glyphname = quotedblright;
lastChange = "2013-12-18 08:32:29 +0400";
layers = (
{
layerId = "4FD7A5AB-3C0B-49D1-A419-889C157412FC";
name = Bold;
paths = (
{
closed = 1;
nodes = (
"280 428 OFFCURVE",
"306 417 OFFCURVE",
"338 427 CURVE SMOOTH",
"402 447 OFFCURVE",
"436 495 OFFCURVE",
"436 583 CURVE SMOOTH",
"436 639 LINE SMOOTH",
"436 674 OFFCURVE",
"410 700 OFFCURVE",
"375 700 CURVE SMOOTH",
"364 700 LINE SMOOTH",
"329 700 OFFCURVE",
"303 674 OFFCURVE",
"303 639 CURVE SMOOTH",
"303 624 LINE SMOOTH",
"303 593 OFFCURVE",
"320 569 OFFCURVE",
"345 564 CURVE SMOOTH",
"351 563 OFFCURVE",
"354 560 OFFCURVE",
"354 554 CURVE SMOOTH",
"355 523 OFFCURVE",
"342 501 OFFCURVE",
"317 486 CURVE SMOOTH",
"291 470 OFFCURVE",
"272 459 OFFCURVE",
"276 443 CURVE SMOOTH"
);
},
{
closed = 1;
nodes = (
"48 428 OFFCURVE",
"74 417 OFFCURVE",
"106 427 CURVE SMOOTH",
"170 447 OFFCURVE",
"204 495 OFFCURVE",
"204 583 CURVE SMOOTH",
"204 639 LINE SMOOTH",
"204 674 OFFCURVE",
"178 700 OFFCURVE",
"143 700 CURVE SMOOTH",
"132 700 LINE SMOOTH",
"97 700 OFFCURVE",
"71 674 OFFCURVE",
"71 639 CURVE SMOOTH",
"71 624 LINE SMOOTH",
"71 593 OFFCURVE",
"88 569 OFFCURVE",
"113 564 CURVE SMOOTH",
"119 563 OFFCURVE",
"122 560 OFFCURVE",
"122 554 CURVE SMOOTH",
"123 523 OFFCURVE",
"110 501 OFFCURVE",
"85 486 CURVE SMOOTH",
"59 470 OFFCURVE",
"40 459 OFFCURVE",
"44 443 CURVE SMOOTH"
);
}
);
width = 470;
}
);
unicode = 201D;
},
{
glyphname = quoteleft;
lastChange = "2013-12-18 08:32:29 +0400";
layers = (
{
layerId = "4FD7A5AB-3C0B-49D1-A419-889C157412FC";
name = Bold;
paths = (
{
closed = 1;
nodes = (
"204 695 OFFCURVE",
"178 706 OFFCURVE",
"146 696 CURVE SMOOTH",
"82 676 OFFCURVE",
"48 628 OFFCURVE",
"48 540 CURVE SMOOTH",
"48 484 LINE SMOOTH",
"48 449 OFFCURVE",
"74 423 OFFCURVE",
"109 423 CURVE SMOOTH",
"120 423 LINE SMOOTH",
"155 423 OFFCURVE",
"181 449 OFFCURVE",
"181 484 CURVE SMOOTH",
"181 499 LINE SMOOTH",
"181 534 OFFCURVE",
"160 560 OFFCURVE",
"130 560 CURVE",
"127 595 OFFCURVE",
"139 621 OFFCURVE",
"167 637 CURVE SMOOTH",
"193 653 OFFCURVE",
"212 664 OFFCURVE",
"208 680 CURVE SMOOTH"
);
}
);
width = 257.533;
}
);
unicode = 2018;
},
{
glyphname = quoteright;
lastChange = "2013-12-18 08:32:29 +0400";
layers = (
{
layerId = "4FD7A5AB-3C0B-49D1-A419-889C157412FC";
name = Bold;
paths = (
{
closed = 1;
nodes = (
"48 428 OFFCURVE",
"74 417 OFFCURVE",
"106 427 CURVE SMOOTH",
"170 447 OFFCURVE",
"204 495 OFFCURVE",
"204 583 CURVE SMOOTH",
"204 639 LINE SMOOTH",
"204 674 OFFCURVE",
"178 700 OFFCURVE",
"143 700 CURVE SMOOTH",
"132 700 LINE SMOOTH",
"97 700 OFFCURVE",
"71 674 OFFCURVE",
"71 639 CURVE SMOOTH",
"71 624 LINE SMOOTH",
"71 589 OFFCURVE",
"92 563 OFFCURVE",
"122 563 CURVE",
"125 528 OFFCURVE",
"113 502 OFFCURVE",
"85 486 CURVE SMOOTH",
"59 470 OFFCURVE",
"40 459 OFFCURVE",
"44 443 CURVE SMOOTH"
);
}
);
width = 238;
}
);
unicode = 2019;
},
{
glyphname = quotesinglbase;
lastChange = "2013-12-18 08:32:29 +0400";
layers = (
{
layerId = "4FD7A5AB-3C0B-49D1-A419-889C157412FC";
name = Bold;
paths = (
{
closed = 1;
nodes = (
"60 -135 OFFCURVE",
"86 -145 OFFCURVE",
"117 -135 CURVE SMOOTH",
"182 -115 OFFCURVE",
"216 -68 OFFCURVE",
"216 21 CURVE SMOOTH",
"216 76 LINE SMOOTH",
"216 111 OFFCURVE",
"190 137 OFFCURVE",
"155 137 CURVE SMOOTH",
"144 137 LINE SMOOTH",
"109 137 OFFCURVE",
"83 111 OFFCURVE",
"83 76 CURVE SMOOTH",
"83 61 LINE SMOOTH",
"83 30 OFFCURVE",
"100 6 OFFCURVE",
"125 1 CURVE SMOOTH",
"131 0 OFFCURVE",
"134 -3 OFFCURVE",
"134 -9 CURVE SMOOTH",
"135 -40 OFFCURVE",
"122 -62 OFFCURVE",
"97 -77 CURVE SMOOTH",
"71 -93 OFFCURVE",
"52 -104 OFFCURVE",
"56 -120 CURVE SMOOTH"
);
}
);
width = 274;
}
);
unicode = 201A;
},
{
glyphname = .notdef;
lastChange = "2013-12-18 08:32:29 +0400";
layers = (
{
layerId = "4FD7A5AB-3C0B-49D1-A419-889C157412FC";
name = Bold;
paths = (
{
closed = 1;
nodes = (
"40 35 LINE SMOOTH",
"40 12 OFFCURVE",
"52 0 OFFCURVE",
"75 0 CURVE SMOOTH",
"509 0 LINE SMOOTH",
"532 0 OFFCURVE",
"544 12 OFFCURVE",
"544 35 CURVE SMOOTH",
"544 665 LINE SMOOTH",
"544 688 OFFCURVE",
"532 700 OFFCURVE",
"509 700 CURVE SMOOTH",
"75 700 LINE SMOOTH",
"52 700 OFFCURVE",
"40 688 OFFCURVE",
"40 665 CURVE SMOOTH"
);
},
{
closed = 1;
nodes = (
"509 670 LINE SMOOTH",
"512 670 OFFCURVE",
"514 668 OFFCURVE",
"514 665 CURVE SMOOTH",
"514 67 LINE SMOOTH",
"514 62 OFFCURVE",
"511 61 OFFCURVE",
"508 65 CURVE SMOOTH",
"92 664 LINE SMOOTH",
"90 667 OFFCURVE",
"91 670 OFFCURVE",
"95 670 CURVE SMOOTH"
);
},
{
closed = 1;
nodes = (
"70 633 LINE SMOOTH",
"70 638 OFFCURVE",
"73 639 OFFCURVE",
"76 635 CURVE SMOOTH",
"491 36 LINE SMOOTH",
"493 33 OFFCURVE",
"492 30 OFFCURVE",
"488 30 CURVE SMOOTH",
"75 30 LINE SMOOTH",
"72 30 OFFCURVE",
"70 32 OFFCURVE",
"70 35 CURVE SMOOTH"
);
}
);
width = 584;
}
);
},
{
glyphname = florin;
lastChange = "2013-12-18 08:32:29 +0400";
layers = (
{
layerId = "4FD7A5AB-3C0B-49D1-A419-889C157412FC";
name = Bold;
paths = (
{
closed = 1;
nodes = (
"187 -5 OFFCURVE",
"241 38 OFFCURVE",
"260 145 CURVE SMOOTH",
"298 356 LINE",
"392 356 LINE SMOOTH",
"422 356 OFFCURVE",
"443 377 OFFCURVE",
"443 407 CURVE SMOOTH",
"443 436 OFFCURVE",
"422 457 OFFCURVE",
"392 457 CURVE SMOOTH",
"316 457 LINE",
"328 525 LINE SMOOTH",
"338 579 OFFCURVE",
"362 602 OFFCURVE",
"409 602 CURVE SMOOTH",
"420 602 OFFCURVE",
"431 602 OFFCURVE",
"442 601 CURVE SMOOTH",
"469 599 OFFCURVE",
"488 622 OFFCURVE",
"488 650 CURVE SMOOTH",
"488 672 OFFCURVE",
"475 693 OFFCURVE",
"441 700 CURVE SMOOTH",
"422 704 OFFCURVE",
"406 705 OFFCURVE",
"386 705 CURVE SMOOTH",
"278 705 OFFCURVE",
"230 651 OFFCURVE",
"211 550 CURVE SMOOTH",
"193 457 LINE",
"134 457 LINE SMOOTH",
"104 457 OFFCURVE",
"83 436 OFFCURVE",
"83 407 CURVE SMOOTH",
"83 377 OFFCURVE",
"104 356 OFFCURVE",
"134 356 CURVE SMOOTH",
"176 356 LINE",
"141 163 LINE SMOOTH",
"133 115 OFFCURVE",
"110 96 OFFCURVE",
"68 96 CURVE SMOOTH",
"56 96 OFFCURVE",
"19 94 OFFCURVE",
"19 48 CURVE SMOOTH",
"19 5 OFFCURVE",
"53 -5 OFFCURVE",
"84 -5 CURVE SMOOTH"
);
}
);
width = 487;
}
);
unicode = 0192;
},
{
glyphname = cent;
lastChange = "2013-12-18 08:32:29 +0400";
layers = (
{
anchors = (
{
name = bottom;
position = "{245, 0}";
},
{
name = top;
position = "{245, 515}";
}
);
layerId = "4FD7A5AB-3C0B-49D1-A419-889C157412FC";
name = Bold;
paths = (
{
closed = 1;
nodes = (
"343 397 LINE SMOOTH",
"343 401 OFFCURVE",
"345 403 OFFCURVE",
"348 402 CURVE SMOOTH",
"390 394 OFFCURVE",
"429 378 OFFCURVE",
"453 422 CURVE SMOOTH",
"468 449 OFFCURVE",
"457 488 OFFCURVE",
"425 504 CURVE SMOOTH",
"399 517 OFFCURVE",
"375 522 OFFCURVE",
"348 524 CURVE SMOOTH",
"345 524 OFFCURVE",
"343 526 OFFCURVE",
"343 529 CURVE SMOOTH",
"343 575 LINE SMOOTH",
"343 601 OFFCURVE",
"329 615 OFFCURVE",
"303 615 CURVE SMOOTH",
"277 615 OFFCURVE",
"263 601 OFFCURVE",
"263 575 CURVE SMOOTH",
"263 524 LINE SMOOTH",
"263 521 OFFCURVE",
"262 519 OFFCURVE",
"259 518 CURVE SMOOTH",
"136 491 OFFCURVE",
"45 384 OFFCURVE",
"45 257 CURVE SMOOTH",
"45 130 OFFCURVE",
"136 24 OFFCURVE",
"259 -3 CURVE SMOOTH",
"262 -4 OFFCURVE",
"263 -6 OFFCURVE",
"263 -9 CURVE SMOOTH",
"263 -60 LINE SMOOTH",
"263 -86 OFFCURVE",
"277 -100 OFFCURVE",
"303 -100 CURVE SMOOTH",
"329 -100 OFFCURVE",
"343 -86 OFFCURVE",
"343 -60 CURVE SMOOTH",
"343 -14 LINE SMOOTH",
"343 -11 OFFCURVE",
"345 -9 OFFCURVE",
"348 -9 CURVE SMOOTH",
"375 -7 OFFCURVE",
"400 -1 OFFCURVE",
"425 10.9999 CURVE SMOOTH",
"457 26.9999 OFFCURVE",
"472 71.9999 OFFCURVE",
"447 105 CURVE SMOOTH",
"421 139 OFFCURVE",
"388 121 OFFCURVE",
"348 113 CURVE SMOOTH",
"345 112 OFFCURVE",
"343 114 OFFCURVE",
"343 118 CURVE SMOOTH"
);
},
{
closed = 1;
nodes = (
"165 317 OFFCURVE",
"202 369 OFFCURVE",
"257 392 CURVE SMOOTH",
"261 394 OFFCURVE",
"263 392 OFFCURVE",
"263 389 CURVE SMOOTH",
"263 126 LINE SMOOTH",
"263 123 OFFCURVE",
"261 121 OFFCURVE",
"257 123 CURVE SMOOTH",
"202 146 OFFCURVE",
"165 198 OFFCURVE",
"165 257 CURVE SMOOTH"
);
}
);
width = 490;
}
);
unicode = 00A2;
},
{
glyphname = currency;
lastChange = "2013-12-18 08:32:29 +0400";
layers = (
{
layerId = "4FD7A5AB-3C0B-49D1-A419-889C157412FC";
name = Bold;
paths = (
{
closed = 1;
nodes = (
"168 371 OFFCURVE",
"222 425 OFFCURVE",
"290 425 CURVE SMOOTH",
"358 425 OFFCURVE",
"412 371 OFFCURVE",
"412 303 CURVE SMOOTH",
"412 236 OFFCURVE",
"358 182 OFFCURVE",
"290 182 CURVE SMOOTH",
"222 182 OFFCURVE",
"168 236 OFFCURVE",
"168 303 CURVE SMOOTH"
);
},
{
closed = 1;
nodes = (
"100 267 OFFCURVE",
"111 232 OFFCURVE",
"130 203 CURVE SMOOTH",
"131 200 OFFCURVE",
"131 198 OFFCURVE",
"129 196 CURVE SMOOTH",
"89 157 LINE SMOOTH",
"72 141 OFFCURVE",
"70 118 OFFCURVE",
"85 103 CURVE SMOOTH",
"102 86 OFFCURVE",
"126 86 OFFCURVE",
"143 103 CURVE SMOOTH",
"183 142 LINE SMOOTH",
"185 144 OFFCURVE",
"187 144 OFFCURVE",
"190 143 CURVE SMOOTH",
"218 125 OFFCURVE",
"254 114 OFFCURVE",
"290 114 CURVE SMOOTH",
"326 114 OFFCURVE",
"361 125 OFFCURVE",
"389 143 CURVE SMOOTH",
"392 144 OFFCURVE",
"394 144 OFFCURVE",
"396 142 CURVE SMOOTH",
"436 102 LINE SMOOTH",
"453 86 OFFCURVE",
"476 85 OFFCURVE",
"491 100 CURVE SMOOTH",
"507 117 OFFCURVE",
"507 141 OFFCURVE",
"490 158 CURVE SMOOTH",
"451 197 LINE SMOOTH",
"449 199 OFFCURVE",
"449 201 OFFCURVE",
"450 204 CURVE SMOOTH",
"468 232 OFFCURVE",
"479 267 OFFCURVE",
"479 303 CURVE SMOOTH",
"479 340 OFFCURVE",
"468 374 OFFCURVE",
"450 403 CURVE SMOOTH",
"449 406 OFFCURVE",
"449 408 OFFCURVE",
"451 410 CURVE SMOOTH",
"491 450 LINE SMOOTH",
"507 467 OFFCURVE",
"509 489 OFFCURVE",
"494 504 CURVE SMOOTH",
"477 521 OFFCURVE",
"453 521 OFFCURVE",
"436 504 CURVE SMOOTH",
"396 464 LINE SMOOTH",
"394 462 OFFCURVE",
"392 462 OFFCURVE",
"389 464 CURVE SMOOTH",
"361 482 OFFCURVE",
"326 493 OFFCURVE",
"290 493 CURVE SMOOTH",
"254 493 OFFCURVE",
"218 482 OFFCURVE",
"190 464 CURVE SMOOTH",
"187 462 OFFCURVE",
"185 462 OFFCURVE",
"183 464 CURVE SMOOTH",
"143 505 LINE SMOOTH",
"126 522 OFFCURVE",
"103 523 OFFCURVE",
"88 508 CURVE SMOOTH",
"72 491 OFFCURVE",
"72 467 OFFCURVE",
"89 450 CURVE SMOOTH",
"129 410 LINE SMOOTH",
"131 408 OFFCURVE",
"131 406 OFFCURVE",
"129 403 CURVE SMOOTH",
"111 375 OFFCURVE",
"100 340 OFFCURVE",
"100 303 CURVE SMOOTH"
);
}
);
width = 579;
}
);
unicode = 00A4;
},
{
glyphname = dollar;
lastChange = "2013-12-18 08:32:30 +0400";
layers = (
{
components = (
{
name = S;
transform = "{1, 0, 0, 1, 6, 0}";
}
);
layerId = "4FD7A5AB-3C0B-49D1-A419-889C157412FC";
name = Bold;
paths = (
{
closed = 1;
nodes = (
"362 728 LINE SMOOTH",
"362 758 OFFCURVE",
"341 779 OFFCURVE",
"313 779 CURVE SMOOTH",
"283 779 OFFCURVE",
"262 758 OFFCURVE",
"262 728 CURVE SMOOTH",
"262 -66 LINE SMOOTH",
"262 -96 OFFCURVE",
"283 -117 OFFCURVE",
"311 -117 CURVE SMOOTH",
"341 -117 OFFCURVE",
"362 -96 OFFCURVE",
"362 -66 CURVE SMOOTH"
);
}
);
width = 592;
}
);
unicode = 0024;
},
{
glyphname = euro;
lastChange = "2013-12-18 08:32:29 +0400";
layers = (
{
layerId = "4FD7A5AB-3C0B-49D1-A419-889C157412FC";
name = Bold;
paths = (
{
closed = 1;
nodes = (
"523 -12 OFFCURVE",
"587 25 OFFCURVE",
"638 82 CURVE SMOOTH",
"660 108 OFFCURVE",
"655 143 OFFCURVE",
"630 161 CURVE SMOOTH",
"604 180 OFFCURVE",
"573 174 OFFCURVE",
"550 151 CURVE SMOOTH",
"517 117 OFFCURVE",
"482 98 OFFCURVE",
"433 98 CURVE SMOOTH",
"355 98 OFFCURVE",
"297 147 OFFCURVE",
"270 225 CURVE",
"440 225 LINE SMOOTH",
"467 225 OFFCURVE",
"486 243 OFFCURVE",
"486 268 CURVE SMOOTH",
"486 292 OFFCURVE",
"467 310 OFFCURVE",
"440 310 CURVE SMOOTH",
"252 310 LINE",
"251 323 OFFCURVE",
"250 336 OFFCURVE",
"250 350 CURVE SMOOTH",
"250 352 LINE SMOOTH",
"250 367 OFFCURVE",
"251 382 OFFCURVE",
"252 395 CURVE",
"440 395 LINE SMOOTH",
"467 395 OFFCURVE",
"486 413 OFFCURVE",
"486 438 CURVE SMOOTH",
"486 462 OFFCURVE",
"467 480 OFFCURVE",
"440 480 CURVE SMOOTH",
"271 480 LINE",
"299 555 OFFCURVE",
"354 602 OFFCURVE",
"425 602 CURVE SMOOTH",
"475 602 OFFCURVE",
"511 585 OFFCURVE",
"543 554 CURVE SMOOTH",
"565 532 OFFCURVE",
"594 523 OFFCURVE",
"626 546 CURVE SMOOTH",
"652 565 OFFCURVE",
"657 603 OFFCURVE",
"632 630 CURVE SMOOTH",
"584 679 OFFCURVE",
"521 712 OFFCURVE",
"428 712 CURVE SMOOTH",
"287 712 OFFCURVE",
"184 615 OFFCURVE",
"144 480 CURVE",
"96 480 LINE SMOOTH",
"69 480 OFFCURVE",
"50 462 OFFCURVE",
"50 438 CURVE SMOOTH",
"50 413 OFFCURVE",
"69 395 OFFCURVE",
"96 395 CURVE SMOOTH",
"128 395 LINE",
"126 381 OFFCURVE",
"126 365 OFFCURVE",
"126 350 CURVE SMOOTH",
"126 348 LINE SMOOTH",
"126 335 OFFCURVE",
"126 323 OFFCURVE",
"127 310 CURVE",
"96 310 LINE SMOOTH",
"69 310 OFFCURVE",
"50 292 OFFCURVE",
"50 268 CURVE SMOOTH",
"50 243 OFFCURVE",
"69 225 OFFCURVE",
"96 225 CURVE SMOOTH",
"141 225 LINE",
"179 84 OFFCURVE",
"284 -12 OFFCURVE",
"432 -12 CURVE SMOOTH"
);
}
);
width = 701.96;
}
);
unicode = 20AC;
},
{
glyphname = sterling;
lastChange = "2013-12-18 08:32:29 +0400";
layers = (
{
layerId = "4FD7A5AB-3C0B-49D1-A419-889C157412FC";
name = Bold;
paths = (
{
closed = 1;
nodes = (
"13 13 OFFCURVE",
"35 0 OFFCURVE",
"66 0 CURVE SMOOTH",
"486 0 LINE SMOOTH",
"517 0 OFFCURVE",
"540 22 OFFCURVE",
"540 53 CURVE SMOOTH",
"540 84 OFFCURVE",
"517 107 OFFCURVE",
"486 107 CURVE SMOOTH",
"215 107 LINE",
"215 272 LINE SMOOTH",
"215 276 OFFCURVE",
"217 278 OFFCURVE",
"221 278 CURVE SMOOTH",
"410 278 LINE SMOOTH",
"441 278 OFFCURVE",
"464 299 OFFCURVE",
"464 328 CURVE SMOOTH",
"464 359 OFFCURVE",
"441 382 OFFCURVE",
"410 382 CURVE SMOOTH",
"221 382 LINE SMOOTH",
"217 382 OFFCURVE",
"215 384 OFFCURVE",
"215 388 CURVE SMOOTH",
"215 471 LINE SMOOTH",
"215 513 OFFCURVE",
"228 546 OFFCURVE",
"249 568 CURVE",
"268 586 OFFCURVE",
"291 596 OFFCURVE",
"322 596 CURVE SMOOTH",
"361 596 OFFCURVE",
"389 584 OFFCURVE",
"415 560 CURVE SMOOTH",
"431 545 OFFCURVE",
"468 531 OFFCURVE",
"499 559 CURVE SMOOTH",
"524 582 OFFCURVE",
"525 620 OFFCURVE",
"504 641 CURVE SMOOTH",
"462 683 OFFCURVE",
"405 710 OFFCURVE",
"321 710 CURVE SMOOTH",
"249 710 OFFCURVE",
"192 688 OFFCURVE",
"153 648 CURVE SMOOTH",
"113 608 OFFCURVE",
"91 547 OFFCURVE",
"91 474 CURVE SMOOTH",
"91 388 LINE SMOOTH",
"91 384 OFFCURVE",
"89 382 OFFCURVE",
"85 382 CURVE SMOOTH",
"66 382 LINE SMOOTH",
"35 382 OFFCURVE",
"12 361 OFFCURVE",
"12 332 CURVE SMOOTH",
"12 301 OFFCURVE",
"35 278 OFFCURVE",
"66 278 CURVE SMOOTH",
"85 278 LINE SMOOTH",
"89 278 OFFCURVE",
"91 276 OFFCURVE",
"91 272 CURVE SMOOTH",
"91 102 LINE",
"47 89 LINE SMOOTH",
"27 83 OFFCURVE",
"11 70 OFFCURVE",
"12 41 CURVE SMOOTH"
);
}
);
width = 538;
}
);
unicode = 00A3;
},
{
glyphname = yen;
lastChange = "2013-12-18 08:32:29 +0400";
layers = (
{
anchors = (
{
name = top;
position = "{302, 700}";
}
);
layerId = "4FD7A5AB-3C0B-49D1-A419-889C157412FC";
name = Bold;
paths = (
{
closed = 1;
nodes = (
"533 711 OFFCURVE",
"498 705 OFFCURVE",
"477 677 CURVE SMOOTH",
"311 449 LINE",
"307 443 OFFCURVE",
"301 443 OFFCURVE",
"297 449 CURVE",
"130 677 LINE SMOOTH",
"109 705 OFFCURVE",
"74 711 OFFCURVE",
"46 691 CURVE SMOOTH",
"17 671 OFFCURVE",
"12 635 OFFCURVE",
"33 606 CURVE SMOOTH",
"185 399 LINE SMOOTH",
"187 396 OFFCURVE",
"186 393 OFFCURVE",
"182 393 CURVE SMOOTH",
"112 393 LINE SMOOTH",
"85 393 OFFCURVE",
"66 375 OFFCURVE",
"66 349 CURVE SMOOTH",
"66 322 OFFCURVE",
"85 303 OFFCURVE",
"112 303 CURVE SMOOTH",
"239 303 LINE SMOOTH",
"242 303 OFFCURVE",
"244 301 OFFCURVE",
"244 298 CURVE SMOOTH",
"244 228 LINE SMOOTH",
"244 225 OFFCURVE",
"242 223 OFFCURVE",
"239 223 CURVE SMOOTH",
"112 223 LINE SMOOTH",
"85 223 OFFCURVE",
"66 205 OFFCURVE",
"66 179 CURVE SMOOTH",
"66 152 OFFCURVE",
"85 133 OFFCURVE",
"112 133 CURVE SMOOTH",
"239 133 LINE SMOOTH",
"242 133 OFFCURVE",
"244 131 OFFCURVE",
"244 128 CURVE SMOOTH",
"244 61 LINE SMOOTH",
"244 26 OFFCURVE",
"269 0 OFFCURVE",
"304 0 CURVE SMOOTH",
"339 0 OFFCURVE",
"364 26 OFFCURVE",
"364 61 CURVE SMOOTH",
"364 128 LINE SMOOTH",
"364 131 OFFCURVE",
"366 133 OFFCURVE",
"369 133 CURVE SMOOTH",
"486 133 LINE SMOOTH",
"513 133 OFFCURVE",
"532 151 OFFCURVE",
"532 177 CURVE SMOOTH",
"532 204 OFFCURVE",
"513 223 OFFCURVE",
"486 223 CURVE SMOOTH",
"369 223 LINE SMOOTH",
"366 223 OFFCURVE",
"364 225 OFFCURVE",
"364 228 CURVE SMOOTH",
"364 298 LINE SMOOTH",
"364 301 OFFCURVE",
"366 303 OFFCURVE",
"369 303 CURVE SMOOTH",
"486 303 LINE SMOOTH",
"513 303 OFFCURVE",
"532 321 OFFCURVE",
"532 347 CURVE SMOOTH",
"532 374 OFFCURVE",
"513 393 OFFCURVE",
"486 393 CURVE SMOOTH",
"426 393 LINE SMOOTH",
"422 393 OFFCURVE",
"420 396 OFFCURVE",
"423 399 CURVE SMOOTH",
"574 607 LINE SMOOTH",
"595 635 OFFCURVE",
"590 671 OFFCURVE",
"562 691 CURVE SMOOTH"
);
}
);
width = 607;
}
);
unicode = 00A5;
},
{
glyphname = Ohm;
lastChange = "2013-12-18 08:32:29 +0400";
layers = (
{
layerId = "4FD7A5AB-3C0B-49D1-A419-889C157412FC";
name = Bold;
paths = (
{
closed = 1;
nodes = (
"174 710 OFFCURVE",
"45 593 OFFCURVE",
"45 432 CURVE SMOOTH",
"45 289 OFFCURVE",
"125 167 OFFCURVE",
"181 90 CURVE",
"108 90 LINE SMOOTH",
"81 90 OFFCURVE",
"62 71 OFFCURVE",
"62 45 CURVE SMOOTH",
"62 19 OFFCURVE",
"81 0 OFFCURVE",
"108 0 CURVE SMOOTH",
"248 0 LINE SMOOTH",
"272 0 OFFCURVE",
"289 17 OFFCURVE",
"289 41 CURVE SMOOTH",
"289 75 LINE SMOOTH",
"289 82 OFFCURVE",
"287 89 OFFCURVE",
"282 95 CURVE SMOOTH",
"194 210 OFFCURVE",
"143 318 OFFCURVE",
"143 431 CURVE SMOOTH",
"143 540 OFFCURVE",
"230 622 OFFCURVE",
"335 622 CURVE SMOOTH",
"440 622 OFFCURVE",
"527 540 OFFCURVE",
"527 431 CURVE SMOOTH",
"527 318 OFFCURVE",
"476 210 OFFCURVE",
"388 95 CURVE SMOOTH",
"383 89 OFFCURVE",
"381 82 OFFCURVE",
"381 75 CURVE SMOOTH",
"381 41 LINE SMOOTH",
"381 17 OFFCURVE",
"398 0 OFFCURVE",
"422 0 CURVE SMOOTH",
"562 0 LINE SMOOTH",
"589 0 OFFCURVE",
"608 19 OFFCURVE",
"608 45 CURVE SMOOTH",
"608 71 OFFCURVE",
"589 90 OFFCURVE",
"562 90 CURVE SMOOTH",
"489 90 LINE",
"544 166 OFFCURVE",
"624 289 OFFCURVE",
"624 431 CURVE SMOOTH",
"624 593 OFFCURVE",
"495 710 OFFCURVE",
"335 710 CURVE SMOOTH"
);
}
);
width = 669;
}
);
unicode = 2126;
},
{
glyphname = approxequal;
lastChange = "2013-12-18 08:32:30 +0400";
layers = (
{
layerId = "4FD7A5AB-3C0B-49D1-A419-889C157412FC";
name = Bold;
paths = (
{
closed = 1;
nodes = (
"72 155 OFFCURVE",
"93 154 OFFCURVE",
"112 165 CURVE SMOOTH",
"139 181 OFFCURVE",
"166 189 OFFCURVE",
"192 189 CURVE SMOOTH",
"221 189 OFFCURVE",
"252 178 OFFCURVE",
"297 158 CURVE SMOOTH",
"348 136 OFFCURVE",
"376 123 OFFCURVE",
"416 123 CURVE SMOOTH",
"474 123 OFFCURVE",
"519 162 OFFCURVE",
"549 198 CURVE SMOOTH",
"561 212 OFFCURVE",
"561 231 OFFCURVE",
"550 244 CURVE SMOOTH",
"537 260 OFFCURVE",
"516 262 OFFCURVE",
"497 251 CURVE SMOOTH",
"470 235 OFFCURVE",
"443 227 OFFCURVE",
"416 227 CURVE SMOOTH",
"387 227 OFFCURVE",
"356 239 OFFCURVE",
"311 258 CURVE SMOOTH",
"260 279 OFFCURVE",
"231 292 OFFCURVE",
"192 292 CURVE SMOOTH",
"134 292 OFFCURVE",
"90 254 OFFCURVE",
"59 219 CURVE SMOOTH",
"47 205 OFFCURVE",
"47 186 OFFCURVE",
"59 171 CURVE SMOOTH"
);
},
{
closed = 1;
nodes = (
"72 349 OFFCURVE",
"93 347 OFFCURVE",
"112 359 CURVE SMOOTH",
"138 374 OFFCURVE",
"165 383 OFFCURVE",
"192 383 CURVE SMOOTH",
"221 383 OFFCURVE",
"252 371 OFFCURVE",
"297 352 CURVE SMOOTH",
"348 330 OFFCURVE",
"376 317 OFFCURVE",
"416 317 CURVE SMOOTH",
"474 317 OFFCURVE",
"518 355 OFFCURVE",
"549 391 CURVE SMOOTH",
"561 405 OFFCURVE",
"561 424 OFFCURVE",
"550 437 CURVE SMOOTH",
"537 454 OFFCURVE",
"515 456 OFFCURVE",
"496 444 CURVE SMOOTH",
"470 428 OFFCURVE",
"443 420 OFFCURVE",
"416 420 CURVE SMOOTH",
"387 420 OFFCURVE",
"356 433 OFFCURVE",
"311 452 CURVE SMOOTH",
"260 473 OFFCURVE",
"231 486 OFFCURVE",
"192 486 CURVE SMOOTH",
"134 486 OFFCURVE",
"90 448 OFFCURVE",
"59 413 CURVE SMOOTH",
"47 399 OFFCURVE",
"47 380 OFFCURVE",
"59 365 CURVE SMOOTH"
);
}
);
width = 608;
}
);
unicode = 2248;
},
{
glyphname = asciitilde;
lastChange = "2013-12-18 08:32:29 +0400";
layers = (
{
layerId = "4FD7A5AB-3C0B-49D1-A419-889C157412FC";
name = Bold;
paths = (
{
closed = 1;
nodes = (
"72 252 OFFCURVE",
"93 251 OFFCURVE",
"112 262 CURVE SMOOTH",
"139 278 OFFCURVE",
"166 286 OFFCURVE",
"192 286 CURVE SMOOTH",
"221 286 OFFCURVE",
"252 275 OFFCURVE",
"297 255 CURVE SMOOTH",
"348 233 OFFCURVE",
"376 220 OFFCURVE",
"416 220 CURVE SMOOTH",
"474 220 OFFCURVE",
"519 259 OFFCURVE",
"549 295 CURVE SMOOTH",
"561 309 OFFCURVE",
"561 328 OFFCURVE",
"550 341 CURVE SMOOTH",
"537 357 OFFCURVE",
"516 359 OFFCURVE",
"497 348 CURVE SMOOTH",
"470 332 OFFCURVE",
"443 324 OFFCURVE",
"416 324 CURVE SMOOTH",
"387 324 OFFCURVE",
"356 336 OFFCURVE",
"311 355 CURVE SMOOTH",
"260 376 OFFCURVE",
"231 389 OFFCURVE",
"192 389 CURVE SMOOTH",
"134 389 OFFCURVE",
"90 351 OFFCURVE",
"59 316 CURVE SMOOTH",
"47 302 OFFCURVE",
"47 283 OFFCURVE",
"59 268 CURVE SMOOTH"
);
}
);
width = 608;
}
);
unicode = 007E;
},
{
glyphname = bulletoperator;
lastChange = "2013-12-22 08:01:41 +0400";
layers = (
{
layerId = "4FD7A5AB-3C0B-49D1-A419-889C157412FC";
name = Bold;
paths = (
{
closed = 1;
nodes = (
"179 217 OFFCURVE",
"217 255 OFFCURVE",
"217 301 CURVE SMOOTH",
"217 346 OFFCURVE",
"179 384 OFFCURVE",
"134 384 CURVE SMOOTH",
"88 384 OFFCURVE",
"50 346 OFFCURVE",
"50 301 CURVE SMOOTH",
"50 255 OFFCURVE",
"88 217 OFFCURVE",
"134 217 CURVE SMOOTH"
);
}
);
width = 267;
}
);
unicode = 2219;
},
{
glyphname = divide;
lastChange = "2013-12-18 08:32:29 +0400";
layers = (
{
layerId = "4FD7A5AB-3C0B-49D1-A419-889C157412FC";
name = Bold;
paths = (
{
closed = 1;
nodes = (
"386 553 OFFCURVE",
"347 592 OFFCURVE",
"300 592 CURVE SMOOTH",
"252 592 OFFCURVE",
"213 553 OFFCURVE",
"213 505 CURVE SMOOTH",
"213 458 OFFCURVE",
"252 419 OFFCURVE",
"300 419 CURVE SMOOTH",
"347 419 OFFCURVE",
"386 458 OFFCURVE",
"386 505 CURVE SMOOTH"
);
},
{
closed = 1;
nodes = (
"495 240 LINE SMOOTH",
"532 240 OFFCURVE",
"559 267 OFFCURVE",
"559 304 CURVE SMOOTH",
"559 340 OFFCURVE",
"532 367 OFFCURVE",
"495 367 CURVE SMOOTH",
"104 367 LINE SMOOTH",
"67 367 OFFCURVE",
"40 341 OFFCURVE",
"40 304 CURVE SMOOTH",
"40 267 OFFCURVE",
"67 240 OFFCURVE",
"104 240 CURVE SMOOTH"
);
},
{
closed = 1;
nodes = (
"386 150 OFFCURVE",
"347 189 OFFCURVE",
"300 189 CURVE SMOOTH",
"252 189 OFFCURVE",
"213 150 OFFCURVE",
"213 102 CURVE SMOOTH",
"213 55 OFFCURVE",
"252 16 OFFCURVE",
"300 16 CURVE SMOOTH",
"347 16 OFFCURVE",
"386 55 OFFCURVE",
"386 102 CURVE SMOOTH"
);
}
);
width = 680;
}
);
unicode = 00F7;
},
{
glyphname = divisionslash;
lastChange = "2013-12-22 08:02:04 +0400";
layers = (
{
layerId = "4FD7A5AB-3C0B-49D1-A419-889C157412FC";
name = Bold;
paths = (
{
closed = 1;
nodes = (
"483 808 OFFCURVE",
"455 798 OFFCURVE",
"442 771 CURVE SMOOTH",
"36 -60 LINE SMOOTH",
"23 -87 OFFCURVE",
"33 -115 OFFCURVE",
"60 -128 CURVE SMOOTH",
"85 -141 OFFCURVE",
"114 -131 OFFCURVE",
"127 -104 CURVE SMOOTH",
"532 727 LINE SMOOTH",
"545 754 OFFCURVE",
"535 782 OFFCURVE",
"509 795 CURVE SMOOTH"
);
},
{
closed = 1;
nodes = (
"483 808 OFFCURVE",
"455 798 OFFCURVE",
"442 771 CURVE SMOOTH",
"36 -60 LINE SMOOTH",
"23 -87 OFFCURVE",
"33 -115 OFFCURVE",
"60 -128 CURVE SMOOTH",
"85 -141 OFFCURVE",
"114 -131 OFFCURVE",
"127 -104 CURVE SMOOTH",
"532 727 LINE SMOOTH",
"545 754 OFFCURVE",
"535 782 OFFCURVE",
"509 795 CURVE SMOOTH"
);
}
);
width = 567.334;
}
);
unicode = 2215;
},
{
glyphname = emptyset;
lastChange = "2013-12-18 08:32:29 +0400";
layers = (
{
layerId = "4FD7A5AB-3C0B-49D1-A419-889C157412FC";
name = Bold;
paths = (
{
closed = 1;
nodes = (
"576 434 LINE SMOOTH",
"599 457 OFFCURVE",
"601 489 OFFCURVE",
"581 514 CURVE",
"580 515 LINE",
"560 539 OFFCURVE",
"524 537 OFFCURVE",
"496 509 CURVE SMOOTH",
"470 483 LINE SMOOTH",
"468 481 OFFCURVE",
"465 481 OFFCURVE",
"463 483 CURVE SMOOTH",
"421 509 OFFCURVE",
"371 525 OFFCURVE",
"318 525 CURVE SMOOTH",
"170 525 OFFCURVE",
"51 405 OFFCURVE",
"51 257 CURVE SMOOTH",
"51 206 OFFCURVE",
"65 158 OFFCURVE",
"90 118 CURVE SMOOTH",
"92 115 OFFCURVE",
"91 113 OFFCURVE",
"89 111 CURVE SMOOTH",
"59 81 LINE SMOOTH",
"36 58 OFFCURVE",
"34 26 OFFCURVE",
"54 0.999999 CURVE",
"55 0 LINE",
"75 -24 OFFCURVE",
"111 -22 OFFCURVE",
"139 6 CURVE SMOOTH",
"166 32 LINE SMOOTH",
"168 34 OFFCURVE",
"170 34 OFFCURVE",
"173 33 CURVE SMOOTH",
"214 6 OFFCURVE",
"264 -10 OFFCURVE",
"318 -10 CURVE SMOOTH",
"466 -10 OFFCURVE",
"586 109 OFFCURVE",
"586 257 CURVE SMOOTH",
"586 309 OFFCURVE",
"571 357 OFFCURVE",
"546 398 CURVE SMOOTH",
"544 401 OFFCURVE",
"544 403 OFFCURVE",
"547 405 CURVE SMOOTH"
);
},
{
closed = 1;
nodes = (
"171 339 OFFCURVE",
"236 405 OFFCURVE",
"318 405 CURVE SMOOTH",
"337 405 OFFCURVE",
"355 401 OFFCURVE",
"371 395 CURVE SMOOTH",
"375 394 OFFCURVE",
"375 391 OFFCURVE",
"373 388 CURVE SMOOTH",
"186 206 LINE SMOOTH",
"184 203 OFFCURVE",
"181 204 OFFCURVE",
"179 207 CURVE SMOOTH",
"174 223 OFFCURVE",
"171 239 OFFCURVE",
"171 257 CURVE SMOOTH"
);
},
{
closed = 1;
nodes = (
"466 176 OFFCURVE",
"400 110 OFFCURVE",
"318 110 CURVE SMOOTH",
"299 110 OFFCURVE",
"281 114 OFFCURVE",
"264 120 CURVE SMOOTH",
"260 121 OFFCURVE",
"260 124 OFFCURVE",
"263 127 CURVE SMOOTH",
"450 310 LINE SMOOTH",
"452 313 OFFCURVE",
"455 312 OFFCURVE",
"457 309 CURVE SMOOTH",
"463 293 OFFCURVE",
"466 275 OFFCURVE",
"466 257 CURVE SMOOTH"
);
}
);
width = 635;
}
);
unicode = 2205;
},
{
glyphname = equal;
lastChange = "2013-12-18 08:32:29 +0400";
layers = (
{
layerId = "4FD7A5AB-3C0B-49D1-A419-889C157412FC";
name = Bold;
paths = (
{
closed = 1;
nodes = (
"495 347 LINE SMOOTH",
"532 347 OFFCURVE",
"559 374 OFFCURVE",
"559 411 CURVE SMOOTH",
"559 447 OFFCURVE",
"532 474 OFFCURVE",
"495 474 CURVE SMOOTH",
"104 474 LINE SMOOTH",
"67 474 OFFCURVE",
"40 448 OFFCURVE",
"40 411 CURVE SMOOTH",
"40 374 OFFCURVE",
"67 347 OFFCURVE",
"104 347 CURVE SMOOTH"
);
},
{
closed = 1;
nodes = (
"495 134 LINE SMOOTH",
"532 134 OFFCURVE",
"559 161 OFFCURVE",
"559 198 CURVE SMOOTH",
"559 234 OFFCURVE",
"532 261 OFFCURVE",
"495 261 CURVE SMOOTH",
"104 261 LINE SMOOTH",
"67 261 OFFCURVE",
"40 235 OFFCURVE",
"40 198 CURVE SMOOTH",
"40 161 OFFCURVE",
"67 134 OFFCURVE",
"104 134 CURVE SMOOTH"
);
}
);
width = 599;
}
);
unicode = 003D;
},
{
glyphname = greater;
lastChange = "2013-12-18 08:32:30 +0400";
layers = (
{
layerId = "4FD7A5AB-3C0B-49D1-A419-889C157412FC";
name = Bold;
paths = (
{
closed = 1;
nodes = (
"85 19 OFFCURVE",
"123 19 OFFCURVE",
"149 45 CURVE SMOOTH",
"364 259 LINE SMOOTH",
"391 286 OFFCURVE",
"391 324 OFFCURVE",
"364 351 CURVE SMOOTH",
"149 565 LINE SMOOTH",
"123 591 OFFCURVE",
"85 591 OFFCURVE",
"59 565 CURVE SMOOTH",
"34 540 OFFCURVE",
"34 503 OFFCURVE",
"61 476 CURVE SMOOTH",
"227 309 LINE SMOOTH",
"230 306 OFFCURVE",
"230 304 OFFCURVE",
"227 301 CURVE SMOOTH",
"60 134 LINE SMOOTH",
"34 108 OFFCURVE",
"33 71 OFFCURVE",
"59 45 CURVE SMOOTH"
);
}
);
width = 424.25;
}
);
unicode = 003E;
},
{
glyphname = greaterequal;
lastChange = "2013-12-18 08:32:29 +0400";
layers = (
{
layerId = "4FD7A5AB-3C0B-49D1-A419-889C157412FC";
name = Bold;
paths = (
{
closed = 1;
nodes = (
"568 87 OFFCURVE",
"544 111 OFFCURVE",
"512 111 CURVE SMOOTH",
"136 111 LINE SMOOTH",
"104 111 OFFCURVE",
"80 87 OFFCURVE",
"80 55 CURVE SMOOTH",
"80 23 OFFCURVE",
"104 -1 OFFCURVE",
"136 -1 CURVE SMOOTH",
"512 -1 LINE SMOOTH",
"544 -1 OFFCURVE",
"568 23 OFFCURVE",
"568 55 CURVE SMOOTH"
);
},
{
closed = 1;
nodes = (
"556 354 OFFCURVE",
"568 372 OFFCURVE",
"568 400 CURVE SMOOTH",
"568 426 LINE SMOOTH",
"568 454 OFFCURVE",
"556 472 OFFCURVE",
"531 484 CURVE SMOOTH",
"150 661 LINE SMOOTH",
"115 677 OFFCURVE",
"91 662 OFFCURVE",
"91 623 CURVE SMOOTH",
"91 614 LINE SMOOTH",
"91 586 OFFCURVE",
"103 568 OFFCURVE",
"129 556 CURVE SMOOTH",
"448 414 LINE",
"129 271 LINE SMOOTH",
"103 259 OFFCURVE",
"91 241 OFFCURVE",
"91 213 CURVE SMOOTH",
"91 203 LINE SMOOTH",
"91 164 OFFCURVE",
"115 149 OFFCURVE",
"150 165 CURVE SMOOTH",
"531 342 LINE SMOOTH"
);
}
);
width = 648;
}
);
unicode = 2265;
},
{
glyphname = increment;
lastChange = "2013-12-18 08:32:30 +0400";
layers = (
{
layerId = "4FD7A5AB-3C0B-49D1-A419-889C157412FC";
name = Bold;
paths = (
{
closed = 1;
nodes = (
"408 673 LINE SMOOTH",
"399 693 OFFCURVE",
"382 704 OFFCURVE",
"363 705 CURVE",
"343 706 OFFCURVE",
"323 695 OFFCURVE",
"314 674 CURVE SMOOTH",
"45 72 LINE SMOOTH",
"37 54 OFFCURVE",
"39 36 OFFCURVE",
"49 22 CURVE",
"58 8 OFFCURVE",
"73 0 OFFCURVE",
"92 0 CURVE SMOOTH",
"630 0 LINE SMOOTH",
"653 0 OFFCURVE",
"671 12 OFFCURVE",
"678 31 CURVE",
"683 43 OFFCURVE",
"683 58 OFFCURVE",
"677 72 CURVE SMOOTH"
);
},
{
closed = 1;
nodes = (
"357 526 LINE SMOOTH",
"359 530 OFFCURVE",
"362 530 OFFCURVE",
"364 526 CURVE SMOOTH",
"552 106 LINE SMOOTH",
"554 102 OFFCURVE",
"552 100 OFFCURVE",
"548 100 CURVE SMOOTH",
"173 100 LINE SMOOTH",
"169 100 OFFCURVE",
"167 102 OFFCURVE",
"169 106 CURVE SMOOTH"
);
}
);
width = 721.634;
}
);
unicode = 2206;
},
{
glyphname = infinity;
lastChange = "2013-12-18 08:32:30 +0400";
layers = (
{
layerId = "4FD7A5AB-3C0B-49D1-A419-889C157412FC";
name = Bold;
paths = (
{
closed = 1;
nodes = (
"145 308 OFFCURVE",
"184 337 OFFCURVE",
"228 337 CURVE SMOOTH",
"259 337 OFFCURVE",
"290 326 OFFCURVE",
"321 294 CURVE SMOOTH",
"369 246 LINE SMOOTH",
"371 243 OFFCURVE",
"371 241 OFFCURVE",
"369 238 CURVE SMOOTH",
"321 190 LINE SMOOTH",
"290 159 OFFCURVE",
"259 147 OFFCURVE",
"228 147 CURVE SMOOTH",
"184 147 OFFCURVE",
"145 176 OFFCURVE",
"145 242 CURVE SMOOTH"
);
},
{
closed = 1;
nodes = (
"427 173 LINE SMOOTH",
"430 175 OFFCURVE",
"432 175 OFFCURVE",
"435 172 CURVE SMOOTH",
"476 131 LINE SMOOTH",
"528 79 OFFCURVE",
"566 47 OFFCURVE",
"642 47 CURVE SMOOTH",
"733 47 OFFCURVE",
"816 109 OFFCURVE",
"816 242 CURVE SMOOTH",
"816 375 OFFCURVE",
"733 437 OFFCURVE",
"642 437 CURVE SMOOTH",
"566 437 OFFCURVE",
"529 404 OFFCURVE",
"476 353 CURVE SMOOTH",
"434 311 LINE SMOOTH",
"431 309 OFFCURVE",
"429 309 OFFCURVE",
"426 312 CURVE SMOOTH",
"385 353 LINE SMOOTH",
"333 405 OFFCURVE",
"295 437 OFFCURVE",
"219 437 CURVE SMOOTH",
"128 437 OFFCURVE",
"45 375 OFFCURVE",
"45 242 CURVE SMOOTH",
"45 109 OFFCURVE",
"128 47 OFFCURVE",
"219 47 CURVE SMOOTH",
"295 47 OFFCURVE",
"332 79 OFFCURVE",
"385 131 CURVE SMOOTH"
);
},
{
closed = 1;
nodes = (
"716 176 OFFCURVE",
"677 147 OFFCURVE",
"633 147 CURVE SMOOTH",
"602 147 OFFCURVE",
"571 158 OFFCURVE",
"540 190 CURVE SMOOTH",
"492 238 LINE SMOOTH",
"490 241 OFFCURVE",
"490 243 OFFCURVE",
"492 246 CURVE SMOOTH",
"540 294 LINE SMOOTH",
"571 326 OFFCURVE",
"602 337 OFFCURVE",
"633 337 CURVE SMOOTH",
"677 337 OFFCURVE",
"716 308 OFFCURVE",
"716 242 CURVE SMOOTH"
);
}
);
width = 861;
}
);
unicode = 221E;
},
{
glyphname = integral;
lastChange = "2013-12-18 08:32:29 +0400";
layers = (
{
layerId = "4FD7A5AB-3C0B-49D1-A419-889C157412FC";
name = Bold;
paths = (
{
closed = 1;
nodes = (
"252 57 LINE",
"254 16 OFFCURVE",
"229 -26 OFFCURVE",
"197 -26 CURVE",
"188 -26 OFFCURVE",
"182 -25 OFFCURVE",
"172 -22 CURVE",
"132 -10 OFFCURVE",
"88 -27 OFFCURVE",
"77 -74 CURVE",
"68 -113 OFFCURVE",
"87 -142 OFFCURVE",
"130 -153 CURVE",
"150 -157 OFFCURVE",
"173 -160 OFFCURVE",
"194 -160 CURVE",
"284 -160 OFFCURVE",
"377 -101 OFFCURVE",
"368 57 CURVE",
"328 543 LINE",
"326 584 OFFCURVE",
"347 632 OFFCURVE",
"384 632 CURVE",
"393 632 OFFCURVE",
"399 631 OFFCURVE",
"409 628 CURVE",
"445 617 OFFCURVE",
"492 615 OFFCURVE",
"504 664 CURVE",
"513 703 OFFCURVE",
"494 742 OFFCURVE",
"451 753 CURVE",
"431 757 OFFCURVE",
"407 760 OFFCURVE",
"386 760 CURVE",
"297 760 OFFCURVE",
"203 701 OFFCURVE",
"212 543 CURVE"
);
}
);
width = 581.187;
}
);
unicode = 222B;
},
{
glyphname = less;
lastChange = "2013-12-18 08:32:29 +0400";
layers = (
{
layerId = "4FD7A5AB-3C0B-49D1-A419-889C157412FC";
name = Bold;
paths = (
{
closed = 1;
nodes = (
"391 71 OFFCURVE",
"390 108 OFFCURVE",
"364 134 CURVE SMOOTH",
"197 301 LINE SMOOTH",
"194 304 OFFCURVE",
"194 306 OFFCURVE",
"197 309 CURVE SMOOTH",
"363 476 LINE SMOOTH",
"390 503 OFFCURVE",
"390 540 OFFCURVE",
"365 565 CURVE SMOOTH",
"339 591 OFFCURVE",
"301 591 OFFCURVE",
"275 565 CURVE SMOOTH",
"60 351 LINE SMOOTH",
"33 324 OFFCURVE",
"33 286 OFFCURVE",
"60 259 CURVE SMOOTH",
"275 45 LINE SMOOTH",
"301 19 OFFCURVE",
"339 19 OFFCURVE",
"365 45 CURVE SMOOTH"
);
}
);
width = 424.007;
}
);
unicode = 003C;
},
{
glyphname = lessequal;
lastChange = "2013-12-18 08:32:29 +0400";
layers = (
{
layerId = "4FD7A5AB-3C0B-49D1-A419-889C157412FC";
name = Bold;
paths = (
{
closed = 1;
nodes = (
"80 23 OFFCURVE",
"104 -1 OFFCURVE",
"136 -1 CURVE SMOOTH",
"512 -1 LINE SMOOTH",
"544 -1 OFFCURVE",
"568 23 OFFCURVE",
"568 55 CURVE SMOOTH",
"568 87 OFFCURVE",
"544 111 OFFCURVE",
"512 111 CURVE SMOOTH",
"136 111 LINE SMOOTH",
"104 111 OFFCURVE",
"80 87 OFFCURVE",
"80 55 CURVE SMOOTH"
);
},
{
closed = 1;
nodes = (
"498 165 LINE SMOOTH",
"533 149 OFFCURVE",
"557 164 OFFCURVE",
"557 203 CURVE SMOOTH",
"557 213 LINE SMOOTH",
"557 241 OFFCURVE",
"545 259 OFFCURVE",
"519 271 CURVE SMOOTH",
"200 414 LINE",
"519 556 LINE SMOOTH",
"545 568 OFFCURVE",
"557 586 OFFCURVE",
"557 614 CURVE SMOOTH",
"557 623 LINE SMOOTH",
"557 662 OFFCURVE",
"533 677 OFFCURVE",
"498 661 CURVE SMOOTH",
"117 484 LINE SMOOTH",
"92 472 OFFCURVE",
"80 454 OFFCURVE",
"80 426 CURVE SMOOTH",
"80 400 LINE SMOOTH",
"80 372 OFFCURVE",
"92 354 OFFCURVE",
"117 342 CURVE SMOOTH"
);
}
);
width = 648;
}
);
unicode = 2264;
},
{
glyphname = logicalnot;
lastChange = "2013-12-18 08:32:30 +0400";
layers = (
{
layerId = "4FD7A5AB-3C0B-49D1-A419-889C157412FC";
name = Bold;
paths = (
{
closed = 1;
nodes = (
"105 406 LINE SMOOTH",
"75 406 OFFCURVE",
"54 385 OFFCURVE",
"54 357 CURVE SMOOTH",
"54 327 OFFCURVE",
"75 306 OFFCURVE",
"105 306 CURVE SMOOTH",
"536 306 LINE",
"536 161 LINE SMOOTH",
"536 131 OFFCURVE",
"557 110 OFFCURVE",
"585 110 CURVE SMOOTH",
"615 110 OFFCURVE",
"636 131 OFFCURVE",
"636 161 CURVE SMOOTH",
"636 355 LINE SMOOTH",
"636 385 OFFCURVE",
"615 406 OFFCURVE",
"585 406 CURVE SMOOTH"
);
}
);
width = 707;
}
);
unicode = 00AC;
},
{
glyphname = micro;
lastChange = "2013-12-18 08:32:29 +0400";
layers = (
{
anchors = (
{
name = bottom;
position = "{311, 0}";
},
{
name = top;
position = "{311, 515}";
}
);
layerId = "4FD7A5AB-3C0B-49D1-A419-889C157412FC";
name = Bold;
paths = (
{
closed = 1;
nodes = (
"441 515 OFFCURVE",
"416 489 OFFCURVE",
"416 454 CURVE SMOOTH",
"416 248 LINE SMOOTH",
"416 171 OFFCURVE",
"374 110 OFFCURVE",
"297 110 CURVE SMOOTH",
"220 110 OFFCURVE",
"200 171 OFFCURVE",
"200 248 CURVE SMOOTH",
"200 454 LINE SMOOTH",
"200 489 OFFCURVE",
"175 515 OFFCURVE",
"140 515 CURVE SMOOTH",
"105 515 OFFCURVE",
"80 489 OFFCURVE",
"80 454 CURVE SMOOTH",
"80 248 LINE SMOOTH",
"80 234.06 OFFCURVE",
"80.3085 220.371 OFFCURVE",
"81 207.017 CURVE",
"81 -100 LINE SMOOTH",
"81 -139 OFFCURVE",
"102 -160 OFFCURVE",
"141 -160 CURVE SMOOTH",
"179 -160 OFFCURVE",
"200 -139 OFFCURVE",
"200 -100 CURVE SMOOTH",
"200 9 LINE SMOOTH",
"200 13 OFFCURVE",
"203 14 OFFCURVE",
"206 11 CURVE SMOOTH",
"227 -7 OFFCURVE",
"256 -10 OFFCURVE",
"275 -10 CURVE SMOOTH",
"363 -10 OFFCURVE",
"403 56 OFFCURVE",
"408 66 CURVE SMOOTH",
"412 74 OFFCURVE",
"416 73 OFFCURVE",
"416 65 CURVE SMOOTH",
"416 61 LINE SMOOTH",
"416 26 OFFCURVE",
"441 0 OFFCURVE",
"476 0 CURVE SMOOTH",
"511 0 OFFCURVE",
"536 26 OFFCURVE",
"536 61 CURVE SMOOTH",
"536 454 LINE SMOOTH",
"536 489 OFFCURVE",
"511 515 OFFCURVE",
"476 515 CURVE SMOOTH"
);
}
);
width = 606;
}
);
unicode = 00B5;
},
{
glyphname = minus;
lastChange = "2013-12-18 08:32:29 +0400";
layers = (
{
layerId = "4FD7A5AB-3C0B-49D1-A419-889C157412FC";
name = Bold;
paths = (
{
closed = 1;
nodes = (
"495 240 LINE SMOOTH",
"532 240 OFFCURVE",
"559 266 OFFCURVE",
"559 303 CURVE SMOOTH",
"559 340 OFFCURVE",
"532 367 OFFCURVE",
"495 367 CURVE SMOOTH",
"104 367 LINE SMOOTH",
"67 367 OFFCURVE",
"40 341 OFFCURVE",
"40 304 CURVE SMOOTH",
"40 267 OFFCURVE",
"67 240 OFFCURVE",
"104 240 CURVE SMOOTH"
);
}
);
width = 548;
}
);
unicode = 2212;
},
